<svg width="120" height="62" viewBox="0 0 120 62" fill="none" xmlns="http://www.w3.org/2000/svg">
<g clip-path="url(#clip0)">
<path d="M119.264 7.70088C119.264 7.70088 115.824 5.86641 104.683 3.04771C94.9077 0.56925 87.4407 0 87.4407 0L87.4777 14.6975C87.4777 20.9097 77.2873 27.5062 59.8839 27.5062H59.386C41.9846 27.5062 31.7977 20.9097 31.7977 14.6975L31.8317 0C31.8317 0 24.3717 0.568905 14.5922 3.04771C3.452 5.86641 0.012207 7.70088 0.012207 7.70088C0.838037 19.4884 27.4196 29.2001 59.6315 29.2053H59.639C91.8528 29.2001 118.441 19.4884 119.264 7.70088Z" fill="#F3ECD8"/>
<path d="M119.279 40.7062C119.279 40.7062 115.839 42.5355 104.698 45.3567C94.9159 47.8355 87.4554 48.4019 87.4554 48.4019L87.4929 33.7068C87.4929 27.4961 77.302 20.902 59.8991 20.902L59.6542 20.8968H59.6467L59.4052 20.902C42.0003 20.902 31.8134 27.4961 31.8134 33.7068L31.8514 48.4019C31.8514 48.4019 24.3874 47.8355 14.6084 45.3567C3.47121 42.5355 0.0244141 40.7062 0.0244141 40.7062C0.850244 28.9197 27.4388 19.208 59.6547 19.2004C91.868 19.208 118.457 28.9197 119.279 40.7062ZM5.81672 61.9689C3.10128 61.9689 3.05229 60.5449 3.05229 59.9946V57.4022C3.05229 57.2406 3.03729 57.033 3.5202 57.033H4.91941C5.37931 57.033 5.35332 57.2517 5.35332 57.4022V59.9946C5.35332 60.1816 5.39881 60.6758 6.38661 60.6758H8.74012C9.70942 60.6758 9.76591 60.1816 9.76591 59.9946V57.4022C9.76591 57.2513 9.73492 57.033 10.1923 57.033H11.61C12.1199 57.033 12.0739 57.2517 12.0739 57.4022V59.9946C12.0739 60.5459 12.0209 61.9689 9.30201 61.9689H5.81672ZM18.8246 61.6521C17.8667 60.7636 16.4975 59.6464 15.1023 58.4611V61.6204C15.1023 61.7605 15.1513 61.9689 14.6724 61.9689H13.3637C12.8923 61.9689 12.9453 61.7609 12.9453 61.6204V57.3956C12.9453 57.2503 12.9263 57.0316 13.3637 57.0316H15.9166C16.637 57.0316 17.6668 58.0293 18.3382 58.6942C18.8625 59.1932 19.8203 59.9515 20.4652 60.5236V57.3953C20.4652 57.2499 20.4387 57.0313 20.9141 57.0313H22.3358C22.7882 57.0313 22.7627 57.2499 22.7627 57.3953V61.9675H20.1418C19.5789 61.9689 19.3374 61.9951 18.8246 61.6521ZM23.6296 61.9689V57.0378H29.9543C30.3392 57.0378 32.9376 57.002 32.9376 58.8823C32.9376 60.7997 33.2356 61.9689 30.0073 61.9689H26.598L25.8626 60.9402V61.9689H23.6296ZM29.6183 60.6699C30.7686 60.6699 30.6816 59.9116 30.6816 59.5631C30.6816 58.3991 30.2062 58.3516 29.4484 58.3516H25.8391V60.6692L29.6183 60.6699ZM35.4116 57.0691H41.2424C41.7328 57.0691 41.6689 57.2916 41.6689 57.7028C41.6689 58.0871 41.7443 58.3054 41.2424 58.3054H36.6339C36.5129 58.3054 36.091 58.2645 36.091 58.5603C36.091 58.8616 36.0115 58.9814 36.4719 58.9814H40.5451L41.2014 59.8799C41.2954 60.0046 41.2844 60.1141 40.926 60.1141H36.7089L36.0565 59.2356V60.5298C36.0565 60.8311 36.4449 60.7739 36.5579 60.7739H41.3439C41.8193 60.7739 41.7778 61.0026 41.7778 61.3766C41.7778 61.7767 41.8193 62.0006 41.3439 62.0006H35.2867C34.7813 62.0006 33.797 61.8921 33.797 60.8049V58.0875C33.797 57.8016 34.0119 57.0691 35.4116 57.0691ZM43.241 57.0375H49.6187C50.4745 57.0375 51.7193 57.0319 51.7193 58.623C51.7193 59.6623 51.3989 59.7139 50.712 60.0363C51.8623 60.1716 51.7078 61.1844 51.7078 61.7089C51.7078 61.9744 51.5683 61.9686 51.4548 61.9686H49.5842C49.1918 61.9686 49.2863 61.5429 49.2863 61.3194C49.2863 60.7167 48.7959 60.7422 48.6034 60.7422H45.8505C45.5865 60.4251 45.0737 59.7184 45.0737 59.7184V61.7657L44.7227 61.9682H42.8406L42.6521 61.8067V57.4631C42.6526 57.1573 42.9656 57.0375 43.241 57.0375ZM48.321 58.3419H45.4811C45.0057 58.3419 45.0287 58.4504 45.0287 58.55V59.4326H47.9516C49.3698 59.4326 49.3698 59.1884 49.3698 58.9339C49.3693 58.4249 49.3093 58.3419 48.321 58.3419ZM62.7015 57.0691C63.1694 57.0691 63.6253 57.2145 64.1172 57.8743C64.4492 58.3471 66.7652 61.2312 67.2551 61.8339V61.9999H64.8416L64.1467 61.1321H61.2113L60.5765 60.1392C60.396 60.3417 59.4267 61.6097 59.0948 61.9992H56.6738V61.8907C57.1677 61.2512 60.5395 57.0681 60.5395 57.0681L62.7015 57.0691ZM61.9477 58.436L60.7634 59.9164L60.8729 59.9898H63.068L63.1774 59.9164L62.0577 58.4308L61.9477 58.436ZM68.7863 57.0375H75.168C76.0203 57.0375 77.265 57.0319 77.265 58.623C77.265 59.6623 76.9476 59.7139 76.2612 60.0363C77.4165 60.1716 77.257 61.1844 77.257 61.7089C77.257 61.9744 77.1136 61.9686 77.0001 61.9686H75.1295C74.7381 61.9686 74.8355 61.5429 74.8355 61.3194C74.8355 60.7167 74.3456 60.7422 74.1572 60.7422H71.3972C71.1328 60.4251 70.6189 59.7184 70.6189 59.7184V61.7657L70.2735 61.9682H68.3874L68.1989 61.8067V57.4631C68.1984 57.1573 68.5148 57.0375 68.7863 57.0375ZM73.8707 58.3419H71.0273C70.5519 58.3419 70.5754 58.4504 70.5754 58.55V59.4326H73.5018C74.912 59.4326 74.912 59.1884 74.912 58.9339C74.9115 58.4249 74.8595 58.3419 73.8707 58.3419ZM82.8394 61.9689C82.365 61.3559 81.0448 59.6619 80.1544 58.55V61.6262C80.1544 61.7561 80.1849 61.9689 79.725 61.9689H78.4353C77.9524 61.9689 77.9899 61.7561 77.9899 61.6262V57.4011C77.9899 57.2503 77.9594 57.0371 78.4353 57.0371H80.6683C81.0003 57.0371 81.4747 56.9855 82.0031 57.7179C82.4035 58.3051 83.2473 59.5266 83.8367 60.1709C84.4246 59.5266 85.2924 58.3051 85.6918 57.7179C86.2122 56.9855 86.6721 57.0371 87.05 57.0371H89.2751C89.727 57.0371 89.6745 57.2503 89.6745 57.4011V61.6262C89.6745 61.7561 89.743 61.9689 89.2751 61.9689H87.9698C87.4949 61.9689 87.5324 61.7561 87.5324 61.6262V58.55C86.6271 59.6619 85.3219 61.3552 84.825 61.9689H82.8394ZM92.5394 61.9792C90.4273 61.9792 90.5183 60.4209 90.5183 59.4026C90.5183 58.4769 90.3668 57.0278 93.0143 57.0123H97.7213C100.377 57.0123 100.203 58.4831 100.203 59.4026C100.203 60.4209 100.309 61.9792 98.1587 61.9792H92.5394ZM96.7935 60.7112C97.8653 60.7112 97.8268 59.9474 97.8268 59.4388C97.8268 58.9759 97.9853 58.2586 96.5891 58.2586H94.2215C92.8343 58.2586 92.9993 58.9759 92.9993 59.4388C92.9993 59.9481 92.9313 60.7112 94.0031 60.7112H96.7935ZM103.741 61.9689C101.033 61.9689 100.98 60.5449 100.98 59.9946V57.4022C100.98 57.2406 100.966 57.033 101.449 57.033H102.852C103.312 57.033 103.281 57.2517 103.281 57.4022V59.9946C103.281 60.1816 103.327 60.6758 104.314 60.6758H106.667C107.641 60.6758 107.694 60.1816 107.694 59.9946V57.4022C107.694 57.2513 107.671 57.033 108.123 57.033H109.533C110.046 57.033 110.002 57.2517 110.002 57.4022V59.9946C110.002 60.5459 109.956 61.9689 107.226 61.9689H103.741ZM111.509 57.0375H117.892C118.744 57.0375 119.988 57.0319 119.988 58.623C119.988 59.6623 119.664 59.7139 118.977 60.0363C120.132 60.1716 119.981 61.1844 119.981 61.7089C119.981 61.9744 119.838 61.9686 119.724 61.9686H117.854C117.469 61.9686 117.56 61.5429 117.56 61.3194C117.56 60.7167 117.062 60.7422 116.873 60.7422H114.12C113.857 60.4251 113.343 59.7184 113.343 59.7184V61.7657L112.988 61.9682H111.11L110.921 61.8067V57.4631C110.921 57.1573 111.238 57.0375 111.509 57.0375ZM116.586 58.3419H113.75C113.274 58.3419 113.297 58.4504 113.297 58.55V59.4326H116.224C117.634 59.4326 117.634 59.1884 117.634 58.9339C117.635 58.4249 117.574 58.3419 116.586 58.3419Z" fill="#F3ECD8"/>
</g>
<defs>
<clipPath id="clip0">
<rect width="120" height="62" fill="white"/>
</clipPath>
</defs>
</svg>
