<svg width="120" height="62" viewBox="0 0 120 62" fill="none" xmlns="http://www.w3.org/2000/svg">
<g clip-path="url(#clip0)">
<path d="M64.4225 2.80434C64.0315 2.86253 63.6555 4.25155 62.8997 4.97515C62.347 5.49738 61.6571 5.46471 61.2906 6.11034C61.1515 6.35154 61.1966 6.76326 61.0387 7.15858C60.7304 7.94922 59.6438 8.0199 59.6438 8.88135C59.6401 9.81166 60.5499 9.98934 61.3376 10.6494C61.9524 11.1808 62.0125 11.5471 62.7569 11.8045C63.3924 12.0132 64.3379 11.3312 65.1895 11.5761C65.8889 11.7775 66.558 11.9225 66.7161 12.6152C66.855 13.2536 66.7066 14.2436 65.8588 14.1295C65.573 14.0986 64.3341 13.696 62.8115 13.8519C60.9747 14.0533 58.8786 14.6316 58.6738 16.6067C58.561 17.711 59.9765 19.0131 61.3432 18.7483C62.2887 18.5687 61.8414 17.4935 62.3565 16.9711C63.0313 16.3021 66.855 19.3069 70.41 19.3069C71.9064 19.3069 73.0193 18.9424 74.1248 17.8253C74.228 17.74 74.3541 17.5569 74.5138 17.546C74.6643 17.5569 74.9274 17.7001 75.0139 17.7618C77.877 19.9814 80.0408 24.4335 90.5627 24.4861C92.0421 24.4933 93.7283 25.1752 95.1044 26.3866C96.3321 27.4819 97.0502 29.1847 97.7476 30.9129C98.8003 33.5062 100.688 36.0287 103.549 38.8359C103.705 38.9864 106.061 40.7528 106.249 40.8852C106.279 40.9033 106.452 41.3022 106.392 41.5252C106.322 43.2081 106.068 48.1026 109.85 48.3239C110.775 48.3692 110.533 47.7418 110.533 47.3101C110.531 46.4578 110.369 45.6109 110.836 44.7387C111.473 43.5382 109.484 42.985 109.542 40.39C109.583 38.4551 107.899 38.785 107.044 37.3108C106.551 36.4566 106.113 36.0034 106.145 34.9586C106.337 29.0796 104.848 25.2169 104.105 24.2685C103.527 23.5522 103.047 23.2675 103.577 22.9356C106.734 20.9245 107.45 19.0529 107.45 19.0529C109.128 15.2466 110.638 11.77 112.719 10.2397C113.138 9.924 114.214 9.14976 114.874 8.84504C116.815 7.96185 117.838 7.42699 118.402 6.89734C119.295 6.05775 120 4.30778 119.145 3.24691C118.081 1.93755 116.24 2.97668 115.428 3.44086C109.625 6.76326 108.77 12.6242 106.76 15.9901C105.156 18.6793 102.549 20.6542 100.218 20.8156C98.4695 20.9407 96.5859 20.5998 94.7097 19.8055C90.1472 17.8761 87.6506 15.3844 87.0622 14.9438C85.8365 14.0316 76.3204 5.02045 68.6109 4.65233C68.6109 4.65233 67.6541 2.80447 67.4134 2.77362C66.8494 2.70463 66.2724 3.87796 65.8588 4.01412C65.4696 4.13908 64.8155 2.74277 64.4225 2.80447V2.80434ZM30.4827 56.586C29.757 56.5696 29.1405 55.9948 29.1405 55.2839L29.1424 32.0862H21.2167V57.6577C21.2167 58.9108 22.2693 59.9337 23.5608 59.9337H37.4139C38.7147 59.9337 39.7544 58.9108 39.7544 57.6577V32.0862H31.8363L31.8287 55.2839C31.8287 55.9948 31.212 56.5696 30.4827 56.586ZM57.0194 32.0862H45.0237C43.6045 32.0862 42.4483 33.1997 42.4483 34.5834V59.9335H50.3813V36.6798C50.387 35.9672 50.9847 35.4032 51.7218 35.4032C52.4625 35.4032 53.0564 35.9544 53.0733 36.6599V59.9337H60.9746V36.6597C60.984 35.9543 61.578 35.403 62.3168 35.403C63.0501 35.403 63.6554 35.967 63.6611 36.6797V59.9337H71.5942V34.5834C71.5942 33.1997 70.4362 32.0862 69.0169 32.0862H57.0194ZM10.6102 36.7286C10.6158 35.9543 9.96164 35.403 9.26793 35.403H7.92193V49.4881H9.26793C9.96731 49.4881 10.616 48.9513 10.6102 48.1807V36.7286ZM15.9285 52.9354H7.92193V59.9337H0V32.0862H15.9793C17.4098 32.0862 18.5264 33.207 18.5264 34.5943V50.4275C18.5264 51.8167 17.3666 52.9354 15.9285 52.9354ZM98.7797 53.7062C97.1874 53.7062 95.8507 55.0336 95.8507 56.6422C95.8507 58.2562 97.1874 59.5727 98.8304 59.5727C100.46 59.5727 101.78 58.2562 101.78 56.6422C101.78 55.03 100.46 53.7062 98.8303 53.7062H98.7797ZM102.348 56.6331C102.348 58.5245 100.776 60.0624 98.8304 60.0624C96.864 60.0624 95.2849 58.5355 95.2849 56.6331C95.2849 54.767 96.864 53.2075 98.7721 53.2075C100.776 53.2075 102.348 54.72 102.348 56.6331Z" fill="#F3ECD8"/>
<path d="M98.4639 56.4154C99.0147 56.4154 99.3042 56.2268 99.3042 55.8497C99.3042 55.5142 99.0241 55.342 98.4883 55.342H98.3304V56.4154H98.4639ZM100.492 58.617H99.5467L98.3304 57.0556V58.617H97.5578V54.6691H98.3699C99.4735 54.6691 100.06 55.0717 100.06 55.8406C100.06 56.3538 99.7141 56.8091 99.2308 56.945L99.1744 56.965L100.492 58.617ZM84.8948 49.4935V36.6707C84.8759 35.9615 84.2838 35.4176 83.545 35.4176C82.8137 35.4176 82.2083 35.9833 82.2028 36.6906V49.4935H84.8948ZM84.8948 59.9336V52.9427H82.2028V59.9336H74.2847V34.5833C74.2847 33.1996 75.4407 32.0862 76.8601 32.0862H90.2374C91.6606 32.0862 92.8167 33.1996 92.8167 34.5833V59.9335L84.8948 59.9336Z" fill="#F3ECD8"/>
</g>
<defs>
<clipPath id="clip0">
<rect width="120" height="62" fill="white"/>
</clipPath>
</defs>
</svg>
