<svg width="117" height="59" viewBox="0 0 117 59" fill="none" xmlns="http://www.w3.org/2000/svg">
<path d="M33.117 13.7778H22.7632L22.0976 18.6H23.8725L21.0622 37.8889H19.2873L18.5477 42.9407H30.2327C33.117 42.9407 34.5221 36.9704 35.6315 28.9333C36.7408 21.8148 37.5543 13.7778 33.117 13.7778ZM30.8983 28.9333C30.3067 33.2963 29.715 37.8889 28.3099 37.8889H26.0173L28.7536 18.6H30.3806C32.2295 19.2889 31.3421 25.4889 30.8983 28.9333ZM38.9595 13.7778H47.3165L46.5769 18.6H44.802L42.8052 33.0667C42.0656 39.2667 46.2811 41.1037 47.3904 33.0667L49.3872 18.6H47.7602L48.4997 13.7778H53.8245L53.085 18.6H51.458L49.3872 33.0667C47.8341 42.4815 46.6509 42.9407 42.1396 43.1704C36.9627 43.4 37.2585 39.2667 38.072 33.0667L40.1428 18.6H38.2939L38.9595 13.7778ZM55.0818 18.6H56.8567L54.1943 37.8889H52.3454L51.6798 42.9407H57.0786L57.8921 37.8889H56.1172L58.114 24.1111L61.2941 42.9407H65.2137L68.6896 18.6H70.3166L70.9822 13.7778H65.5835L64.9179 18.6H66.6928L64.6221 32.837L61.442 13.7778H55.8213L55.0818 18.6ZM72.3874 18.6H74.1623L71.4999 37.8889H69.725L69.0594 42.9407H81.41L83.2589 29.3926H81.8537L79.3392 37.8889H76.307L78.9694 18.6H80.5965L81.1881 13.7778H73.053L72.3874 18.6ZM94.2043 13.5481C87.7701 13.5481 86.7348 16.0741 85.1817 27.3259C83.4068 39.4963 83.3328 43.4 90.4325 43.4C96.8667 43.4 98.05 36.9704 99.3072 27.3259C101.008 15.1556 100.195 13.5481 94.2043 13.5481ZM95.0178 24.5704L93.6866 34.2148C93.1689 37.6593 92.0596 38.5778 91.4679 38.5778H90.5065C89.9149 38.5778 88.3618 38.1185 89.1013 32.1481L90.4325 22.7333C91.0981 19.0593 92.0596 18.3704 92.6512 18.3704H93.7605C94.3522 18.3704 95.6834 19.9778 95.0178 24.5704ZM114.912 13.7778H103.079L102.339 19.0593H104.114L101.452 37.8889H99.7509L99.0853 42.9407H107.073L107.812 37.8889H106.259L107.146 31.2296H111.584C115.43 31.2296 115.503 28.0148 116.465 22.2741C116.835 18.3704 118.018 13.7778 114.912 13.7778ZM111.584 22.7333C111.288 24.5704 111.288 26.1778 109.957 26.1778H107.886L108.847 19.0593H110.77C112.249 19.0593 111.658 21.8148 111.584 22.7333ZM6.49299 12.4L1.3161 0L17.6603 28.4741L1.3161 58.3259L6.78881 44.5481C6.49299 44.7778 6.12321 44.7778 5.82739 44.7778C2.6473 44.7778 0.132812 37.4296 0.132812 28.4741C0.132812 19.5185 2.72126 12.1704 5.82739 12.1704C5.9753 12.4 6.27112 12.4 6.49299 12.4ZM6.41903 44.5481C9.37726 44.5481 11.7438 37.4296 11.7438 28.7037C11.7438 19.9778 9.37726 12.8593 6.41903 12.8593C3.46081 12.8593 1.09423 19.9778 1.09423 28.7037C1.16819 37.4296 3.53477 44.5481 6.41903 44.5481Z" fill="#F3ECD8"/>
</svg>
