<svg width="120" height="62" fill="none" xmlns="http://www.w3.org/2000/svg"><g clip-path="url(#clip0)" fill="#F3ECD8"><path d="M64.422 2.804c-.39.059-.766 1.448-1.522 2.171-.553.522-1.243.49-1.61 1.135-.139.242-.093.653-.251 1.049-.309.79-1.395.86-1.395 1.722-.004.93.906 1.108 1.694 1.768.614.532.675.898 1.419 1.156.635.208 1.58-.474 2.432-.229.7.201 1.369.346 1.527 1.04.139.638-.01 1.628-.857 1.514-.286-.031-1.525-.434-3.047-.278-1.837.201-3.933.78-4.138 2.755-.113 1.104 1.303 2.406 2.67 2.141.945-.18.497-1.255 1.012-1.777.675-.669 4.499 2.336 8.054 2.336 1.496 0 2.61-.365 3.715-1.482.103-.085.23-.268.389-.279.15.01.413.154.5.216 2.863 2.22 5.027 6.671 15.549 6.724 1.48.007 3.165.69 4.541 1.9 1.228 1.096 1.946 2.799 2.644 4.527 1.052 2.593 2.94 5.116 5.801 7.923.156.15 2.512 1.917 2.7 2.05.03.017.203.416.143.64-.07 1.682-.324 6.577 3.458 6.798.925.045.683-.582.683-1.014-.002-.852-.164-1.7.303-2.571.637-1.2-1.352-1.754-1.294-4.349.041-1.935-1.643-1.605-2.498-3.08-.493-.853-.931-1.307-.899-2.351.192-5.88-1.297-9.742-2.04-10.69-.578-.717-1.058-1.002-.528-1.333 3.157-2.012 3.873-3.883 3.873-3.883 1.678-3.806 3.188-7.283 5.269-8.813.419-.316 1.495-1.09 2.155-1.395 1.941-.883 2.964-1.418 3.528-1.948.893-.84 1.598-2.59.743-3.65-1.064-1.31-2.905-.27-3.717.194-5.803 3.322-6.658 9.183-8.668 12.55-1.604 2.688-4.211 4.663-6.542 4.825-1.749.125-3.632-.216-5.508-1.01-4.563-1.93-7.06-4.422-7.648-4.862-1.225-.912-10.742-9.924-18.451-10.292 0 0-.957-1.848-1.198-1.878-.564-.07-1.14 1.104-1.554 1.24-.39.125-1.043-1.271-1.436-1.21zm-33.94 53.782c-.725-.016-1.341-.591-1.341-1.302l.001-23.198h-7.925v25.572c0 1.253 1.052 2.276 2.344 2.276h13.853c1.3 0 2.34-1.023 2.34-2.276V32.086h-7.918l-.007 23.198c0 .71-.617 1.286-1.346 1.302zm26.537-24.5H45.024c-1.42 0-2.576 1.114-2.576 2.497v25.35h7.933V36.68c.006-.713.604-1.277 1.34-1.277.742 0 1.335.551 1.352 1.257v23.274h7.902V36.66c.009-.706.603-1.257 1.342-1.257.733 0 1.338.564 1.344 1.277v23.254h7.933v-25.35c0-1.384-1.158-2.498-2.577-2.498H57.019zM10.61 36.73c.006-.775-.648-1.326-1.342-1.326H7.922v14.085h1.346c.7 0 1.348-.537 1.342-1.307V36.729zm5.319 16.206H7.921v6.999H0V32.086h15.98c1.43 0 2.546 1.121 2.546 2.508v15.834c0 1.389-1.16 2.507-2.598 2.507zm82.85.771c-1.592 0-2.928 1.328-2.928 2.936 0 1.614 1.336 2.93 2.98 2.93a2.942 2.942 0 002.949-2.93 2.948 2.948 0 00-2.95-2.936h-.05zm3.569 2.927c0 1.892-1.572 3.43-3.518 3.43-1.966 0-3.545-1.528-3.545-3.43 0-1.866 1.579-3.425 3.487-3.425 2.004 0 3.576 1.512 3.576 3.425z"/><path d="M98.464 56.415c.55 0 .84-.188.84-.565 0-.336-.28-.508-.816-.508h-.158v1.073h.134zm2.028 2.202h-.945l-1.217-1.561v1.561h-.772v-3.948h.812c1.103 0 1.69.403 1.69 1.172 0 .513-.346.968-.83 1.104l-.056.02 1.318 1.652zm-15.597-9.123V36.67c-.02-.71-.611-1.253-1.35-1.253-.731 0-1.337.565-1.342 1.273v12.802h2.692zm0 10.44v-6.991h-2.692v6.99h-7.918v-25.35c0-1.383 1.156-2.497 2.575-2.497h13.377c1.424 0 2.58 1.114 2.58 2.497v25.35h-7.922z"/></g><defs><clipPath id="clip0"><path fill="#fff" d="M0 0h120v62H0z"/></clipPath></defs></svg>