<svg width="117" height="59" fill="none" xmlns="http://www.w3.org/2000/svg"><path d="M33.117 13.778H22.763l-.665 4.822h1.774l-2.81 19.289h-1.775l-.74 5.052h11.686c2.884 0 4.29-5.97 5.399-14.008 1.109-7.118 1.922-15.155-2.515-15.155zm-2.219 15.155c-.591 4.363-1.183 8.956-2.588 8.956h-2.293L28.754 18.6h1.627c1.849.689.961 6.889.517 10.333zm8.061-15.155h8.357l-.74 4.822h-1.774l-1.997 14.467c-.74 6.2 3.476 8.037 4.585 0L49.387 18.6H47.76l.74-4.822h5.325l-.74 4.822h-1.627l-2.07 14.467C47.833 42.48 46.65 42.94 42.14 43.17c-5.177.23-4.882-3.903-4.068-10.103l2.07-14.467h-1.848l.666-4.822zM55.082 18.6h1.775l-2.663 19.289h-1.849l-.665 5.052h5.399l.813-5.052h-1.775l1.997-13.778 3.18 18.83h3.92L68.69 18.6h1.627l.665-4.822h-5.398l-.666 4.822h1.775l-2.07 14.237-3.181-19.06h-5.62l-.74 4.823zm17.305 0h1.775L71.5 37.889h-1.775l-.666 5.052H81.41l1.849-13.548h-1.405l-2.515 8.496h-3.032L78.969 18.6h1.628l.591-4.822h-8.135l-.666 4.822zm21.817-5.052c-6.434 0-7.47 2.526-9.022 13.778-1.775 12.17-1.85 16.074 5.25 16.074 6.435 0 7.618-6.43 8.875-16.074 1.701-12.17.888-13.778-5.103-13.778zm.814 11.022l-1.331 9.645c-.518 3.444-1.627 4.363-2.22 4.363h-.96c-.592 0-2.145-.46-1.406-6.43l1.332-9.415c.665-3.674 1.627-4.363 2.218-4.363h1.11c.591 0 1.922 1.608 1.257 6.2zm19.894-10.792h-11.833l-.74 5.281h1.775l-2.662 18.83h-1.701l-.666 5.052h7.988l.739-5.052h-1.553l.887-6.66h4.438c3.846 0 3.919-3.214 4.881-8.955.37-3.904 1.553-8.496-1.553-8.496zm-3.328 8.955c-.296 1.837-.296 3.445-1.627 3.445h-2.071l.961-7.119h1.923c1.479 0 .888 2.756.814 3.674zM6.493 12.4L1.316 0 17.66 28.474 1.316 58.326 6.79 44.548c-.296.23-.666.23-.962.23-3.18 0-5.694-7.348-5.694-16.304S2.72 12.17 5.827 12.17c.148.23.444.23.666.23zm-.074 32.148c2.958 0 5.325-7.118 5.325-15.844 0-8.726-2.367-15.845-5.325-15.845s-5.325 7.119-5.325 15.845c.074 8.726 2.44 15.844 5.325 15.844z" fill="#F3ECD8"/></svg>