<svg width="120" height="62" fill="none" xmlns="http://www.w3.org/2000/svg"><g clip-path="url(#clip0)" fill="#F3ECD8"><path d="M119.264 7.7s-3.44-1.834-14.581-4.652C94.908.569 87.441 0 87.441 0l.037 14.697c0 6.213-10.19 12.81-27.594 12.81h-.498c-17.401 0-27.588-6.597-27.588-12.81L31.832 0s-7.46.569-17.24 3.048C3.452 5.866.012 7.7.012 7.7c.826 11.787 27.408 21.5 59.62 21.504h.007c32.214-.005 58.802-9.717 59.625-21.504z"/><path d="M119.279 40.706s-3.44 1.83-14.581 4.65c-9.782 2.48-17.243 3.046-17.243 3.046l.038-14.695c0-6.21-10.191-12.805-27.594-12.805l-.245-.005h-.007l-.242.005c-17.405 0-27.592 6.594-27.592 12.805l.038 14.695s-7.464-.566-17.243-3.045C3.471 42.535.024 40.707.024 40.707.85 28.92 27.44 19.207 59.654 19.2c32.214.008 58.803 9.72 59.625 21.506zM5.817 61.97c-2.716 0-2.765-1.424-2.765-1.974v-2.593c0-.161-.015-.369.468-.369h1.4c.46 0 .433.219.433.37v2.592c0 .187.046.68 1.034.68H8.74c.97 0 1.026-.493 1.026-.68v-2.593c0-.15-.031-.369.426-.369h1.418c.51 0 .464.219.464.37v2.592c0 .55-.053 1.974-2.772 1.974H5.817zm13.008-.317c-.958-.888-2.328-2.006-3.723-3.19v3.158c0 .14.05.349-.43.349h-1.308c-.472 0-.419-.208-.419-.349v-4.224c0-.146-.019-.364.419-.364h2.553c.72 0 1.75.997 2.421 1.662.524.5 1.482 1.258 2.127 1.83v-3.129c0-.145-.026-.364.45-.364h1.42c.453 0 .428.219.428.364v4.572h-2.621c-.563.002-.805.028-1.317-.315zm4.805.317v-4.931h6.324c.385 0 2.984-.036 2.984 1.844 0 1.918.298 3.087-2.93 3.087h-3.41l-.735-1.029v1.029H23.63zm5.988-1.3c1.15 0 1.064-.757 1.064-1.106 0-1.164-.476-1.211-1.234-1.211H25.84v2.317h3.78zm5.794-3.6h5.83c.49 0 .427.223.427.634 0 .384.075.602-.427.602h-4.608c-.121 0-.543-.04-.543.255 0 .302-.08.421.38.421h4.074l.656.899c.094.125.083.234-.275.234h-4.217l-.653-.878v1.294c0 .301.389.244.502.244h4.786c.475 0 .434.229.434.603 0 .4.041.624-.434.624h-6.057c-.506 0-1.49-.109-1.49-1.196v-2.718c0-.285.215-1.018 1.615-1.018zm7.829-.032h6.378c.855 0 2.1-.005 2.1 1.586 0 1.04-.32 1.09-1.007 1.413 1.15.136.996 1.148.996 1.673 0 .265-.14.26-.253.26h-1.87c-.393 0-.299-.426-.299-.65 0-.602-.49-.577-.683-.577H45.85a27.824 27.824 0 01-.776-1.024v2.048l-.351.202H42.84l-.189-.161v-4.344c0-.306.314-.425.589-.425zm5.08 1.305h-2.84c-.475 0-.452.108-.452.208v.883h2.923c1.418 0 1.418-.245 1.418-.5 0-.508-.06-.591-1.049-.591zm14.38-1.273c.468 0 .924.145 1.416.805.332.473 2.648 3.357 3.138 3.96V62h-2.413l-.695-.868H61.21l-.634-.993c-.181.203-1.15 1.47-1.482 1.86h-2.421v-.108c.494-.64 3.865-4.823 3.865-4.823l2.163.001zm-.753 1.367l-1.185 1.48.11.074h2.195l.11-.074-1.12-1.485-.11.005zm6.838-1.398h6.382c.852 0 2.097-.006 2.097 1.585 0 1.04-.317 1.09-1.004 1.413 1.156.136.996 1.148.996 1.673 0 .265-.143.26-.257.26h-1.87c-.392 0-.294-.426-.294-.65 0-.602-.49-.577-.679-.577h-2.76a27.96 27.96 0 01-.778-1.024v2.048l-.346.202h-1.886l-.188-.161v-4.344c0-.306.316-.425.587-.425zm5.085 1.304h-2.844c-.475 0-.452.108-.452.208v.883h2.927c1.41 0 1.41-.245 1.41-.5 0-.508-.053-.591-1.041-.591zm8.968 3.627a326.917 326.917 0 00-2.685-3.419v3.076c0 .13.03.343-.429.343h-1.29c-.483 0-.445-.213-.445-.343v-4.225c0-.15-.03-.364.445-.364h2.233c.332 0 .807-.051 1.335.68.4.588 1.244 1.81 1.834 2.454.588-.644 1.455-1.866 1.855-2.453.52-.733.98-.68 1.358-.68h2.225c.452 0 .4.212.4.363v4.225c0 .13.068.343-.4.343H87.97c-.475 0-.438-.213-.438-.343V58.55c-.905 1.112-2.21 2.805-2.707 3.419h-1.986zm9.7.01c-2.112 0-2.02-1.558-2.02-2.576 0-.926-.152-2.375 2.495-2.39h4.707c2.656 0 2.482 1.47 2.482 2.39 0 1.018.106 2.576-2.044 2.576h-5.62zm4.254-1.268c1.072 0 1.034-.764 1.034-1.272 0-.463.158-1.18-1.238-1.18h-2.367c-1.388 0-1.223.717-1.223 1.18 0 .51-.068 1.272 1.004 1.272h2.79zm6.948 1.258c-2.708 0-2.761-1.424-2.761-1.974v-2.593c0-.161-.014-.369.469-.369h1.403c.46 0 .429.219.429.37v2.592c0 .187.046.68 1.033.68h2.353c.974 0 1.027-.493 1.027-.68v-2.593c0-.15-.023-.369.429-.369h1.41c.513 0 .469.219.469.37v2.592c0 .55-.046 1.974-2.776 1.974h-3.485zm7.768-4.931h6.383c.852 0 2.096-.006 2.096 1.585 0 1.04-.324 1.09-1.011 1.413 1.155.136 1.004 1.148 1.004 1.673 0 .265-.143.26-.257.26h-1.87c-.385 0-.294-.426-.294-.65 0-.602-.498-.577-.687-.577h-2.753c-.263-.317-.777-1.024-.777-1.024v2.048l-.355.202h-1.878l-.189-.161v-4.344c0-.306.317-.425.588-.425zm5.077 1.304h-2.836c-.476 0-.453.108-.453.208v.883h2.927c1.41 0 1.41-.245 1.41-.5.001-.508-.06-.591-1.048-.591z"/></g><defs><clipPath id="clip0"><path fill="#fff" d="M0 0h120v62H0z"/></clipPath></defs></svg>