<svg width="93" height="58" fill="none" xmlns="http://www.w3.org/2000/svg"><path d="M41.74 29.961v.001a5.388 5.388 0 00.378 3.215s0 0 0 0l3.45 7.752c1.037 2.339-.784 5.135-3.873 5.145l-19.087.052h-.001c-3.149.012-4.978-2.868-3.856-5.225 0 0 0 0 0 0l3.586-7.535h0a5.396 5.396 0 00.371-3.63h0L16.807 5.987s0 0 0 0a3.422 3.422 0 01.487-2.732c.55-.832 1.448-1.455 2.52-1.712 0 0 0 0 0 0l1.344-.32s0 0 0 0a4.626 4.626 0 012.571.125 4.14 4.14 0 011.985 1.43h0c1.18 1.592 3.186 3.178 6.377 3.178 3.413 0 5.585-1.74 6.843-3.345a4.119 4.119 0 011.811-1.294 4.589 4.589 0 012.332-.218h.002c1.114.182 2.081.76 2.703 1.576.62.813.852 1.802.669 2.755h0L41.74 29.96z" stroke="#F3ECD8" stroke-width="2"/><path d="M2.696 53.824c.128-.23.265-.458.41-.677l.109-.163.058-.082.15-.08 3.132-1.647 12.53-6.588-.801-1.28-.544.286.351.561-.072.037-.352-.56.036-.019-.748.393.35.561-.071.037-.35-.56.015-.009-.695.366.35.56-.071.037-.351-.56h.004l-.683.36.35.56-.072.037-.35-.56.067-.036-.747.392.351.56-.072.038-.35-.56.055-.03-.735.386.363.56-.072.038-.35-.56.062-.033-.742.39.351.56-.072.037-.35-.564.05-.026-.73.383.351.56-.072.038-.349-.557.04-.02-.72.378.352.56-.072.037-.351-.564.044-.023-.723.38.351.561-.072.037-.352-.561.034-.017-.712.375.35.56-.072.037-.35-.56.021-.012-.701.369.351.56-.072.037-.35-.56.026-.015-.706.372.351.56-.072.037-.352-.56.016-.009-.685.363.35.56-.072.038-.35-.56.062-.034-.74.394.352.56-.073.038-.35-.56.068-.037-.747.393.35.56-.072.038-.351-.56.056-.03-.696.366-.039.02.35.56-.071.038-.351-.56.045-.024-.723.38.351.561-.072.037-.35-.56.048-.026-.727.383.35.56-.072.037-.351-.56.037-.02-.706.376.35.56-.072.037-.35-.56.024-.014-.704.37.351.561-.072.037-.35-.56.028-.013-.055.03-.234.122-.194.105c-.015.01-.036.015-.045.03l-.033.042-.064.084c-.041.057-.087.117-.123.17l-.067.095-.046.066.6.339-.043.063-.6-.34-.038.06c-.133.199-.255.405-.374.61l.622.3-.037.066-.623-.299-.054.094c-.11.199-.21.398-.308.597l.642.26-.032.066-.644-.26c-.112.234-.217.473-.312.714l.661.218-.027.066-.661-.218c-.023.058-.047.114-.068.173a9.17 9.17 0 00-.4 1.401l.69.123-.015.073-.693-.114a7.954 7.954 0 00-.046.261c-.027.172-.039.426-.054.597h1.614a8.122 8.122 0 01.424-1.863c.182-.489.402-.965.658-1.425z" fill="#FF6F3D"/><path d="M3.748 51.697l.07-.038-.35-.56-.046.025-.025.013.351.56zm.469-.991l-.033.018.033-.018zm.281.596l.07-.036-.35-.56-.034.017-.038.02.352.56zm.469-.991l-.022.011.022-.011zm.28.597l.07-.037-.35-.56-.021.011-.05.026.351.56zm.469-.991l-.026.014.026-.014zm.28.597l.07-.037-.35-.56-.026.014-.044.023.35.56zm.47-.991l-.015.007.015-.007zm.28.597l.07-.037-.35-.56-.015.007-.056.03.35.56zm.472-.991l-.006.003.006-.003zm.277.597l.07-.038-.35-.56-.003.002-.068.036.35.56zm.47-.991l-.009.004.009-.004zm.28.597l.07-.038-.35-.56-.009.005-.062.033.35.56zm.469-.992l-.055.03.055-.03zm.28.598l.07-.037-.35-.56-.056.028-.015.009.35.56zm.468-.991l-.043.023.043-.023zm.281.597l.071-.037-.351-.56-.044.022-.026.015.35.56zm.47-.991l-.049.026.049-.026zm.28.597l.07-.038-.35-.56-.049.026-.021.01.35.562zm.468-.992l-.037.02.037-.02zm.281.597l.07-.037-.35-.56-.038.02-.033.017.351.56zm.47-.99l-.027.013.027-.013zm.279.595l.071-.036-.351-.56-.026.014-.044.023.35.56zm.469-.99l-.03.017.03-.017zm.28.597l.07-.038-.35-.56-.03.017-.04.02.35.56zm.47-.991l-.02.01.02-.01zm.28.597l.07-.037-.35-.56-.02.01-.05.027.35.56zm.47-.992l-.009.005.009-.005zm.28.597l.07-.037-.351-.56-.008.005-.062.033.35.56zm.47-.99l-.015.007.014-.007z" fill="#BE1E2D"/><path d="M14.99 45.785l.07-.037-.351-.56-.014.007-.056.03.35.56zm.471-.991l-.005.003.005-.003zm.277.596l.07-.037-.35-.56-.002.002-.068.036.35.56zm.47-.99l-.066.034.066-.034zm.279.597l.071-.038-.35-.56-.067.035-.004.003.35.56zm.47-.991l-.055.03.055-.03zm.28.596l.07-.036-.35-.56-.054.028-.016.008.35.56zm.503-1.009l-.036.02.035-.02z" fill="#BE1E2D"/><path d="M18.02 44.19l.07-.037-.35-.56-.036.02-.035.018.351.56z" fill="#BE1E2D"/><path d="M32.005 37.79l-.885-.489-.067.036-.07-.111-.552-.307-.407.215.35.56-.07.037-.351-.56.039-.021-.718.378.35.56-.07.037-.35-.56.027-.015-.707.372.351.56-.07.037-.35-.56.032-.018-.712.375.351.56-.07.037-.351-.56.021-.011-.7.368.35.56-.07.037-.35-.56.01-.005-.69.362.352.56-.071.037-.35-.56.015-.009-.695.366.35.56-.07.037-.35-.56.062-.033-.741.39.35.561-.07.036-.35-.56.05-.027-.73.384.35.561-.07.037-.35-.56.057-.03-.737.387.352.56-.071.037-.35-.56.046-.025-.726.382.351.56-.07.037-.35-.56.034-.019-.714.376.35.56-.07.037-.35-.56.04-.021-.72.378.351.56-.07.037-.35-.56.029-.015-.709.372.35.56-.07.037-.35-.56.035-.019-.714.376.35.56-.07.038-.35-.561.023-.013-.703.37.351.561-.07.036-.351-.56.013-.007-.442.232.8 1.28 12.922-6.796zm.599-1.39l.07.038.657.364.029.016.24.134 10.541-5.544-.8-1.279-.544.287.35.56-.07.037-.35-.56.019-.01-.732.384.35.56-.07.038-.35-.56v-.001l-.68.357.351.56-.07.038-.35-.56.047-.026-.727.382.35.56-.07.038-.35-.56.07-.037-.749.393.35.561-.07.037-.35-.56.041-.022-.72.379.35.56-.07.037-.351-.56.047-.025-.726.382.35.56-.07.037-.35-.56.036-.02-.715.377.35.56-.07.037-.35-.56.041-.022-.72.38.35.56-.07.037-.352-.56.032-.017-.71.373.35.56-.07.038-.35-.56.02-.011-.7.367.351.56-.07.038-.351-.56.025-.014-.704.37.35.561-.07.037-.35-.56.014-.008-.694.364.351.561-.07.037-.35-.56.002-.002-.682.358.351.561-.07.037-.351-.56.066-.035-.745.392.254.405.078.044zm-.403-.412l.056-.03-.23.122.356.197-.182-.29z" fill="#FF6F3D"/><path d="M18.782 43.045l-.057.03.057-.03zm.281.597l.07-.037-.351-.56-.057.03-.013.007.35.56zm.469-.992l-.047.026.047-.025z" fill="#BE1E2D"/><path d="M19.812 43.248l.07-.037-.35-.56-.047.024-.024.013.351.56zm.47-.991l-.036.019.036-.02z" fill="#BE1E2D"/><path d="M20.562 42.854l.07-.037-.35-.56-.036.018-.035.019.351.56zm.469-.991l-.04.022.04-.022zm.279.597l.071-.037-.35-.56-.041.022-.03.015.35.56zm.47-.991l-.03.017.03-.017zm.28.597l.07-.037-.35-.56-.03.016-.04.02.35.56zm.47-.991l-.036.019.036-.02z" fill="#BE1E2D"/><path d="M22.81 41.672l.07-.037-.35-.56-.036.018-.035.019.35.56zm.47-.992l-.025.013.024-.012z" fill="#BE1E2D"/><path d="M23.559 41.278l.07-.038-.35-.56-.025.013-.046.025.35.56zm.47-.991l-.014.006.014-.006zm.28.597l.07-.038-.35-.56-.014.007-.057.03.35.56zm.469-.992l-.02.01.02-.01zm.28.597l.07-.037-.35-.56-.02.01-.05.027.35.56zm.47-.991l-.008.004.008-.004zm.279.597l.071-.037-.35-.56-.009.004-.063.033.351.56zm.469-.991l-.054.03.054-.03zm.281.596l.07-.036-.35-.56-.055.028-.016.009.35.56zm.469-.99l-.06.032.06-.032zm.281.597l.07-.037-.35-.56-.06.032-.01.005.35.56zm.469-.991l-.05.026.05-.026zm.28.597l.07-.037-.35-.56-.05.026-.02.01.35.56zm.469-.991l-.038.02.038-.02zm.28.597l.07-.038-.35-.56-.038.02-.033.018.35.56zm.469-.991l-.044.023.044-.023zm.281.597l.07-.038-.35-.56-.044.023-.027.015.35.56zm.468-.992l-.031.017.031-.017zm.281.597l.07-.037-.35-.56-.032.017-.039.02.351.56zm.749-.393l.067-.036-.136-.075.07.111zm1.22-1.387l-.016.01.016-.008v-.001z" fill="#BE1E2D"/><path d="M32.383 36.277l.143.08-.254-.406-.015.008-.056.029.182.29zm.639-.72l-.005.002.005-.002zm.279.597l.071-.038-.351-.56-.004.003-.066.035.35.56zm.469-.991l-.067.036.067-.036zm.28.597l.07-.037-.35-.56-.067.036H33.7l.35.56zm.47-.991l-.056.03.056-.03zm.28.596l.07-.037-.35-.56-.056.03-.015.008.352.56zm.469-.99l-.045.024.045-.024zm.281.597l.07-.037-.35-.56-.046.024-.025.013.35.56zm.468-.992l-.05.028.05-.028zm.281.597l.07-.037-.35-.56-.051.027-.02.01.35.56zm.469-.991l-.04.022.04-.022zm.281.597l.07-.037-.35-.56-.04.021-.032.017.352.56zm.469-.99l-.03.015.03-.015zm.28.596l.07-.037-.35-.56-.029.015-.042.023.35.559zm.469-.991l-.034.018.034-.018zm.28.597l.07-.037-.35-.56-.034.018-.036.019.35.56zm.47-.991l-.024.013.024-.013zm.28.596l.07-.036-.35-.56-.024.012-.048.025.352.56zm.47-.99l-.03.016.03-.017z" fill="#BE1E2D"/><path d="M40.046 32.606l.07-.037-.35-.56-.029.016-.042.022.35.56zm.469-.99zm.28.597l.07-.037-.35-.56-.07.037.35.56zm.47-.992l-.024.012.024-.012zm.28.597l.07-.037-.35-.56-.024.012-.047.026.35.56zm.469-.991l-.07.037.07-.037zm.28.597l.07-.037-.35-.56-.07.037.35.56zm.502-1.008l-.05.028.05-.028zm.281.597l.07-.037-.35-.56-.05.027-.02.01.35.56z" fill="#BE1E2D"/><path d="M30.773 36.74l.723-.381.026-.014.275-.145.119-.18-1.988-1.103-.362.553-.072-.038.362-.553-.618-.343-.361.553-.072-.038.36-.554-1.984-1.1-.362.553-.072-.039.362-.553.031.018-.65-.36-.362.554-.072-.039.361-.553-.61-.342-.361.554-.072-.039.361-.553-1.301-.723-.361.554L24 32.39l.362-.553.068.038-.686-.38-.362.554-.072-.039.361-.553-.617-.342-.361.554-.073-.039.362-.553-.618-.342-.361.553-.073-.038.362-.553-.39-.216-.832 1.26 9.353 5.174.322-.169.028-.007zm.456-1.1l.072.038-.361.553-.072-.038.361-.553zm-6.476-2.83l-.073-.038.362-.552.072.038-.361.553zm2.747 1.522l-.073-.038.362-.554.072.039-.361.553zm.686.38l-.072-.038.362-.554.072.039-.362.553zm1.992 1.103l.361-.554.073.038-.362.553-.072-.037zm1.848.265l-.04-.022-.044.066.084-.044zm.969 1.292l-.072-.039.027-.04-.948.498 12.044 6.664.831-1.26-.496-.275-.362.553-.072-.038.361-.553.06.032-.707-.391-.362.553-.072-.038.361-.554.037.02-.651-.361-.361.553-.073-.039.362-.553.054.03-.672-.371-.362.553-.072-.039.361-.553.028.015-1.324-.738-.361.553-.073-.038.362-.554.048.027-.666-.369-.36.553-.073-.038.361-.553.068.037-.68-.378-.36.553-.073-.038.361-.554.049.027-.666-.368-.361.553-.073-.039.362-.553-2.675-1.482-.361.553-.073-.038.362-.553h.004l-.616-.343-.361.553-.073-.038.362-.553-1.301-.723-.362.554-.072-.039.361-.553.054.03-.43-.238-.506.265-.098.155zm8.538 3.97l.072.039-.36.553-.073-.038.361-.553zm-3.437-1.897l.072.038-.361.553-.073-.038.362-.553zm-.688-.38l.073.038-.362.553-.072-.038.361-.553zm-.686-.38l.072.038-.361.553-.073-.038.362-.554zm-2.061-1.142l.072.039-.361.553-.073-.038.362-.554z" fill="#FF6F3D"/><path d="M30.703 36.776l.05-.026-.322.17.553.305-.282-.449zm.953-.217l.217.347-.07.037-.222-.354-.03-.016.01-.015-.109-.176.044-.023-.723.38.35.561-.003.001.885.49.948-.498.337-.513.04.023-.657-.365-.364.554-.07-.039.29-.44-.147-.235-.356-.198-.084.044-.286.435zm1.442.657l.503-.264-.24-.134-.263.398z" fill="#FF6F3D"/><path d="M31.797 36.2l-.275.145.087.14.188-.285zm.806.2l-.078-.043.052.083.026-.04zm-1.83.34l-.02.01.02-.01zm-.001 0l-.02.01-.05.026.281.45.137.075.004-.002-.352-.56z" fill="#FF6F3D"/><path d="M31.523 36.346l-.027.013.027-.014z" fill="#FF6F3D"/><path d="M31.562 36.558l.048-.073-.088-.14-.026.014-.044.023.11.176zm.02.031l.221.353.07-.036-.216-.347-.035.052-.04-.022zm.944-.232l-.144-.08.147.235.048-.072-.051-.083z" fill="#FF6F3D"/><path d="M22.37 30.735l-.07-.038.07.038zm.132-.035l-.366.555.07.039.365-.555-.07-.04zm.554.415l-.07-.038.07.038zm-.071-.04l-.363.552.069.039.364-.553-.07-.038zm.757.42l-.07-.038.07.038zm.14-.04l-.365.555.07.039.365-.556-.07-.038zm.55.422l-.003-.002.003.002zm-.436.513l.07.038.364-.552-.002-.001-.068-.038-.364.553zm.687.38l.07.038.364-.553-.07-.037-.364.552zm1.121-.133l-.07-.039.07.039zm-.07-.041l-.363.553.069.038.364-.552-.07-.039zm.756.421l-.07-.039.07.038z" fill="#BE1E2D"/><path d="M26.42 32.975l-.363.553.07.038.363-.552-.07-.039zm.758.423l-.038-.022.038.022zm-.434.512l.07.04.364-.553-.038-.021-.032-.018-.364.553zm1.286-.14l-.366.555.07.04.365-.556-.07-.039zm.691.378l-.366.555.07.038.366-.555-.07-.038zm.517.389l-.07-.038.07.038zm-.07-.04l-.364.552.07.039.363-.553-.069-.038zm.757.42l-.069-.038.07.038z" fill="#BE1E2D"/><path d="M29.855 34.876l-.364.553.069.038.364-.552-.07-.039zm.686.381l-.363.552.069.038.364-.552-.07-.038zm.758.421l-.07-.038-.364.553.07.038.364-.553zm.686.38l-.069-.038.07.038z" fill="#BE1E2D"/><path d="M31.942 36.124l.044-.066-.07-.038-.118.18.144-.076z" fill="#BE1E2D"/><path d="M31.656 36.559l.286-.434-.145.075-.188.285.047.074zm-.104.014l.03.016-.02-.03-.01.014z" fill="#BE1E2D"/><path d="M31.562 36.559l.02.03.04.023.034-.053-.046-.073-.048.073zm1.041-.159l.07.038-.07-.038zm-.026.04l.045.071-.07.037-.023-.035-.29.44.07.038.364-.553-.07-.038-.026.04z" fill="#BE1E2D"/><path d="M32.623 36.511l-.046-.071-.048.073.023.035.07-.037zm.737.309l-.029-.017.03.017zm-.365.552l.102-.155-.145.076-.026.04.07.039z" fill="#BE1E2D"/><path d="M33.36 36.818l-.029-.016-.04-.022-.338.512.145-.076.262-.398zm.687.382l-.017-.01.017.01zm-.434.513l.07.038.364-.552-.016-.009-.054-.03-.364.553zm1.327-.15l-.366.555.07.039.365-.555-.07-.04zm.481.396l-.07-.039.07.039zm.201-.064l-.366.555.07.039.365-.556-.07-.038zm.486.445l-.066-.037.066.036z" fill="#BE1E2D"/><path d="M35.674 38.854l.07.037.364-.551-.066-.037-.004-.002-.364.553zm1.052-.17l-.364.553.07.038.363-.553-.07-.038zm.685.378l-.363.553.07.038.362-.553-.069-.038zm.688.382l-.364.553.07.038.363-.553-.07-.038zm.756.416l-.07-.038.07.038zm.221-.071l-.366.555.07.039.365-.555-.07-.039zm.467.451l-.022-.011.022.011zm-.435.514l.07.039.364-.553-.02-.011-.05-.027-.364.552zm1.122-.134l-.003-.001.004.002z" fill="#BE1E2D"/><path d="M39.795 41.135l.07.038.364-.553-.002-.001-.068-.037-.364.553zm1.122-.134l-.022-.012.022.012zm-.435.514l.07.038.364-.552-.02-.012-.05-.026-.364.552zm1.121-.134l-.07-.038-.364.552.07.038.364-.552zm.687.381l-.042-.024.042.024zm-.434.514l.07.038.364-.553-.042-.023-.028-.015-.364.553zm1.122-.133l-.016-.01.016.01zm-.435.513l.07.038.364-.553-.015-.008-.055-.03-.364.553zm1.121-.134l-.033-.02.033.02zm-.434.513l.07.039.364-.553-.034-.018-.036-.02-.364.553zm1.152-.115l-.01-.007.01.007zm-.435.513l.07.039.364-.553-.01-.006-.06-.032-.364.552z" fill="#BE1E2D"/><path d="M61.998 56.747l-.703.019v-.075l.703-.018a8.224 8.224 0 00-.059-.73l-.698.078-.013-.071.699-.079a8.075 8.075 0 00-.13-.713l-.69.132-.016-.073.689-.132a9.82 9.82 0 00-.19-.697l-.675.182-.023-.072.675-.18a8.843 8.843 0 00-.127-.373 10.146 10.146 0 00-.119-.305l-.66.225-.028-.07.661-.225c-.091-.222-.19-.441-.298-.66l-.64.266-.034-.066.64-.266-.216-.416c-.034-.062-.073-.123-.106-.184l-.026-.044-.619.313-.039-.066.616-.314-.019-.03-.044-.07-.049-.077-.055-.08-.056-.082c-.018-.026-.033-.057-.067-.07a7.971 7.971 0 01-.176-.102l-.156-.086-.717-.398-.157-.084-.362.553-.072-.038.361-.553.053.029-.67-.371-.361.553-.073-.038.362-.554.026.015-.644-.356-.362.553-.072-.038.361-.554-1.272-.704-.723-.398-.361.553-.073-.038.362-.554.046.026-.663-.367-.362.553-.072-.039.361-.553.02.011-.637-.352-.361.553-.073-.039.362-.553-1.301-.722-.362.554-.072-.039.361-.553.065.035-.682-.377-.362.553-.072-.038.362-.553.038.02-.656-.363-.361.554-.072-.038.36-.553.013.006-.63-.349-.36.554-.073-.039.361-.553.032.018-1.337-.74-.361.553-.072-.038.361-.553.056.03-.641-.374-.362.553-.072-.038.361-.553.03.016-.65-.358-.362.553-.072-.038.361-.554-1.995-1.104-.361.553-.073-.038.362-.554.047.027-.665-.368-.361.553-.072-.038.361-.554.022.013-.412-.228-.832 1.26 11.484 6.357 2.871 1.588.718.398.024.014.004.006.076.127c.03.051.061.103.09.156.236.423.438.862.602 1.313.165.447.29.907.375 1.373.073.412.107.828.103 1.246h1.608c.02-.093.02-.188.016-.283zM46.346 44.761l-.072-.038.361-.553.073.039-.362.552zm.687.381l-.072-.039.361-.553.073.039-.362.553zm2.747 1.52l-.072-.038.361-.553.072.038-.36.553zm3.434 1.902l-.072-.039.362-.553.072.038-.361.554zm2.748 1.52l-.073-.038.362-.553.072.038-.361.553zm.686.38l-.072-.038.361-.553.073.039-.362.553zm2.747 1.521l-.072-.038.361-.553.073.038-.362.553z" fill="#FF6F3D"/><path d="M45.337 43.448l-.047-.026.047.026zm-.434.514l.07.038.364-.552-.048-.026-.021-.013-.365.553zm1.122-.134l-.023-.012.023.012zm-.435.514l.07.038.365-.552-.022-.012-.048-.026-.364.552zm.687.38l.07.038.364-.552-.07-.038-.364.552zm.687.381l.07.038.364-.552-.07-.039-.364.553zm1.121-.134l-.066-.037.066.037zm-.434.514l.07.038.364-.552-.066-.037-.003-.002-.365.553zm1.121-.133l-.04-.023.04.023zm-.434.513l.07.038.364-.552-.04-.022-.03-.017-.364.553zm1.121-.133l-.014-.008.014.007z" fill="#BE1E2D"/><path d="M49.025 46.243l.07.038.364-.552-.013-.007-.057-.032-.364.553zm.687.38l.07.039.364-.553-.07-.038-.364.552zm1.121-.133l-.038-.022.038.022zm-.434.513l.07.039.364-.553-.038-.02-.032-.018-.364.552zm1.121-.133l-.058-.032.057.031z" fill="#BE1E2D"/><path d="M51.086 47.383l.07.039.364-.553-.057-.03-.013-.008-.364.552zm1.12-.133l-.03-.018.03.019z" fill="#BE1E2D"/><path d="M51.773 47.764l.069.039.364-.553-.03-.018-.04-.02-.364.552zm1.123-.132l-.008-.005.008.005zm-.436.512l.07.039.364-.553-.006-.003-.064-.035-.364.552zm.687.381l.069.038.364-.553-.07-.038-.363.553zm1.12-.135l-.07-.038.07.039zm-.068-.032l-.364.553.07.038.363-.552-.07-.039zm.755.414l-.05-.029.05.029zm-.434.513l.07.038.364-.552-.049-.028-.02-.01-.364.552zm1.122-.135l-.025-.012.025.013z" fill="#BE1E2D"/><path d="M55.208 49.665l.069.038.364-.553-.024-.012-.045-.026-.364.553zm.687.38l.069.038.364-.552-.07-.038-.364.552zm.686.381l.07.038.364-.553-.07-.038-.364.553zm1.121-.134l-.068-.038.068.038zm-.434.514l.069.038.364-.552-.068-.038h-.001l-.364.552zm1.122-.133l-.043-.025.042.025z" fill="#BE1E2D"/><path d="M57.955 51.186l.07.038.364-.552-.043-.024-.027-.015-.364.553zm1.121-.134l-.017-.01.017.01zm-.434.514l.07.038.364-.552-.017-.01-.053-.029-.364.553zm.688.38l.069.039.364-.553-.07-.038-.364.552zm1.281.252l-.039-.065.01.016.03.05z" fill="#BE1E2D"/><path d="M59.996 52.512l.615-.314-.03-.049-.009-.016-.616.314.04.065zm1.001.399l-.033-.066.033.066zm-.641.265l.64-.265-.033-.066-.64.265.033.066zm.967.464l-.029-.069c.01.023.018.047.027.07h.002z" fill="#BE1E2D"/><path d="M60.662 53.864l.66-.225-.028-.07-.66.225.028.07zm.928.524l-.016-.05.015.05h.001zm-.022-.072c0 .007.005.014.008.021l-.008-.02z" fill="#BE1E2D"/><path d="M60.915 54.57l.675-.18-.014-.051c0-.007-.005-.014-.008-.02l-.675.18.022.07zm.883.587l-.017-.072.017.072zm-.69.133l.69-.133-.018-.072-.689.133.017.072zm.83.655l-.01-.074.01.074zm-.699.078l.698-.078c0-.025-.007-.05-.01-.074l-.699.078.01.074zm.056.742l.703-.018v-.074l-.703.018v.074z" fill="#BE1E2D"/><path d="M61.32 30.014h-1.696l-6.442-9.86v9.86h-1.697V17.218h1.697l6.46 9.905v-9.905h1.678v12.796zm11.221-5.985c0 1.254-.21 2.35-.633 3.287-.422.932-1.02 1.644-1.793 2.136-.773.492-1.675.738-2.707.738-1.008 0-1.901-.246-2.68-.738-.78-.498-1.386-1.204-1.82-2.118-.427-.92-.647-1.984-.659-3.19v-.923c0-1.231.214-2.318.642-3.261.428-.944 1.031-1.664 1.81-2.162.785-.504 1.682-.756 2.69-.756 1.025 0 1.927.249 2.707.747.785.492 1.388 1.21 1.81 2.153.422.938.633 2.03.633 3.279v.808zm-1.679-.826c0-1.518-.304-2.68-.914-3.49-.609-.814-1.462-1.221-2.557-1.221-1.067 0-1.907.407-2.523 1.222-.61.808-.923 1.933-.94 3.375v.94c0 1.47.308 2.628.923 3.472.62.838 1.473 1.257 2.557 1.257 1.09 0 1.934-.396 2.532-1.187.597-.797.905-1.937.922-3.419v-.95z" fill="#FB6A3C"/><path d="M76.523 30.014v-6.418h-1.17v-.978h1.17v-.759c0-.793.212-1.406.635-1.839.424-.433 1.023-.65 1.798-.65.292 0 .581.04.868.117l-.068 1.026a3.625 3.625 0 00-.683-.062c-.41 0-.727.12-.95.362-.224.237-.336.579-.336 1.026v.779h1.58v.978h-1.58v6.418h-1.264zm8.811 0c-.073-.145-.132-.405-.178-.779-.587.61-1.29.916-2.105.916-.73 0-1.328-.205-1.798-.615a2.016 2.016 0 01-.697-1.572c0-.77.292-1.368.875-1.791.588-.429 1.413-.643 2.475-.643h1.23v-.581c0-.442-.132-.793-.396-1.053-.265-.264-.654-.396-1.17-.396-.45 0-.829.114-1.134.342-.306.227-.458.503-.458.827h-1.272c0-.37.13-.725.39-1.067a2.7 2.7 0 011.066-.82c.451-.2.946-.3 1.484-.3.852 0 1.52.213 2.003.642.483.424.733 1.01.752 1.757v3.404c0 .679.086 1.219.26 1.62v.11h-1.327zm-2.098-.963a2.22 2.22 0 001.127-.308 1.86 1.86 0 00.773-.8v-1.518h-.991c-1.55 0-2.325.454-2.325 1.36 0 .397.133.707.397.93.264.224.604.335 1.019.335zm6.863-8.224v1.79h1.38v.979H90.1v4.586c0 .297.061.52.184.67.123.146.333.219.63.219.145 0 .346-.027.6-.082v1.025a3.664 3.664 0 01-.97.137c-.565 0-.991-.17-1.278-.513-.287-.341-.43-.827-.43-1.456v-4.586h-1.347v-.978h1.346v-1.791H90.1z" fill="#FF6F3D"/></svg>