<svg width="297" height="341" viewBox="0 0 297 341" fill="none" xmlns="http://www.w3.org/2000/svg">
<path d="M296.608 289.218L292.983 284.391C291.698 285.16 290.168 285.393 288.716 285.04V285.238C288.291 285.166 287.858 285.166 287.433 285.238C284.644 285.633 275.944 283.996 272.207 285.718V286.085C272.16 287.042 272.292 288 272.597 288.907C256.785 286.367 213.198 281.06 184.224 293.847C183.36 286.068 182.085 278.341 180.403 270.701C179.037 260.68 176.081 239.933 173.264 223.505C176.555 214.415 176.387 201.995 165.288 186.583C165.288 186.583 150.982 128.689 156.114 110.539C155.856 101.84 154.14 93.2498 151.038 85.1339C151.038 85.1339 158.735 86.0654 170.001 56.9065C179.873 31.5018 164.731 22.1303 160.799 20.2109C160.749 19.0886 160.348 18.0114 159.655 17.1341C158.54 16.1461 156.086 15.1864 155.472 15.9203C142.616 -9.4843 114.004 3.13335 114.004 3.13335C100.34 6.54886 104.997 16.2026 104.997 16.2026H105.722C105.635 16.424 105.561 16.6502 105.499 16.8801C105.499 16.8801 99.6704 30.4857 102.348 34.3528C102.348 34.3528 104.411 37.599 98.6386 44.8252C98.6386 44.8252 95.0133 48.3254 98.4713 49.398C98.4713 49.398 101.846 50.6118 102.682 51.0634C102.682 51.0634 100.591 53.8862 102.459 55.0153C102.754 55.3039 103.071 55.5682 103.407 55.8056C103.742 56.0032 102.431 57.4146 104.216 58.205C104.216 58.205 105.415 59.6728 104.969 64.8666C104.969 64.8666 104.021 71.3589 118.299 65.6005C118.299 65.6005 125.271 61.9874 127.028 68.6491C126.581 70.371 124.239 75.5084 123.821 77.4561C122.454 82.4241 112.945 94.1384 96.9933 109.889C93.7254 112.105 90.8499 114.863 88.4878 118.047C83.4402 125.358 83.3845 134.786 98.304 145.456C101.093 150.791 111.578 166.118 115.036 183.224C115.036 183.224 118.187 197.818 102.71 194.797C95.3201 194.12 84.3884 193.329 73.2615 193.329C51.6491 192.821 28.1962 193.922 21.1966 200.273C21.1966 200.273 1.06224 215.065 32.3514 292.662L37.2595 305.025C36.9385 304.741 36.5932 304.486 36.2277 304.263C34.2477 305.565 32.6033 307.326 31.4311 309.4C29.0294 310.891 27.2227 313.189 26.3278 315.893C20.7504 322.498 3.18164 330.006 3.18164 330.006C2.67215 330.045 2.17802 330.201 1.73654 330.461C1.29506 330.721 0.917765 331.08 0.633106 331.509C0.348446 331.939 0.163861 332.428 0.0932753 332.94C0.0226891 333.453 0.0679452 333.974 0.225629 334.466C0.225629 334.466 -1.55913 339.067 4.91063 339.237C23.7035 338.851 42.4015 336.428 60.6845 332.011L65.4532 326.986C64.2826 325.677 63.6711 323.952 63.7521 322.187L62.9991 321.99C62.9991 314.481 55.2466 303.755 55.2466 303.755C55.1368 303.726 55.0217 303.726 54.9119 303.755C55.8322 284.56 56.3341 248.514 48.8047 229.63C54.3821 231.013 62.7481 232.904 73.2057 234.852C89.249 240.055 105.781 243.565 122.538 245.324V245.607H121.729C122.482 251.591 139.13 292.182 139.13 292.182C138.963 290.883 147.72 308.102 152.795 314.961C152.795 314.961 157.982 326.873 183.136 321.2C211.902 319.905 240.384 314.877 267.884 306.239C267.689 308.356 272.402 309.062 272.402 309.062C273.213 309.41 273.935 309.942 274.51 310.618C275.085 311.293 275.5 312.094 275.721 312.957C276.472 314.966 277.698 316.759 279.29 318.179C279.29 318.179 280.768 322.244 281.493 323.825C281.934 324.905 282.116 326.075 282.023 327.24L284.198 329.865C284.198 329.865 280.991 333.648 281.41 335.962C281.619 336.698 281.975 337.382 282.454 337.974C282.934 338.566 283.527 339.053 284.198 339.406C284.198 339.406 290.919 344.035 293.987 337.515C296.716 321.574 297.595 305.365 296.608 289.218ZM158.205 26.4492C158.454 26.4891 158.709 26.4662 158.948 26.3825C159.186 26.2988 159.4 26.1569 159.572 25.9693C159.572 25.9693 159.572 25.9693 159.572 26.1104C160.492 28.0864 159.181 31.7559 157.313 35.7924C157.956 32.7219 158.256 29.5876 158.205 26.4492ZM39.8808 313.126C39.9876 312.784 40.0714 312.436 40.1318 312.082L40.7453 313.606L39.8808 313.126ZM143.425 61.4793C143.425 61.4793 144.039 60.0397 144.875 57.6122C146.646 55.9931 148.269 54.2171 149.727 52.3054C148.054 56.8783 144.652 65.7981 142.784 70.1734C142.314 67.2649 142.534 64.285 143.425 61.4793ZM270.673 305.336L272.207 304.828C272.054 305.011 271.886 305.181 271.705 305.336L272.263 305.787C271.745 305.595 271.214 305.444 270.673 305.336Z" fill="#323130" fill-opacity="0.2"/>
</svg>
