<svg width="218" height="468" viewBox="0 0 218 468" fill="none" xmlns="http://www.w3.org/2000/svg">
<path d="M209.984 60.7689C209.743 57.4599 209.061 54.1978 207.957 51.0688C206.139 44.6191 204.744 38.0579 203.781 31.4269C203.721 27.8309 201.724 27.1963 199.575 27.7705L198.123 28.1331C196.867 25.7212 194.99 23.6866 192.686 22.2383C190.382 20.79 187.734 19.98 185.013 19.8916C182.292 19.8032 179.597 20.4395 177.203 21.7352C174.81 23.031 172.805 24.9394 171.394 27.2646C169.983 29.5899 169.218 32.2482 169.175 34.9667C169.133 37.6852 169.816 40.366 171.154 42.7338C172.492 45.1016 174.437 47.0712 176.789 48.4404C179.141 49.8096 181.815 50.529 184.537 50.5249C187.139 50.5077 189.692 49.8208 191.95 48.5305C193.088 49.6828 194.407 50.6422 195.854 51.371C197.609 52.0056 198.607 55.6922 198.607 55.6922C200.241 73.8232 194.764 108 194.764 108C182.208 102.742 166.413 100.989 160.967 99.7203C154.812 98.1952 148.791 96.174 142.964 93.6766L141.663 93.1931C139.092 92.3612 136.462 91.7247 133.796 91.2894C130.256 90.5037 126.201 89.6878 122.994 89.295C121.643 89.0889 120.274 89.0181 118.909 89.0835C118.909 89.0835 110.891 78.1142 112.071 73.9743C109.227 64.3951 120.21 67.1147 120.21 67.1147C135.974 70.8618 134.038 64.3649 134.038 64.3649C132.767 59.0767 133.826 57.3844 133.826 57.3844C135.581 56.2966 133.977 55.0576 134.31 54.8159C134.627 54.5168 134.921 54.1935 135.187 53.8489C136.973 52.5193 134.371 49.8299 134.371 49.8299C135.157 49.2255 138.486 47.4728 138.486 47.4728C141.965 45.841 137.638 42.789 137.638 42.789C130.679 36.2618 132.313 32.5752 132.313 32.5752C133.796 29.5534 130.679 22.8751 128.44 18.6748H129.287C129.287 18.6748 134.249 7.8264 119.181 3.77714C119.181 3.77714 84.4759 -12.3594 72.1006 21.9081C71.7719 22.0482 71.4577 22.2203 71.1627 22.4218C70.3831 23.2553 69.8857 24.3124 69.7406 25.4437C65.444 27.1057 48.7419 35.5064 56.9417 62.6726C58.9763 69.9917 61.7648 77.0805 65.2625 83.8255C61.3868 84.93 57.805 86.8799 54.7755 89.5346C51.7459 92.1892 49.3441 95.4823 47.7434 99.1764C43.4184 102.462 39.516 106.268 36.1245 110.508L33.7039 112.865C30.6782 115.887 22.9928 125.92 19.4224 129.939C17.1074 132.446 14.9834 135.123 13.0683 137.946C11.3436 141.331 3.32541 156.077 1.54022 159.462C-0.244969 162.846 1.54022 165.264 7.25888 169.222C12.9775 173.181 52.0097 192.098 56.6693 194.999C59.5007 196.739 62.5539 198.091 65.7466 199.018L67.6831 199.713C68.882 200.192 70.0537 200.737 71.1929 201.344C64.4758 210.41 51.5256 231.563 58.4848 252.716C58.4848 252.716 58.6663 255.737 63.2655 262.537C63.8101 283.145 64.6876 309.043 65.6558 316.93C65.6558 316.93 42.6299 343.34 45.4438 375.07C45.4438 375.07 51.7676 413.084 49.8917 431.457C49.8055 431.42 49.7129 431.402 49.6193 431.402C49.5258 431.402 49.4331 431.42 49.347 431.457C49.347 431.457 42.9022 443.544 43.7494 451.31L43.0232 451.613C43.3134 453.428 42.9025 455.286 41.8734 456.81L47.2593 461.373C66.0811 463.478 85.0794 463.478 103.901 461.373C105.311 461.264 106.639 460.665 107.653 459.681C115.082 462.545 122.657 465.017 130.346 467.084C137.336 468.656 136.61 463.065 136.61 463.065C136.903 462.561 137.083 461.998 137.139 461.417C137.194 460.836 137.123 460.25 136.931 459.699C136.738 459.148 136.429 458.645 136.023 458.225C135.618 457.804 135.126 457.476 134.582 457.263C134.582 457.263 117.82 443.937 113.402 435.023C113.159 431.797 111.826 428.749 109.62 426.38C109.103 424.571 108.318 422.85 107.29 421.273C114.34 408.31 127.26 386.22 140.573 372.924L142.903 370.628C148.138 365.339 160.664 352.497 162.207 346.634C162.207 346.634 175.339 335.453 172.041 321.009C172.041 321.009 159.757 273.022 120.361 248.697C124.498 237.225 126.944 225.213 127.623 213.039V212.465C127.59 211.861 127.59 211.256 127.623 210.652V210.38C127.835 199.592 136.549 175.266 136.549 175.266C141.814 154.113 139.242 150.427 139.212 150.578L138.365 146.71C141.968 144.462 144.668 141.024 145.995 136.993C147.322 132.963 147.192 128.595 145.626 124.65C149.213 124.796 152.759 125.457 156.156 126.615C164.87 129.636 184.961 129.788 188.683 129.244C192.404 128.7 209.046 126.766 212.889 126.222C216.731 125.678 217.548 122.716 217.548 115.917C217.548 109.118 210.347 66.2988 209.984 60.7689ZM70.7996 31.7593C70.9721 31.9663 71.1893 32.1316 71.435 32.2428C72.2327 45.291 78.1728 57.4926 87.9556 66.178C88.8935 67.7493 89.6197 68.8372 89.9525 69.1998C89.1705 72.2924 88.1591 75.3226 86.9268 78.2653C86.0796 78.507 85.2929 78.7186 84.4759 78.8999L83.3262 74.3671C81.2989 69.4416 78.1219 55.1181 75.429 49.1046C72.7361 43.0912 68.9539 34.8718 70.7996 31.7593ZM67.32 188.683C51.6163 179.618 26.8052 155.443 26.8052 155.443C38.5148 148.07 49.0747 136.224 53.1595 132.447C56.6849 129.336 60.4259 126.479 64.3547 123.895L69.0749 131.419L78.1521 151.938C78.1521 151.938 78.8481 151.545 80.1794 151.212L78.1521 151.938C78.4547 153.479 83.9313 166.352 83.9313 166.352C85.8657 169.657 87.1975 173.279 87.8648 177.049C87.9891 180.293 87.4645 183.529 86.3216 186.568C83.7696 186.506 81.2173 186.678 78.6968 187.081C77.5332 187.225 76.3808 187.447 75.2474 187.746C73.5772 188.124 71.9385 188.629 70.3457 189.257C69.3178 189.187 68.3021 188.994 67.32 188.683ZM140.483 330.135C140.483 330.135 121.481 338.687 117.517 356.455V356.878C112.283 370.053 95.5804 410.697 86.2309 418.947C86.715 416.831 87.1386 413.719 85.4744 413.719C85.4744 413.719 74.4607 423.57 72.494 431.85H72.0704C70.9921 430.698 69.7098 429.756 68.2882 429.07C67.5193 429.731 66.856 430.505 66.3215 431.366C65.6255 418.1 65.4743 395.286 71.0719 377.215C71.0719 377.215 84.597 345.214 85.2324 335.695C85.2324 335.695 94.9148 327.657 101.571 300.914C111.98 309.375 124.688 319.075 140.483 330.135Z" fill="#323130" fill-opacity="0.2"/>
</svg>
