<svg width="93" height="58" viewBox="0 0 93 58" fill="none" xmlns="http://www.w3.org/2000/svg">
<path d="M41.7405 29.961L41.7403 29.962C41.5331 31.0475 41.6656 32.1632 42.118 33.1767C42.118 33.1768 42.1181 33.1768 42.1181 33.1769L45.5675 40.9289C46.605 43.2677 44.7842 46.0636 41.695 46.0736L22.6076 46.126L22.6066 46.126C19.4583 46.1378 17.6292 43.2579 18.7509 40.9008C18.7509 40.9008 18.7509 40.9008 18.7509 40.9008L22.3372 33.3661L22.3372 33.366C22.8786 32.228 23.0106 30.9542 22.7084 29.7362L22.7083 29.7359L16.8067 5.98697C16.8067 5.98696 16.8067 5.98695 16.8067 5.98693C16.5764 5.0602 16.7454 4.0827 17.2936 3.25485C17.8442 2.42321 18.7421 1.79954 19.8144 1.54346C19.8144 1.54346 19.8145 1.54346 19.8145 1.54346L21.1582 1.22259C21.1583 1.22255 21.1585 1.22252 21.1586 1.22248C22.0099 1.02008 22.9091 1.06461 23.7293 1.34819C24.5492 1.63169 25.2389 2.13596 25.7137 2.77763L25.7143 2.7785C26.8945 4.36985 28.9003 5.95574 32.091 5.95574C35.5039 5.95574 37.6756 4.21602 38.9339 2.61088C39.3844 2.04102 40.0097 1.58884 40.7453 1.31724C41.4818 1.04532 42.2908 0.968759 43.0767 1.09896L43.0788 1.09931C44.1928 1.28146 45.1601 1.8585 45.7821 2.67535C46.4012 3.48842 46.634 4.47735 46.4509 5.42965L46.4508 5.42988L41.7405 29.961Z" stroke="#F3ECD8" stroke-width="2"/>
<path d="M2.69637 53.8241C2.82432 53.5939 2.96095 53.3664 3.10553 53.1468L3.21468 52.9836L3.27251 52.902L3.42287 52.8224L6.55515 51.1753L19.0842 44.5866L18.284 43.3076L17.7404 43.5935L18.091 44.1541L18.0187 44.1912L17.6674 43.6307L17.7028 43.6121L16.9553 44.0055L17.3059 44.566L17.2337 44.6032L16.8831 44.0426L16.899 44.034L16.2043 44.3995L16.5549 44.9601L16.4826 44.9972L16.132 44.4367H16.1363L15.4532 44.7962L15.8038 45.3568L15.7315 45.3939L15.3809 44.8334L15.4481 44.7976L14.7014 45.1903L15.052 45.7508L14.9797 45.788L14.6291 45.2274L14.6855 45.1976L13.9496 45.5843L14.3132 46.1449L14.2409 46.182L13.8903 45.6215L13.9525 45.589L13.2115 45.9784L13.5621 46.5389L13.4898 46.5761L13.1399 46.0122L13.1898 45.9857L12.4604 46.3691L12.811 46.9297L12.7387 46.9668L12.3903 46.4102L12.4293 46.3897L11.7108 46.7678L12.0621 47.3283L11.9898 47.3648L11.6385 46.801L11.6833 46.7777L10.9604 47.1585L11.311 47.7191L11.2387 47.7556L10.8874 47.195L10.9207 47.1778L10.2086 47.5526L10.5592 48.1131L10.4869 48.1503L10.1363 47.5897L10.158 47.5778L9.45682 47.9466L9.80814 48.5072L9.73586 48.5443L9.38526 47.9838L9.412 47.9692L8.70646 48.3407L9.05706 48.9012L8.98478 48.9384L8.63345 48.3778L8.64936 48.3692L7.96406 48.732L8.31466 49.2926L8.24237 49.3298L7.89177 48.7692L7.95394 48.736L7.21442 49.1301L7.56575 49.6906L7.49346 49.7278L7.14286 49.1672L7.21081 49.1314L6.46406 49.5241L6.81467 50.0847L6.74238 50.1218L6.39105 49.5613L6.44744 49.5314L5.7513 49.8976L5.71226 49.9182L6.06286 50.4787L5.99057 50.5159L5.63997 49.9553L5.68479 49.9321L4.9619 50.3129L5.31323 50.8734L5.24094 50.9099L4.89034 50.3494L4.93949 50.3235L4.21155 50.7069L4.56215 51.2675L4.48986 51.304L4.13853 50.7434L4.17612 50.7242L3.46986 51.0996L3.82046 51.6602L3.74817 51.6973L3.39757 51.1368L3.42215 51.1235L2.71806 51.4937L3.06938 52.0542L2.99709 52.0914L2.64649 51.5308L2.67469 51.5182L2.61975 51.5474L2.38553 51.6701C2.31975 51.7046 2.25613 51.7398 2.1918 51.775C2.17734 51.7856 2.15638 51.7896 2.14698 51.8048L2.11445 51.8473L2.05011 51.9315C2.00891 51.9879 1.96264 52.0476 1.9265 52.1007L1.85999 52.1955L1.81445 52.2619L2.41372 52.6009L2.37107 52.6639L1.7718 52.3249C1.75879 52.3448 1.74505 52.364 1.73276 52.3839C1.60047 52.583 1.47758 52.7893 1.35903 52.9949L1.98144 53.2941L1.94385 53.3604L1.32072 53.0612C1.30337 53.0924 1.28457 53.1229 1.26722 53.1548C1.15734 53.3538 1.05614 53.5528 0.95855 53.7518L1.6012 54.0119L1.56867 54.0782L0.925297 53.8175C0.813249 54.0517 0.70843 54.2905 0.613009 54.532L1.27445 54.7502L1.24698 54.8165L0.585539 54.5983C0.56313 54.656 0.539274 54.7124 0.518311 54.7708C0.347619 55.2283 0.214003 55.6968 0.118554 56.1725L0.807466 56.2945L0.793008 56.3682L0.100481 56.2541C0.083855 56.341 0.0679515 56.4279 0.0542166 56.5154C0.0274697 56.6873 0.0151806 56.9407 0 57.1125H1.61421C1.6811 56.4791 1.82314 55.8542 2.03782 55.2491C2.22001 54.7603 2.44009 54.2841 2.69637 53.8241Z" fill="#FF6F3D"/>
<path d="M3.74806 51.6966L3.81818 51.6595L3.46758 51.0996L3.42204 51.1235L3.39746 51.1367L3.74806 51.6966Z" fill="#BE1E2D"/>
<path d="M4.21733 50.7058L4.18408 50.7236L4.21733 50.7058Z" fill="#BE1E2D"/>
<path d="M4.49781 51.3021L4.56793 51.2657L4.21733 50.7058L4.18407 50.723L4.14648 50.7423L4.49781 51.3021Z" fill="#BE1E2D"/>
<path d="M4.96687 50.311L4.94531 50.3224L4.96687 50.311Z" fill="#BE1E2D"/>
<path d="M5.24709 50.9077L5.31793 50.8713L4.9666 50.3108L4.94564 50.3221L4.89648 50.3479L5.24709 50.9077Z" fill="#BE1E2D"/>
<path d="M5.71645 49.9167L5.69043 49.9308L5.71645 49.9167Z" fill="#BE1E2D"/>
<path d="M5.9961 50.5137L6.06622 50.4773L5.71563 49.9167L5.69033 49.9307L5.64551 49.9539L5.9961 50.5137Z" fill="#BE1E2D"/>
<path d="M6.46612 49.5229L6.45117 49.5304L6.46612 49.5229Z" fill="#BE1E2D"/>
<path d="M6.74586 50.1199L6.81598 50.0828L6.46538 49.5229L6.45092 49.5302L6.39453 49.5601L6.74586 50.1199Z" fill="#BE1E2D"/>
<path d="M7.2176 49.1287L7.2124 49.1321L7.2176 49.1287Z" fill="#BE1E2D"/>
<path d="M7.49465 49.7256L7.56549 49.6885L7.21416 49.1287L7.21199 49.13L7.14404 49.1658L7.49465 49.7256Z" fill="#BE1E2D"/>
<path d="M7.96457 48.7346L7.95605 48.7394L7.96457 48.7346Z" fill="#BE1E2D"/>
<path d="M8.24464 49.3316L8.31476 49.2945L7.96416 48.7346L7.95621 48.7393L7.89404 48.7717L8.24464 49.3316Z" fill="#BE1E2D"/>
<path d="M8.71362 48.3408L8.65869 48.3703L8.71362 48.3408Z" fill="#BE1E2D"/>
<path d="M8.99391 48.9378L9.06403 48.9007L8.71342 48.3408L8.65848 48.3693L8.64258 48.3779L8.99391 48.9378Z" fill="#BE1E2D"/>
<path d="M9.46231 47.9468L9.41895 47.9701L9.46231 47.9468Z" fill="#BE1E2D"/>
<path d="M9.74318 48.5437L9.81403 48.5066L9.4627 47.9468L9.41933 47.9693L9.39258 47.9839L9.74318 48.5437Z" fill="#BE1E2D"/>
<path d="M10.2125 47.5525L10.1641 47.5785L10.2125 47.5525Z" fill="#BE1E2D"/>
<path d="M10.4932 48.1495L10.5633 48.1123L10.2127 47.5525L10.1643 47.5777L10.1426 47.5889L10.4932 48.1495Z" fill="#BE1E2D"/>
<path d="M10.9614 47.1584L10.9238 47.1783L10.9614 47.1584Z" fill="#BE1E2D"/>
<path d="M11.2424 47.7547L11.3126 47.7183L10.962 47.1584L10.9244 47.1777L10.8911 47.1949L11.2424 47.7547Z" fill="#BE1E2D"/>
<path d="M11.7116 46.7646L11.6855 46.7781L11.7116 46.7646Z" fill="#BE1E2D"/>
<path d="M11.9912 47.3607L12.0621 47.3236L11.7107 46.7644L11.6854 46.7777L11.6406 46.8008L11.9912 47.3607Z" fill="#BE1E2D"/>
<path d="M12.4603 46.3696L12.4292 46.3868L12.4603 46.3696Z" fill="#BE1E2D"/>
<path d="M12.7407 46.9666L12.8109 46.9295L12.4603 46.3696L12.4292 46.3862L12.3901 46.4067L12.7407 46.9666Z" fill="#BE1E2D"/>
<path d="M13.2109 45.9758L13.1899 45.9866L13.2109 45.9758Z" fill="#BE1E2D"/>
<path d="M13.4905 46.5728L13.5606 46.5357L13.21 45.9758L13.1898 45.9864L13.1392 46.0129L13.4905 46.5728Z" fill="#BE1E2D"/>
<path d="M13.9597 45.5815L13.9512 45.5863L13.9597 45.5815Z" fill="#BE1E2D"/>
<path d="M14.2393 46.1785L14.3101 46.1414L13.9588 45.5815L13.9508 45.5862L13.8887 45.6186L14.2393 46.1785Z" fill="#BE1E2D"/>
<path d="M14.7095 45.1877L14.6953 45.1952L14.7095 45.1877Z" fill="#BE1E2D"/>
<path d="M14.9893 45.7847L15.0594 45.7476L14.7088 45.1877L14.6951 45.195L14.6387 45.2248L14.9893 45.7847Z" fill="#BE1E2D"/>
<path d="M15.4613 44.7935L15.4561 44.7969L15.4613 44.7935Z" fill="#BE1E2D"/>
<path d="M15.7383 45.3904L15.8084 45.3533L15.4578 44.7935L15.4556 44.7948L15.3877 44.8306L15.7383 45.3904Z" fill="#BE1E2D"/>
<path d="M16.2081 44.3997L16.1416 44.4341L16.2081 44.3997Z" fill="#BE1E2D"/>
<path d="M16.4873 44.9966L16.5582 44.9595L16.2076 44.3997L16.1411 44.4341L16.1367 44.4368L16.4873 44.9966Z" fill="#BE1E2D"/>
<path d="M16.9566 44.0056L16.9023 44.0351L16.9566 44.0056Z" fill="#BE1E2D"/>
<path d="M17.2373 44.6019L17.3074 44.5655L16.9568 44.0056L16.9026 44.0341L16.8867 44.0421L17.2373 44.6019Z" fill="#BE1E2D"/>
<path d="M17.7395 43.5935L17.7041 43.6127L17.7395 43.5935Z" fill="#BE1E2D"/>
<path d="M18.0203 44.1905L18.0904 44.1534L17.7398 43.5935L17.7044 43.6121L17.6689 43.6306L18.0203 44.1905Z" fill="#BE1E2D"/>
<path d="M32.0051 37.7909L31.1203 37.3013L31.053 37.3371L30.9836 37.2257L30.4306 36.9192L30.0236 37.1335L30.3742 37.694L30.3041 37.7312L29.9528 37.1706L29.9918 37.15L29.274 37.5275L29.6246 38.0881L29.5545 38.1252L29.2039 37.5647L29.2306 37.5501L28.5244 37.9216L28.875 38.4821L28.8048 38.5193L28.4542 37.9587L28.4868 37.9415L27.7754 38.3156L28.126 38.8762L28.0559 38.9133L27.7046 38.3527L27.7263 38.3415L27.0258 38.7096L27.3764 39.2702L27.3063 39.3074L26.9557 38.7468L26.9658 38.7415L26.2762 39.1037L26.6275 39.6642L26.5567 39.7014L26.2061 39.1408L26.222 39.1322L25.5273 39.4977L25.8779 40.0583L25.807 40.0954L25.4564 39.5349L25.5193 39.5017L24.7776 39.8925L25.1282 40.453L25.0581 40.4895L24.7075 39.9289L24.7588 39.9017L24.028 40.2865L24.3786 40.8471L24.3085 40.8842L23.9579 40.3236L24.015 40.2931L23.2784 40.6805L23.6297 41.2411L23.5588 41.2782L23.2082 40.7177L23.2545 40.6931L22.5294 41.0746L22.88 41.6351L22.8099 41.6723L22.4593 41.1117L22.494 41.0932L21.7798 41.4686L22.1304 42.0292L22.0603 42.0663L21.7097 41.5058L21.7502 41.4846L21.0309 41.8627L21.3815 42.4232L21.3107 42.4604L20.9601 41.8998L20.9897 41.8846L20.2813 42.2567L20.6319 42.8173L20.5617 42.8544L20.2111 42.2939L20.2458 42.2753L19.5316 42.6508L19.8822 43.2113L19.8121 43.2485L19.4615 42.6879L19.4854 42.6753L18.782 43.0448L19.1333 43.606L19.0625 43.6425L18.7119 43.082L18.7249 43.0753L18.2832 43.3075L19.0834 44.5865L32.0051 37.7909Z" fill="#FF6F3D"/>
<path d="M32.6038 36.3996L32.6732 36.4381L33.331 36.8023L33.3599 36.8182L33.6006 36.9516L44.1411 31.4084L43.3408 30.1294L42.7965 30.416L43.1471 30.9765L43.077 31.013L42.7264 30.4525L42.7459 30.4425L42.0143 30.8273L42.3649 31.3878L42.2941 31.425L41.9435 30.8644L41.9442 30.8638L41.2647 31.2213L41.6153 31.7819L41.5452 31.819L41.1946 31.2585L41.2416 31.2333L40.5151 31.6154L40.8657 32.1759L40.7955 32.2131L40.4449 31.6525L40.5143 31.616L39.7661 32.0094L40.1167 32.57L40.0459 32.6071L39.6953 32.0466L39.7372 32.0247L39.0165 32.4035L39.3671 32.964L39.297 33.0012L38.9457 32.4406L38.9934 32.4161L38.2669 32.7982L38.6175 33.3587L38.5474 33.3952L38.1968 32.8347L38.2329 32.8154L37.518 33.1922L37.8686 33.7528L37.7977 33.7893L37.4471 33.2294L37.489 33.2068L36.7683 33.5863L37.1189 34.1468L37.0488 34.184L36.6975 33.6234L36.7286 33.6068L36.0187 33.9803L36.3693 34.5409L36.2992 34.578L35.9486 34.0175L35.9681 34.0068L35.2691 34.3744L35.6204 34.9349L35.5495 34.9721L35.1989 34.4115L35.2242 34.3982L34.5202 34.7684L34.8708 35.329L34.8006 35.3661L34.4493 34.8056L34.4638 34.7983L33.7705 35.1624L34.1211 35.723L34.051 35.7602L33.7004 35.1996L33.7033 35.1983L33.0209 35.5565L33.3722 36.1171L33.3014 36.1542L32.9508 35.5936L33.0173 35.5585L32.272 35.9512L32.5257 36.3565L32.6038 36.3996Z" fill="#FF6F3D"/>
<path d="M32.2013 35.9879L32.257 35.9587L32.0264 36.08L32.3828 36.2774L32.2013 35.9879Z" fill="#FF6F3D"/>
<path d="M18.7817 43.0449L18.7246 43.0754L18.7817 43.0449Z" fill="#BE1E2D"/>
<path d="M19.0625 43.6419L19.1334 43.6055L18.782 43.0449L18.7249 43.0754L18.7119 43.082L19.0625 43.6419Z" fill="#BE1E2D"/>
<path d="M19.5316 42.6509L19.4854 42.6763L19.5316 42.6509Z" fill="#BE1E2D"/>
<path d="M19.812 43.2479L19.8821 43.2108L19.5315 42.6509L19.4853 42.6754L19.4614 42.688L19.812 43.2479Z" fill="#BE1E2D"/>
<path d="M20.2815 42.2568L20.2461 42.276L20.2815 42.2568Z" fill="#BE1E2D"/>
<path d="M20.562 42.8538L20.6321 42.8167L20.2815 42.2568L20.2461 42.2754L20.2114 42.2939L20.562 42.8538Z" fill="#BE1E2D"/>
<path d="M21.0314 41.8628L20.9902 41.8854L21.0314 41.8628Z" fill="#BE1E2D"/>
<path d="M21.3106 42.4598L21.3814 42.4227L21.0308 41.8628L20.9896 41.8847L20.96 41.8999L21.3106 42.4598Z" fill="#BE1E2D"/>
<path d="M21.7805 41.4688L21.75 41.486L21.7805 41.4688Z" fill="#BE1E2D"/>
<path d="M22.0606 42.0657L22.1307 42.0286L21.7801 41.4688L21.7504 41.4847L21.71 41.5059L22.0606 42.0657Z" fill="#BE1E2D"/>
<path d="M22.5296 41.0747L22.4941 41.0939L22.5296 41.0747Z" fill="#BE1E2D"/>
<path d="M22.8096 41.6717L22.8797 41.6346L22.5291 41.0747L22.4937 41.0933L22.459 41.1118L22.8096 41.6717Z" fill="#BE1E2D"/>
<path d="M23.2794 40.6807L23.2549 40.6934L23.2794 40.6807Z" fill="#BE1E2D"/>
<path d="M23.5586 41.2776L23.6295 41.2405L23.2781 40.6807L23.2543 40.6933L23.208 40.7178L23.5586 41.2776Z" fill="#BE1E2D"/>
<path d="M24.0286 40.2866L24.0151 40.2934L24.0286 40.2866Z" fill="#BE1E2D"/>
<path d="M24.3086 40.8836L24.3787 40.8465L24.0281 40.2866L24.0151 40.2932L23.958 40.3237L24.3086 40.8836Z" fill="#BE1E2D"/>
<path d="M24.7782 39.8923L24.7588 39.9018L24.7782 39.8923Z" fill="#BE1E2D"/>
<path d="M25.0581 40.4886L25.1282 40.4522L24.7776 39.8923L24.7588 39.9016L24.7075 39.9288L25.0581 40.4886Z" fill="#BE1E2D"/>
<path d="M25.528 39.4978L25.5195 39.5019L25.528 39.4978Z" fill="#BE1E2D"/>
<path d="M25.8071 40.0948L25.878 40.0577L25.5274 39.4978L25.5194 39.5018L25.4565 39.5349L25.8071 40.0948Z" fill="#BE1E2D"/>
<path d="M26.2759 39.1038L26.2217 39.1332L26.2759 39.1038Z" fill="#BE1E2D"/>
<path d="M26.5567 39.7007L26.6275 39.6636L26.2762 39.1038L26.222 39.1322L26.2061 39.1409L26.5567 39.7007Z" fill="#BE1E2D"/>
<path d="M27.0258 38.7097L26.9658 38.7415L27.0258 38.7097Z" fill="#BE1E2D"/>
<path d="M27.3067 39.3067L27.3768 39.2696L27.0262 38.7097L26.9662 38.7415L26.9561 38.7468L27.3067 39.3067Z" fill="#BE1E2D"/>
<path d="M27.7757 38.3157L27.7266 38.3424L27.7757 38.3157Z" fill="#BE1E2D"/>
<path d="M28.0564 38.9126L28.1265 38.8755L27.7759 38.3157L27.7268 38.3415L27.7051 38.3528L28.0564 38.9126Z" fill="#BE1E2D"/>
<path d="M28.5249 37.9216L28.4873 37.9422L28.5249 37.9216Z" fill="#BE1E2D"/>
<path d="M28.8047 38.5186L28.8748 38.4815L28.5242 37.9216L28.4866 37.9415L28.4541 37.9587L28.8047 38.5186Z" fill="#BE1E2D"/>
<path d="M29.2738 37.5276L29.2305 37.5509L29.2738 37.5276Z" fill="#BE1E2D"/>
<path d="M29.5547 38.1246L29.6248 38.0875L29.2742 37.5276L29.2308 37.5501L29.2041 37.5647L29.5547 38.1246Z" fill="#BE1E2D"/>
<path d="M30.0235 37.1333L29.9917 37.1504L30.0235 37.1333Z" fill="#BE1E2D"/>
<path d="M30.3044 37.7303L30.3746 37.6932L30.024 37.1333L29.9922 37.1499L29.9531 37.1704L30.3044 37.7303Z" fill="#BE1E2D"/>
<path d="M31.0533 37.3371L31.1205 37.3014L30.9839 37.2258L31.0533 37.3371Z" fill="#BE1E2D"/>
<path d="M32.2725 35.9509L32.2568 35.96L32.2725 35.9517V35.9509Z" fill="#BE1E2D"/>
<path d="M32.3826 36.2774L32.5258 36.3562L32.272 35.9514L32.2568 35.9587L32.2012 35.9879L32.3826 36.2774Z" fill="#BE1E2D"/>
<path d="M33.0224 35.5566L33.0171 35.5595L33.0224 35.5566Z" fill="#BE1E2D"/>
<path d="M33.3013 36.1536L33.3721 36.1165L33.0208 35.5566L33.0172 35.5586L32.9507 35.5937L33.3013 36.1536Z" fill="#BE1E2D"/>
<path d="M33.7704 35.1628L33.7031 35.1986L33.7704 35.1628Z" fill="#BE1E2D"/>
<path d="M34.0508 35.7598L34.1209 35.7227L33.7703 35.1628L33.7031 35.1986L33.7002 35.1999L34.0508 35.7598Z" fill="#BE1E2D"/>
<path d="M34.5203 34.7686L34.4639 34.7984L34.5203 34.7686Z" fill="#BE1E2D"/>
<path d="M34.8005 35.3655L34.8707 35.3284L34.5201 34.7686L34.4637 34.7984L34.4492 34.8057L34.8005 35.3655Z" fill="#BE1E2D"/>
<path d="M35.2689 34.3748L35.2241 34.3994L35.2689 34.3748Z" fill="#BE1E2D"/>
<path d="M35.5498 34.9717L35.6207 34.9346L35.2693 34.3748L35.2245 34.3986L35.1992 34.4119L35.5498 34.9717Z" fill="#BE1E2D"/>
<path d="M36.0184 33.9805L35.9678 34.0079L36.0184 33.9805Z" fill="#BE1E2D"/>
<path d="M36.2988 34.5774L36.369 34.5403L36.0184 33.9805L35.9678 34.007L35.9482 34.0176L36.2988 34.5774Z" fill="#BE1E2D"/>
<path d="M36.7683 33.5864L36.7285 33.6077L36.7683 33.5864Z" fill="#BE1E2D"/>
<path d="M37.0486 34.1834L37.1187 34.1463L36.7681 33.5864L36.7283 33.607L36.6973 33.6235L37.0486 34.1834Z" fill="#BE1E2D"/>
<path d="M37.5177 33.1926L37.4888 33.2084L37.5185 33.1926H37.5177Z" fill="#BE1E2D"/>
<path d="M37.7979 33.7889L37.8687 33.7525L37.5181 33.1926L37.4892 33.2072L37.4473 33.2297L37.7979 33.7889Z" fill="#BE1E2D"/>
<path d="M38.2669 32.7983L38.2329 32.8162L38.2669 32.7983Z" fill="#BE1E2D"/>
<path d="M38.5474 33.3946L38.6175 33.3582L38.2669 32.7983L38.2329 32.8156L38.1968 32.8348L38.5474 33.3946Z" fill="#BE1E2D"/>
<path d="M39.0169 32.4038L38.9932 32.4166L39.0169 32.4038Z" fill="#BE1E2D"/>
<path d="M39.2966 33.0008L39.3668 32.9637L39.0162 32.4038L38.993 32.4164L38.9453 32.4409L39.2966 33.0008Z" fill="#BE1E2D"/>
<path d="M39.767 32.0095L39.7373 32.026L39.767 32.0095Z" fill="#BE1E2D"/>
<path d="M40.0459 32.6065L40.1168 32.5694L39.7662 32.0095L39.7372 32.0248L39.6953 32.0466L40.0459 32.6065Z" fill="#BE1E2D"/>
<path d="M40.5154 31.6157L40.5142 31.6169L40.5154 31.6157Z" fill="#BE1E2D"/>
<path d="M40.7954 32.2127L40.8655 32.1756L40.5149 31.6157L40.5142 31.6164L40.4448 31.6528L40.7954 32.2127Z" fill="#BE1E2D"/>
<path d="M41.265 31.2214L41.2412 31.2335L41.265 31.2214Z" fill="#BE1E2D"/>
<path d="M41.5449 31.8184L41.6151 31.7813L41.2645 31.2214L41.2413 31.2334L41.1943 31.2585L41.5449 31.8184Z" fill="#BE1E2D"/>
<path d="M42.0145 30.8274L41.9443 30.8638L42.0145 30.8274Z" fill="#BE1E2D"/>
<path d="M42.294 31.4244L42.3648 31.3873L42.0142 30.8274L41.9441 30.8638L41.9434 30.8645L42.294 31.4244Z" fill="#BE1E2D"/>
<path d="M42.7962 30.4163L42.7456 30.4437L42.7962 30.4163Z" fill="#BE1E2D"/>
<path d="M43.0772 31.0126L43.1473 30.9761L42.7967 30.4163L42.7461 30.4428L42.7266 30.4527L43.0772 31.0126Z" fill="#BE1E2D"/>
<path d="M30.7729 36.7394L31.4958 36.3586L31.5218 36.3454L31.7972 36.2001L31.9158 36.0197L29.9279 34.9171L29.5664 35.4704L29.4941 35.4319L29.8556 34.8787L29.2382 34.5357L28.8768 35.0889L28.8045 35.0505L29.1659 34.4972L27.1809 33.3967L26.8194 33.9499L26.7472 33.9115L27.1086 33.3582L27.1404 33.3761L26.4898 33.0166L26.1284 33.5698L26.0561 33.5313L26.4175 32.9781L25.8074 32.6364L25.446 33.1897L25.3737 33.1512L25.7351 32.598L24.4339 31.8755L24.0725 32.4288L24.0002 32.3903L24.3616 31.8371L24.4296 31.8749L23.7436 31.4954L23.3821 32.0487L23.3098 32.0102L23.6713 31.457L23.0539 31.1153L22.6925 31.6686L22.6202 31.6301L22.9816 31.0768L22.3643 30.7352L22.0028 31.2885L21.9305 31.25L22.292 30.6967L21.9016 30.4805L21.0703 31.7409L30.423 36.9152L30.7447 36.7461L30.7729 36.7394ZM31.2291 35.6395L31.3013 35.678L30.9399 36.2313L30.8676 36.1928L31.2291 35.6395ZM24.7527 32.8109L24.6804 32.7724L25.0419 32.2198L25.1141 32.2577L24.7527 32.8109ZM27.4997 34.332L27.4274 34.2936L27.7888 33.7403L27.8611 33.7788L27.4997 34.332ZM28.1864 34.7121L28.1141 34.6737L28.4756 34.1204L28.5479 34.1589L28.1864 34.7121ZM30.178 35.8147L30.5394 35.2614L30.6117 35.2992L30.2503 35.8525L30.178 35.8147Z" fill="#FF6F3D"/>
<path d="M32.0262 36.08L31.9858 36.0581L31.9424 36.1244L32.0262 36.08Z" fill="#FF6F3D"/>
<path d="M32.9952 37.3716L32.9229 37.3331L32.9497 37.2926L32.002 37.7908L44.046 44.4551L44.8773 43.1947L44.3807 42.9201L44.0193 43.4733L43.947 43.4349L44.3084 42.8816L44.3684 42.9141L43.6607 42.5227L43.2993 43.076L43.227 43.0375L43.5884 42.4842L43.6246 42.5041L42.974 42.1426L42.6125 42.6959L42.5402 42.6574L42.9017 42.1041L42.9559 42.134L42.2836 41.7625L41.9222 42.3157L41.8499 42.2773L42.2113 41.724L42.2388 41.7393L40.9152 41.0009L40.5537 41.5542L40.4814 41.5157L40.8429 40.9624L40.8913 40.989L40.2255 40.6201L39.8641 41.1734L39.7918 41.1349L40.1532 40.5817L40.2205 40.6188L39.5417 40.2407L39.1802 40.794L39.1079 40.7555L39.4694 40.2022L39.5178 40.2294L38.852 39.8606L38.4906 40.4138L38.4183 40.3754L38.7798 39.8221L36.1051 38.3401L35.7436 38.8934L35.6713 38.8549L36.0328 38.3016H36.0371L35.4212 37.9587L35.0598 38.5119L34.9875 38.4741L35.3489 37.9209L34.0477 37.1984L33.6863 37.7517L33.614 37.7132L33.9754 37.16L34.0289 37.1898L33.5988 36.9517L33.0928 37.217L32.9952 37.3716ZM41.5332 41.3426L41.6055 41.381L41.2441 41.9343L41.1718 41.8958L41.5332 41.3426ZM38.0959 39.4446L38.1682 39.4831L37.8067 40.0364L37.7345 39.9979L38.0959 39.4446ZM37.4084 39.0645L37.4807 39.103L37.1193 39.6563L37.047 39.6178L37.4084 39.0645ZM36.7217 38.6844L36.794 38.7229L36.4325 39.2761L36.3602 39.2377L36.7217 38.6844ZM34.6607 37.5434L34.733 37.5819L34.3716 38.1351L34.2993 38.0967L34.6607 37.5434Z" fill="#FF6F3D"/>
<path d="M30.7025 36.7761L30.7524 36.7502L30.4307 36.9192L30.9837 37.2253L30.7025 36.7761Z" fill="#FF6F3D"/>
<path d="M31.6558 36.559L31.8727 36.906L31.8026 36.9425L31.5814 36.5889L31.5517 36.573L31.5619 36.5584L31.452 36.3819L31.4961 36.3587L30.7725 36.7395L31.1238 37.3L31.1202 37.3014L32.005 37.7909L32.9527 37.2927L33.2903 36.7799L33.3308 36.8025L32.6729 36.4383L32.3086 36.9916L32.2392 36.9531L32.5291 36.5126L32.3823 36.2778L32.026 36.0801L31.9421 36.1245L31.6558 36.559Z" fill="#FF6F3D"/>
<path d="M33.0977 37.2159L33.6008 36.9515L33.3601 36.8184L33.0977 37.2159Z" fill="#FF6F3D"/>
<path d="M31.7974 36.2002L31.522 36.3453L31.6094 36.4851L31.7974 36.2002Z" fill="#FF6F3D"/>
<path d="M32.6035 36.3998L32.5254 36.3567L32.5767 36.4395L32.6035 36.3998Z" fill="#FF6F3D"/>
<path d="M30.7734 36.7395L30.7524 36.7503L30.7734 36.7395Z" fill="#FF6F3D"/>
<path d="M30.7723 36.7395L30.752 36.7501L30.7021 36.7759L30.9833 37.2252L31.12 37.3007L31.1236 37.2994L30.7723 36.7395Z" fill="#FF6F3D"/>
<path d="M31.5229 36.3455L31.4961 36.3589L31.5229 36.3455Z" fill="#FF6F3D"/>
<path d="M31.562 36.5581L31.6097 36.4853L31.5223 36.3455L31.4962 36.3587L31.4521 36.3819L31.562 36.5581Z" fill="#FF6F3D"/>
<path d="M31.582 36.5889L31.8032 36.942L31.8734 36.9056L31.6565 36.5591L31.6225 36.6114L31.582 36.5889Z" fill="#FF6F3D"/>
<path d="M32.5255 36.3567L32.3823 36.2778L32.5291 36.5124L32.5768 36.4395L32.5255 36.3567Z" fill="#FF6F3D"/>
<path d="M22.3692 30.7352L22.2998 30.6968L22.3692 30.7352Z" fill="#BE1E2D"/>
<path d="M22.5016 30.6999L22.1357 31.2551L22.2054 31.2937L22.5712 30.7386L22.5016 30.6999Z" fill="#BE1E2D"/>
<path d="M23.0557 31.1153L22.9863 31.0769L23.0557 31.1153Z" fill="#BE1E2D"/>
<path d="M22.9854 31.0746L22.6216 31.6272L22.6909 31.6656L23.0546 31.1131L22.9854 31.0746Z" fill="#BE1E2D"/>
<path d="M23.7422 31.4955L23.6729 31.457L23.7422 31.4955Z" fill="#BE1E2D"/>
<path d="M23.8824 31.4548L23.5166 32.01L23.5862 32.0486L23.952 31.4934L23.8824 31.4548Z" fill="#BE1E2D"/>
<path d="M24.4321 31.8767L24.4287 31.875L24.4321 31.8767Z" fill="#BE1E2D"/>
<path d="M23.9961 32.3897L24.0655 32.4282L24.4298 31.8756L24.4284 31.8749L24.3604 31.8372L23.9961 32.3897Z" fill="#BE1E2D"/>
<path d="M24.6831 32.7697L24.7525 32.8081L25.1168 32.2555L25.0474 32.2178L24.6831 32.7697Z" fill="#BE1E2D"/>
<path d="M25.8038 32.6366L25.7344 32.5981L25.8038 32.6366Z" fill="#BE1E2D"/>
<path d="M25.7344 32.5961L25.3706 33.1487L25.4399 33.1871L25.8037 32.6345L25.7344 32.5961Z" fill="#BE1E2D"/>
<path d="M26.4903 33.0165L26.4209 32.978L26.4903 33.0165Z" fill="#BE1E2D"/>
<path d="M26.4209 32.9755L26.0571 33.5281L26.1264 33.5665L26.4902 33.0139L26.4209 32.9755Z" fill="#BE1E2D"/>
<path d="M27.1777 33.3975L27.1401 33.3762L27.1777 33.3975Z" fill="#BE1E2D"/>
<path d="M26.7441 33.9107L26.8135 33.9492L27.1779 33.3966L27.1403 33.376L27.1085 33.3582L26.7441 33.9107Z" fill="#BE1E2D"/>
<path d="M28.0299 33.7703L27.6641 34.3254L27.7337 34.3641L28.0995 33.8089L28.0299 33.7703Z" fill="#BE1E2D"/>
<path d="M28.7213 34.1477L28.3555 34.7029L28.4251 34.7415L28.7909 34.1863L28.7213 34.1477Z" fill="#BE1E2D"/>
<path d="M29.2383 34.537L29.1689 34.4985L29.2383 34.537Z" fill="#BE1E2D"/>
<path d="M29.168 34.4968L28.8042 35.0493L28.8735 35.0877L29.2373 34.5352L29.168 34.4968Z" fill="#BE1E2D"/>
<path d="M29.9254 34.9173L29.856 34.8789L29.9254 34.9173Z" fill="#BE1E2D"/>
<path d="M29.8545 34.8762L29.4907 35.4287L29.56 35.4671L29.9238 34.9146L29.8545 34.8762Z" fill="#BE1E2D"/>
<path d="M30.5415 35.2565L30.1777 35.8091L30.247 35.8475L30.6108 35.2949L30.5415 35.2565Z" fill="#BE1E2D"/>
<path d="M31.299 35.6783L31.2296 35.6399L30.8652 36.1925L30.9346 36.2309L31.299 35.6783Z" fill="#BE1E2D"/>
<path d="M31.9854 36.0582L31.916 36.0198L31.9854 36.0582Z" fill="#BE1E2D"/>
<path d="M31.9424 36.1245L31.9858 36.0582L31.9164 36.0198L31.7979 36.2L31.9424 36.1245Z" fill="#BE1E2D"/>
<path d="M31.6556 36.5585L31.9419 36.1245L31.7973 36.2L31.6094 36.4849L31.6556 36.5585Z" fill="#BE1E2D"/>
<path d="M31.5518 36.5729L31.5814 36.5888L31.5619 36.5583L31.5518 36.5729Z" fill="#BE1E2D"/>
<path d="M31.562 36.5585L31.5815 36.589L31.622 36.6115L31.656 36.5591L31.6097 36.4856L31.562 36.5585Z" fill="#BE1E2D"/>
<path d="M32.6035 36.3999L32.6729 36.4383L32.6035 36.3999Z" fill="#BE1E2D"/>
<path d="M32.5768 36.4397L32.6224 36.5112L32.5523 36.5483L32.5291 36.5125L32.2393 36.9525L32.3087 36.9909L32.673 36.4383L32.6036 36.3999L32.5768 36.4397Z" fill="#BE1E2D"/>
<path d="M32.6225 36.5113L32.577 36.4397L32.5293 36.5126L32.5524 36.5484L32.6225 36.5113Z" fill="#BE1E2D"/>
<path d="M33.3608 36.8197L33.3311 36.8025L33.3608 36.8197Z" fill="#BE1E2D"/>
<path d="M32.9952 37.3716L33.0971 37.2166L32.9525 37.2927L32.9258 37.3332L32.9952 37.3716Z" fill="#BE1E2D"/>
<path d="M33.3601 36.8182L33.3312 36.8023L33.2907 36.7798L32.9531 37.2919L33.0977 37.2157L33.3601 36.8182Z" fill="#BE1E2D"/>
<path d="M34.0467 37.1996L34.0303 37.1897L34.0467 37.1996Z" fill="#BE1E2D"/>
<path d="M33.6128 37.7127L33.6822 37.7511L34.0465 37.1986L34.0306 37.19L33.9771 37.1602L33.6128 37.7127Z" fill="#BE1E2D"/>
<path d="M34.9395 37.5629L34.5737 38.1182L34.6433 38.1568L35.0092 37.6016L34.9395 37.5629Z" fill="#BE1E2D"/>
<path d="M35.421 37.9586L35.3516 37.9202L35.421 37.9586Z" fill="#BE1E2D"/>
<path d="M35.6217 37.8948L35.2559 38.45L35.3255 38.4886L35.6913 37.9334L35.6217 37.8948Z" fill="#BE1E2D"/>
<path d="M36.1075 38.3394L36.0425 38.303L36.1075 38.3394Z" fill="#BE1E2D"/>
<path d="M35.6738 38.8536L35.7432 38.8914L36.1076 38.3395L36.0425 38.303L36.0382 38.301L35.6738 38.8536Z" fill="#BE1E2D"/>
<path d="M36.7256 38.684L36.3623 39.2368L36.4316 39.2752L36.7949 38.7223L36.7256 38.684Z" fill="#BE1E2D"/>
<path d="M37.4111 39.0622L37.0479 39.615L37.1172 39.6533L37.4804 39.1005L37.4111 39.0622Z" fill="#BE1E2D"/>
<path d="M38.0986 39.444L37.7354 39.9968L37.8047 40.0352L38.1679 39.4823L38.0986 39.444Z" fill="#BE1E2D"/>
<path d="M38.8551 39.86L38.7856 39.8215L38.8551 39.86Z" fill="#BE1E2D"/>
<path d="M39.0758 39.789L38.71 40.3442L38.7796 40.3829L39.1454 39.8277L39.0758 39.789Z" fill="#BE1E2D"/>
<path d="M39.5426 40.2404L39.521 40.229L39.5426 40.2404Z" fill="#BE1E2D"/>
<path d="M39.1084 40.7542L39.1778 40.7927L39.5421 40.2401L39.5212 40.2288L39.4727 40.2017L39.1084 40.7542Z" fill="#BE1E2D"/>
<path d="M40.2308 40.6208L40.2266 40.6189L40.2308 40.6208Z" fill="#BE1E2D"/>
<path d="M39.7949 41.135L39.865 41.1728L40.2294 40.6202L40.2265 40.6189L40.1592 40.5818L39.7949 41.135Z" fill="#BE1E2D"/>
<path d="M40.9171 41.0011L40.8955 40.989L40.9171 41.0011Z" fill="#BE1E2D"/>
<path d="M40.4824 41.5152L40.5518 41.553L40.9162 41.0011L40.8952 40.9892L40.8468 40.9626L40.4824 41.5152Z" fill="#BE1E2D"/>
<path d="M41.6027 41.381L41.5333 41.3425L41.1689 41.8951L41.2383 41.9335L41.6027 41.381Z" fill="#BE1E2D"/>
<path d="M42.29 41.762L42.248 41.738L42.29 41.762Z" fill="#BE1E2D"/>
<path d="M41.856 42.2755L41.9254 42.3139L42.2897 41.7613L42.2478 41.7381L42.2203 41.7229L41.856 42.2755Z" fill="#BE1E2D"/>
<path d="M42.9776 42.1427L42.9619 42.1328L42.9776 42.1427Z" fill="#BE1E2D"/>
<path d="M42.543 42.6556L42.6131 42.694L42.9774 42.1415L42.9622 42.1328L42.9073 42.103L42.543 42.6556Z" fill="#BE1E2D"/>
<path d="M43.6641 42.5221L43.6309 42.5029L43.6641 42.5221Z" fill="#BE1E2D"/>
<path d="M43.23 43.0355L43.2994 43.0739L43.6637 42.5213L43.6305 42.5028L43.5943 42.4829L43.23 43.0355Z" fill="#BE1E2D"/>
<path d="M44.3819 42.9196L44.3716 42.9131L44.3819 42.9196Z" fill="#BE1E2D"/>
<path d="M43.9473 43.4332L44.0167 43.4716L44.381 42.919L44.3716 42.9131L44.3116 42.8806L43.9473 43.4332Z" fill="#BE1E2D"/>
<path d="M61.9983 56.7471L61.295 56.7657V56.6914L61.9983 56.6728C61.9897 56.4287 61.9694 56.1859 61.9391 55.9431L61.2407 56.0214L61.2285 55.9498L61.9268 55.8715C61.9123 55.764 61.8964 55.6572 61.8776 55.5504C61.8538 55.4177 61.8263 55.2884 61.7974 55.1577L61.1077 55.2904L61.0911 55.2174L61.78 55.0847C61.7251 54.8499 61.6617 54.6177 61.5899 54.3882L60.9147 54.5699L60.8916 54.4983L61.5675 54.3178C61.5275 54.1922 61.4848 54.068 61.4395 53.945C61.4019 53.8422 61.3615 53.7414 61.321 53.6399L60.6617 53.8648L60.6335 53.7951L61.2942 53.5696C61.2027 53.3484 61.1032 53.1288 60.9957 52.9108L60.3559 53.1762L60.322 53.1098L60.9624 52.8445C60.8901 52.7045 60.8179 52.5659 60.7456 52.4279C60.7116 52.3662 60.6733 52.3052 60.64 52.2435L60.614 52.2003L59.9952 52.5135L59.9562 52.4471L60.5721 52.1333L60.5533 52.1035L60.5092 52.0332L60.46 51.9562L60.4051 51.8753L60.3494 51.7943C60.3306 51.7678 60.3162 51.7373 60.2822 51.724C60.2229 51.6902 60.1658 51.6577 60.1058 51.6219L59.9497 51.5363L59.2326 51.1383L59.0757 51.054L58.7143 51.6073L58.642 51.5688L59.0034 51.0155L59.0562 51.0447L58.3861 50.6739L58.0246 51.2272L57.9523 51.1887L58.3138 50.6354L58.3405 50.65L57.6957 50.2938L57.3343 50.847L57.262 50.8086L57.6234 50.2553L56.3511 49.5508L55.6282 49.1528L55.2668 49.706L55.1945 49.6676L55.556 49.1143L55.6022 49.1402L54.9386 48.7727L54.5772 49.3259L54.5049 49.2874L54.8663 48.7342L54.8866 48.7455L54.249 48.3925L53.8875 48.9458L53.8152 48.9073L54.1767 48.3541L52.8755 47.6323L52.514 48.1856L52.4418 48.1471L52.8032 47.5938L52.8675 47.629L52.1859 47.2522L51.8244 47.8055L51.7521 47.767L52.1136 47.2137L52.1519 47.2343L51.4962 46.8714L51.1348 47.4247L51.0625 47.3869L51.4239 46.8336L51.4362 46.8402L50.8066 46.4913L50.4451 47.0446L50.3729 47.0061L50.7343 46.4528L50.7661 46.4707L49.4295 45.7311L49.068 46.2843L48.9958 46.2459L49.3572 45.6926L49.4129 45.7238L48.7717 45.349L48.4102 45.9022L48.3379 45.8637L48.6994 45.3105L48.729 45.3271L48.0784 44.9688L47.717 45.5221L47.6447 45.4836L48.0061 44.9304L46.0109 43.8258L45.6495 44.3791L45.5772 44.3406L45.9387 43.7874L45.9864 43.8139L45.3213 43.4457L44.9599 43.999L44.8876 43.9605L45.249 43.4072L45.2707 43.4199L44.8587 43.1917L44.0273 44.4521L55.5111 50.8086L58.3824 52.3974L59.1003 52.7954L59.1241 52.8087L59.1277 52.8153L59.2044 52.942C59.2347 52.9931 59.2651 53.0448 59.294 53.0979C59.5302 53.5211 59.7315 53.9599 59.8962 54.4107C60.061 54.8585 60.1865 55.3177 60.2714 55.7839C60.3439 56.1958 60.3782 56.6125 60.374 57.0297H61.9824C62.0019 56.9369 62.0012 56.842 61.9983 56.7471ZM46.3464 44.7612L46.2741 44.7234L46.6355 44.1701L46.7078 44.2086L46.3464 44.7612ZM47.0331 45.142L46.9608 45.1035L47.3223 44.5503L47.3946 44.5887L47.0331 45.142ZM49.7801 46.6625L49.7078 46.624L50.0692 46.0707L50.1415 46.1092L49.7801 46.6625ZM53.2145 48.5637L53.1422 48.5252L53.5037 47.972L53.576 48.0104L53.2145 48.5637ZM55.9615 50.0842L55.8892 50.0457L56.2507 49.4931L56.3229 49.5309L55.9615 50.0842ZM56.6482 50.4649L56.576 50.4265L56.9374 49.8732L57.0097 49.9117L56.6482 50.4649ZM59.3952 51.9854L59.3229 51.9469L59.6844 51.3937L59.7567 51.4321L59.3952 51.9854Z" fill="#FF6F3D"/>
<path d="M45.3373 43.4484L45.2896 43.4216L45.3373 43.4484Z" fill="#BE1E2D"/>
<path d="M44.9033 43.9617L44.9727 44.0002L45.3371 43.4476L45.2893 43.4218L45.2677 43.4092L44.9033 43.9617Z" fill="#BE1E2D"/>
<path d="M46.0247 43.828L46.0024 43.8159L46.0247 43.828Z" fill="#BE1E2D"/>
<path d="M45.5908 44.3417L45.6602 44.3801L46.0246 43.8276L46.0029 43.8156L45.9552 43.7898L45.5908 44.3417Z" fill="#BE1E2D"/>
<path d="M46.2773 44.7225L46.3467 44.7603L46.7111 44.2077L46.6417 44.1699L46.2773 44.7225Z" fill="#BE1E2D"/>
<path d="M46.9639 45.1029L47.0333 45.1413L47.3976 44.5887L47.3282 44.5503L46.9639 45.1029Z" fill="#BE1E2D"/>
<path d="M48.0848 44.9686L48.019 44.9321L48.0848 44.9686Z" fill="#BE1E2D"/>
<path d="M47.6514 45.4827L47.7208 45.5212L48.0851 44.9686L48.0193 44.9322L48.0157 44.9302L47.6514 45.4827Z" fill="#BE1E2D"/>
<path d="M48.7717 45.3495L48.7319 45.3269L48.7717 45.3495Z" fill="#BE1E2D"/>
<path d="M48.3379 45.8629L48.4073 45.9013L48.7716 45.3487L48.7319 45.3269L48.7022 45.3103L48.3379 45.8629Z" fill="#BE1E2D"/>
<path d="M49.4588 45.7291L49.4453 45.7217L49.4588 45.7291Z" fill="#BE1E2D"/>
<path d="M49.0249 46.243L49.0943 46.2814L49.4586 45.7289L49.4456 45.7216L49.3892 45.6904L49.0249 46.243Z" fill="#BE1E2D"/>
<path d="M49.7119 46.6231L49.7813 46.6616L50.1456 46.109L50.0762 46.0706L49.7119 46.6231Z" fill="#BE1E2D"/>
<path d="M50.8325 46.4898L50.7949 46.4685L50.8325 46.4898Z" fill="#BE1E2D"/>
<path d="M50.3989 47.0033L50.4683 47.0417L50.8327 46.4891L50.7951 46.4686L50.7633 46.4507L50.3989 47.0033Z" fill="#BE1E2D"/>
<path d="M51.5195 46.8693L51.4624 46.8381L51.5195 46.8693Z" fill="#BE1E2D"/>
<path d="M51.0859 47.3835L51.1553 47.4219L51.5197 46.8693L51.4626 46.8382L51.4503 46.8315L51.0859 47.3835Z" fill="#BE1E2D"/>
<path d="M52.2064 47.2507L52.1753 47.2322L52.2064 47.2507Z" fill="#BE1E2D"/>
<path d="M51.7725 47.7643L51.8419 47.8027L52.2062 47.2501L52.1751 47.2322L52.1368 47.2117L51.7725 47.7643Z" fill="#BE1E2D"/>
<path d="M52.8956 47.6315L52.8877 47.627L52.8956 47.6315Z" fill="#BE1E2D"/>
<path d="M52.46 48.1441L52.5294 48.1826L52.8937 47.63L52.8879 47.6267L52.8236 47.5916L52.46 48.1441Z" fill="#BE1E2D"/>
<path d="M53.1465 48.5245L53.2159 48.5629L53.5802 48.0104L53.5108 47.9719L53.1465 48.5245Z" fill="#BE1E2D"/>
<path d="M54.2672 48.3905L54.1978 48.3521L54.2672 48.3905Z" fill="#BE1E2D"/>
<path d="M54.1989 48.3581L53.835 48.9106L53.9042 48.9491L54.2681 48.3966L54.1989 48.3581Z" fill="#BE1E2D"/>
<path d="M54.9539 48.7715L54.9048 48.7434L54.9539 48.7715Z" fill="#BE1E2D"/>
<path d="M54.5205 49.2848L54.5899 49.3232L54.9542 48.7706L54.9051 48.7434L54.8848 48.7322L54.5205 49.2848Z" fill="#BE1E2D"/>
<path d="M55.6417 49.1507L55.6172 49.1379L55.6417 49.1507Z" fill="#BE1E2D"/>
<path d="M55.2075 49.6646L55.2769 49.7031L55.6413 49.1505L55.6174 49.1379L55.5719 49.1121L55.2075 49.6646Z" fill="#BE1E2D"/>
<path d="M55.8945 50.0448L55.9639 50.0833L56.3283 49.5307L56.2589 49.4929L55.8945 50.0448Z" fill="#BE1E2D"/>
<path d="M56.5811 50.4256L56.6505 50.464L57.0148 49.9115L56.9454 49.873L56.5811 50.4256Z" fill="#BE1E2D"/>
<path d="M57.7018 50.2917L57.6338 50.2539L57.7018 50.2917Z" fill="#BE1E2D"/>
<path d="M57.2676 50.8057L57.337 50.8442L57.7013 50.2916L57.6334 50.2538L57.6319 50.2532L57.2676 50.8057Z" fill="#BE1E2D"/>
<path d="M58.3893 50.6726L58.3467 50.6479L58.3893 50.6726Z" fill="#BE1E2D"/>
<path d="M57.9551 51.1859L58.0245 51.2243L58.3888 50.6717L58.3462 50.6479L58.3187 50.6333L57.9551 51.1859Z" fill="#BE1E2D"/>
<path d="M59.0763 51.0519L59.0591 51.0425L59.0763 51.0519Z" fill="#BE1E2D"/>
<path d="M58.6421 51.566L58.7115 51.6044L59.0758 51.0519L59.0592 51.0426L59.0064 51.0134L58.6421 51.566Z" fill="#BE1E2D"/>
<path d="M59.3291 51.9461L59.3985 51.9846L59.7628 51.432L59.6934 51.3936L59.3291 51.9461Z" fill="#BE1E2D"/>
<path d="M60.6113 52.1982L60.5723 52.1333L60.5817 52.1492L60.6113 52.1982Z" fill="#BE1E2D"/>
<path d="M59.9956 52.5116L60.6115 52.1982L60.5818 52.1492L60.5724 52.1333L59.9565 52.4467L59.9956 52.5116Z" fill="#BE1E2D"/>
<path d="M60.9971 52.9112L60.9639 52.845C60.9754 52.8675 60.9856 52.89 60.9971 52.9112Z" fill="#BE1E2D"/>
<path d="M60.3562 53.1762L60.996 52.9112C60.9844 52.8887 60.9743 52.8662 60.9627 52.845L60.3223 53.11L60.3562 53.1762Z" fill="#BE1E2D"/>
<path d="M61.3226 53.6408L61.2944 53.5713C61.3038 53.5945 61.3118 53.6183 61.3212 53.6415L61.3226 53.6408Z" fill="#BE1E2D"/>
<path d="M60.662 53.8637L61.3213 53.6391C61.3119 53.6159 61.3039 53.592 61.2945 53.5688L60.6338 53.7941L60.662 53.8637Z" fill="#BE1E2D"/>
<path d="M61.5901 54.3881L61.5742 54.3384C61.5793 54.355 61.5836 54.3715 61.5887 54.3888L61.5901 54.3881Z" fill="#BE1E2D"/>
<path d="M61.5684 54.3164C61.5684 54.3233 61.5734 54.3301 61.5756 54.337L61.5684 54.3164Z" fill="#BE1E2D"/>
<path d="M60.915 54.5693L61.5902 54.3891C61.5851 54.3719 61.5808 54.3553 61.5757 54.3387C61.5757 54.3321 61.5714 54.3255 61.5685 54.3188L60.8926 54.4991L60.915 54.5693Z" fill="#BE1E2D"/>
<path d="M61.7981 55.1574L61.7808 55.0852L61.7981 55.1574Z" fill="#BE1E2D"/>
<path d="M61.1079 55.2899L61.7976 55.1574L61.7802 55.0852L61.0913 55.2177L61.1079 55.2899Z" fill="#BE1E2D"/>
<path d="M61.9383 55.9449L61.9282 55.8713C61.9318 55.8958 61.9354 55.9204 61.9383 55.9449Z" fill="#BE1E2D"/>
<path d="M61.2386 56.0231L61.937 55.9449C61.937 55.9204 61.9304 55.8959 61.9268 55.8713L61.2285 55.9495L61.2386 56.0231Z" fill="#BE1E2D"/>
<path d="M61.2949 56.7654L61.9983 56.7468V56.6726L61.2949 56.6912V56.7654Z" fill="#BE1E2D"/>
<path d="M61.3203 30.0144H59.624L53.1816 20.1531V30.0144H51.4854V17.2175H53.1816L59.6416 27.1228V17.2175H61.3203V30.0144ZM72.5411 24.0291C72.5411 25.283 72.3302 26.3787 71.9083 27.3162C71.4864 28.2478 70.8888 28.9597 70.1154 29.4519C69.3419 29.9441 68.4396 30.1902 67.4083 30.1902C66.4005 30.1902 65.507 29.9441 64.7277 29.4519C63.9484 28.9539 63.3419 28.2478 62.9083 27.3337C62.4806 26.4138 62.2609 25.3503 62.2491 24.1433V23.2205C62.2491 21.99 62.463 20.9031 62.8907 19.9597C63.3185 19.0164 63.922 18.2957 64.7013 17.7976C65.4864 17.2937 66.3829 17.0417 67.3907 17.0417C68.4161 17.0417 69.3185 17.2908 70.0978 17.7888C70.8829 18.281 71.4864 18.9988 71.9083 19.9421C72.3302 20.8796 72.5411 21.9724 72.5411 23.2205V24.0291ZM70.8624 23.2029C70.8624 21.6853 70.5577 20.5222 69.9484 19.7136C69.339 18.8992 68.4864 18.4919 67.3907 18.4919C66.3243 18.4919 65.4835 18.8992 64.8683 19.7136C64.2589 20.5222 63.9454 21.6472 63.9279 23.0886V24.0291C63.9279 25.4998 64.2355 26.657 64.8507 27.5007C65.4718 28.3386 66.3243 28.7576 67.4083 28.7576C68.4982 28.7576 69.3419 28.3621 69.9396 27.571C70.5372 26.7742 70.8448 25.6345 70.8624 24.1521V23.2029Z" fill="#FB6A3C"/>
<path d="M76.5227 30.0144V23.5955H75.3538V22.6179H76.5227V21.8591C76.5227 21.0662 76.7346 20.4532 77.1584 20.0203C77.5823 19.5873 78.1815 19.3708 78.9563 19.3708C79.248 19.3708 79.5373 19.4096 79.8245 19.4871L79.7561 20.5125C79.5419 20.4714 79.314 20.4509 79.0725 20.4509C78.6623 20.4509 78.3456 20.5717 78.1223 20.8132C77.899 21.0502 77.7873 21.392 77.7873 21.8386V22.6179H79.3664V23.5955H77.7873V30.0144H76.5227ZM85.3342 30.0144C85.2613 29.8686 85.2021 29.6088 85.1565 29.2351C84.5686 29.8458 83.8668 30.1511 83.051 30.1511C82.3218 30.1511 81.7226 29.946 81.2532 29.5359C80.7883 29.1212 80.5559 28.5971 80.5559 27.9636C80.5559 27.1934 80.8476 26.5964 81.4309 26.1726C82.0188 25.7442 82.8437 25.53 83.9055 25.53H85.136V24.949C85.136 24.5069 85.0038 24.156 84.7395 23.8962C84.4752 23.6319 84.0855 23.4998 83.5705 23.4998C83.1194 23.4998 82.7411 23.6137 82.4358 23.8416C82.1304 24.0694 81.9778 24.3451 81.9778 24.6687H80.7063C80.7063 24.2996 80.8362 23.9441 81.0959 23.6023C81.3603 23.2559 81.7157 22.9825 82.1623 22.782C82.6135 22.5815 83.108 22.4812 83.6457 22.4812C84.498 22.4812 85.1656 22.6954 85.6487 23.1238C86.1317 23.5476 86.3824 24.1332 86.4006 24.8806V28.2849C86.4006 28.9639 86.4872 29.504 86.6604 29.905V30.0144H85.3342ZM83.2356 29.0505C83.6321 29.0505 84.008 28.948 84.3635 28.7429C84.719 28.5378 84.9765 28.2712 85.136 27.9431V26.4255H84.1448C82.5953 26.4255 81.8205 26.879 81.8205 27.7859C81.8205 28.1824 81.9527 28.4923 82.217 28.7156C82.4814 28.9389 82.8209 29.0505 83.2356 29.0505ZM90.0989 20.8269V22.6179H91.4797V23.5955H90.0989V28.1824C90.0989 28.4786 90.1604 28.7019 90.2834 28.8523C90.4065 28.9981 90.6161 29.071 90.9123 29.071C91.0582 29.071 91.2587 29.0437 91.5139 28.989V30.0144C91.1812 30.1056 90.8577 30.1511 90.5432 30.1511C89.9781 30.1511 89.552 29.9802 89.2649 29.6384C88.9778 29.2966 88.8342 28.8113 88.8342 28.1824V23.5955H87.4875V22.6179H88.8342V20.8269H90.0989Z" fill="#FF6F3D"/>
</svg>
