<svg width="45" height="71" fill="none" xmlns="http://www.w3.org/2000/svg"><path d="M40.833.305H3.5C1.57.305 0 1.877 0 3.81a3.506 3.506 0 003.5 3.504h37.333c1.93 0 3.5-1.572 3.5-3.504a3.507 3.507 0 00-3.5-3.505zm0 4.673H3.5a1.169 1.169 0 010-2.337h37.333a1.169 1.169 0 010 2.337zm0 58.405H3.5c-1.93 0-3.5 1.572-3.5 3.505a3.506 3.506 0 003.5 3.504h37.333c1.93 0 3.5-1.572 3.5-3.504a3.507 3.507 0 00-3.5-3.505zm0 4.672H3.5a1.168 1.168 0 010-2.336h37.333a1.169 1.169 0 010 2.337z" fill="#FF6F3D"/><path d="M30.48 31.012c5.924-5.931 9.186-13.817 9.186-22.204V6.146c0-.646-.522-1.168-1.166-1.168H5.833c-.644 0-1.167.522-1.167 1.168v2.662c0 8.388 3.262 16.273 9.186 22.204l1.172 1.174a4.505 4.505 0 011.31 3.162c0 1.178-.478 2.33-1.309 3.162l-1.172 1.174C7.928 45.616 4.667 53.501 4.667 61.89v2.662c0 .646.522 1.168 1.166 1.168H38.5c.644 0 1.166-.522 1.166-1.168V61.89c0-8.387-3.262-16.273-9.186-22.205l-1.172-1.174A4.444 4.444 0 0128 35.348c0-1.195.464-2.317 1.308-3.162l1.172-1.174zm-2.822-.477a6.763 6.763 0 00-1.992 4.813c0 1.82.707 3.53 1.992 4.814l1.172 1.174c5.484 5.49 8.503 12.79 8.503 20.553v1.494H7v-1.494c0-7.764 3.02-15.063 8.501-20.553l1.173-1.174a6.76 6.76 0 001.992-4.814 6.765 6.765 0 00-1.99-4.813l-1.173-1.174C10.019 23.87 7 16.57 7 8.808V7.314h30.333v1.494c0 7.763-3.019 15.062-8.502 20.553l-1.173 1.174z" fill="#FF6F3D"/><path d="M32.026 19.984c-.118-.296-.52-.99-1.693-.99-6.062 0-8.763-1.3-9.834-2.075a4.981 4.981 0 00-4.589-.676 4.602 4.602 0 00-2.949 3.171c-.105.39-.124.641-.124.641-.017.23.033.48.146.681 1.093 1.94 2.355 3.987 4.17 5.805l1.171 1.174A9.082 9.082 0 0121 34.18a1.167 1.167 0 102.334 0 9.09 9.09 0 012.674-6.465l1.173-1.175a53.59 53.59 0 011.077-1.03c3.016-2.84 4.284-4.222 3.769-5.526zm-5.37 3.824c-.43.407-.825.779-1.126 1.08l-1.174 1.175a11.475 11.475 0 00-2.191 3.058 11.473 11.473 0 00-2.191-3.058l-1.171-1.174c-1.433-1.435-2.482-3.016-3.573-4.921.288-.975 1.035-1.373 1.459-1.523a2.651 2.651 0 012.441.367c1.487 1.077 4.417 2.346 10.032 2.503-.721.813-1.853 1.88-2.505 2.493zm8.264 35.98c-.293-3.787-1.81-5.36-3.565-7.182-.236-.247-.484-.502-.737-.773a7.802 7.802 0 00-5.68-2.467h-5.543c-2.145 0-4.215.9-5.68 2.467-.254.27-.5.525-.737.772-1.756 1.822-3.273 3.396-3.564 7.184a1.17 1.17 0 001.163 1.258h23.18a1.167 1.167 0 001.163-1.26zM11.905 58.71c.395-2.04 1.338-3.016 2.752-4.483.245-.255.5-.52.76-.8a5.458 5.458 0 013.977-1.726h5.543a5.47 5.47 0 013.977 1.725c.262.283.517.546.763.802 1.412 1.467 2.354 2.443 2.75 4.482h-20.52zm10.226-21.025c-.643 0-1.166.522-1.166 1.168v1.168a1.167 1.167 0 102.333 0v-1.168c0-.646-.523-1.168-1.166-1.168zm0 5.84c-.643 0-1.166.522-1.166 1.168v1.168a1.167 1.167 0 102.333 0v-1.168c0-.646-.523-1.168-1.166-1.168z" fill="#FF6F3D"/></svg>