<svg width="70" height="70" fill="none" xmlns="http://www.w3.org/2000/svg"><path d="M42.916 51.502c5.647-9.365 12.783-22.531 12.783-29.299 0-11.416-9.283-20.7-20.699-20.7-11.416 0-20.7 9.284-20.7 20.7 0 6.768 7.137 19.934 12.784 29.299-6.7.506-21.943 2.324-21.943 8.353 0 5.934 15.476 8.641 29.873 8.641 14.383 0 29.873-2.707 29.873-8.64-.014-6.03-15.272-7.848-21.971-8.354zM17.158 22.203C17.158 12.36 25.17 4.348 35 4.348c9.844 0 17.855 8.011 17.855 17.855 0 8.6-13.699 30.174-17.855 36.518-4.156-6.344-17.842-27.918-17.842-36.518zM35 65.64c-17.486 0-27.016-3.828-27.016-5.797 0-1.518 6.29-4.785 20.782-5.62 2.72 4.39 4.785 7.493 5.058 7.862.37.492 1.45 1.08 2.366 0 .287-.342 2.337-3.473 5.058-7.861 14.492.834 20.781 4.087 20.781 5.619-.013 1.982-9.543 5.797-27.029 5.797z" fill="#FF6F3D"/><path d="M44.01 22.203a9.009 9.009 0 00-9.01-9.01 9.009 9.009 0 00-9.01 9.01 9.009 9.009 0 009.01 9.01 9.009 9.009 0 009.01-9.01zm-15.176 0A6.167 6.167 0 0135 16.037a6.167 6.167 0 016.166 6.166A6.167 6.167 0 0135 28.37a6.167 6.167 0 01-6.166-6.166z" fill="#FF6F3D"/></svg>