<svg width="70" height="70" fill="none" xmlns="http://www.w3.org/2000/svg"><g clip-path="url(#clip0)" fill="#FF6F3D"><path d="M38.547 22.759h6.298c.755 0 1.367-.612 1.367-1.367v-6.31c0-.754-.612-1.366-1.367-1.366h-6.298c-.755 0-1.367.612-1.367 1.367v6.309c0 .755.612 1.367 1.367 1.367zm1.367-6.309h3.564v3.575h-3.564V16.45zm-13.772 6.309h6.298c.755 0 1.367-.612 1.367-1.367v-6.31c0-.754-.612-1.366-1.367-1.366h-6.298c-.755 0-1.367.612-1.367 1.367v6.309c0 .755.612 1.367 1.367 1.367zm1.367-6.309h3.564v3.575H27.51V16.45zm11.038 20.197h6.298c.755 0 1.367-.613 1.367-1.368v-6.308c0-.755-.612-1.367-1.367-1.367h-6.298c-.755 0-1.367.612-1.367 1.367v6.308c0 .755.612 1.367 1.367 1.367zm1.367-6.31h3.564v3.575h-3.564v-3.574zm-13.772 6.31h6.298c.755 0 1.367-.613 1.367-1.368v-6.308c0-.755-.612-1.367-1.367-1.367h-6.298c-.755 0-1.367.612-1.367 1.367v6.308c0 .755.612 1.367 1.367 1.367zm1.367-6.31h3.564v3.575H27.51v-3.574zm11.038 20.197h6.298c.755 0 1.367-.612 1.367-1.367v-6.309c0-.755-.612-1.367-1.367-1.367h-6.298c-.755 0-1.367.612-1.367 1.367v6.309c0 .755.612 1.367 1.367 1.367zm1.367-6.309h3.564V47.8h-3.564v-3.575zm-7.474 6.309c.755 0 1.367-.612 1.367-1.367v-6.309c0-.755-.612-1.367-1.367-1.367h-6.298c-.755 0-1.367.612-1.367 1.367v6.309c0 .755.612 1.367 1.367 1.367h6.298zm-4.93-6.309h3.563V47.8H27.51v-3.575z"/><path d="M63.43 67.266h-1.27V25.969c0-.755-.613-1.367-1.368-1.367h-8.907V7.65c0-.755-.612-1.367-1.367-1.367h-2.913V1.367C47.605.612 46.993 0 46.238 0H24.75c-.756 0-1.367.612-1.367 1.367v4.916H20.47c-.755 0-1.367.612-1.367 1.367v26.313H11.6c-.755 0-1.367.612-1.367 1.368v31.935H6.569a1.367 1.367 0 100 2.734h56.862a1.367 1.367 0 100-2.734zM26.118 2.734H44.87v3.55H26.117v-3.55zm-13.15 33.964h6.134v30.568h-6.134V36.698zm8.869-27.68H49.15v58.248h-6.806v-9.02c0-.756-.612-1.368-1.367-1.368H30.01c-.755 0-1.367.612-1.367 1.367v9.02h-6.806V9.019zm9.54 58.248v-7.654h8.233v7.654h-8.233zm20.508 0v-39.93h7.54v39.93h-7.54z"/></g><defs><clipPath id="clip0"><path fill="#fff" d="M0 0h70v70H0z"/></clipPath></defs></svg>