<svg width="70" height="70" fill="none" xmlns="http://www.w3.org/2000/svg"><g clip-path="url(#clip0)"><path d="M65.918 15.165H61.25c-.644 0-1.167.522-1.167 1.166v1.167c0-.644-.522-1.167-1.166-1.167h-3.5a1.167 1.167 0 00-1.167 1.09l-.08 1.244h-2.254V16.33c0-.644-.522-1.166-1.166-1.166h-4.667c-.645 0-1.167.522-1.167 1.166v7c0 .645.523 1.167 1.167 1.167h4.667c.644 0 1.166-.522 1.166-1.166v-2.334h2.1l-.637 9.545a2.323 2.323 0 01-2.326 2.122H43.75v-.5a1.167 1.167 0 00-.667-1.05 18.783 18.783 0 00-4.977-1.529 1.161 1.161 0 00-.556.056c-.642-.195-1.3-.334-1.967-.415v-3.183a9.717 9.717 0 001.004-.591c3.92-2.743 7.163-5.498 7.163-11.426V12.83a12.881 12.881 0 00-4.059-9.365A12.95 12.95 0 0023.223 2.5a9.323 9.323 0 00-10.974 9.164v17.5c0 .645.523 1.167 1.167 1.167a17.293 17.293 0 0011.977-4.792c.277.183.563.35.857.504v3.183c-.667.079-1.326.216-1.968.41a1.158 1.158 0 00-.555-.055 18.78 18.78 0 00-4.977 1.528c-.406.192-.666.6-.667 1.05v.039a27.673 27.673 0 00-7 17.967c0 3.2.152 6.884 1.1 9.334H9.916v-2.334c0-.644-.523-1.166-1.167-1.166H4.082c-.644 0-1.166.522-1.166 1.166v7c0 .645.522 1.167 1.166 1.167H8.75c.644 0 1.167-.522 1.167-1.166v-2.334h6.67A17.851 17.851 0 0014.583 70h2.333a15.479 15.479 0 011.167-5.85v.016c0 .645.522 1.167 1.167 1.167h4.666c.645 0 1.167-.522 1.167-1.166V59.5H39.69l.672.84A15.518 15.518 0 0143.75 70h2.334a17.86 17.86 0 00-3.9-11.118l-.893-1.115-.448-1.344a14.56 14.56 0 01.293-9.998l.065-.163a3.645 3.645 0 002.55-3.271v-.048l12.645-2.71a4.692 4.692 0 003.688-4.563V23.332c0 .644.523 1.166 1.167 1.166h4.667c.644 0 1.167-.522 1.167-1.166v-7c0-.645-.523-1.167-1.167-1.167zm-16.334 7H47.25v-4.667h2.334v4.667zM7.582 63H5.25v-4.667h2.333V63zm9.041-3.993l.082.496h-1.937c-.666-.927-1.352-3.338-1.352-9.337a25.881 25.881 0 014.667-14.345v7.086c-1.54 3.486-2.05 12.556-1.46 16.1zM30.217 2.353a10.487 10.487 0 0111.107 9.127l-6.386-3.193a1.157 1.157 0 00-.724-.105l-13.555 2.392a10.356 10.356 0 019.558-8.221zM14.583 27.954v-16.29a7.007 7.007 0 016.353-6.967 12.834 12.834 0 00-2.853 8.134v1.196c0 5.005 2.316 7.746 5.395 10.13a14.963 14.963 0 01-8.895 3.797zm5.833-13.927v-1.04l13.824-2.44 7.171 3.585c-.034 4.345-2.018 6.508-6.161 9.41a7.583 7.583 0 01-8.667 0c-4.178-2.927-6.167-5.095-6.167-9.515zm4.667 17.788a8.883 8.883 0 012.333-.316c.645 0 1.167-.523 1.167-1.167v-3.403a9.073 9.073 0 004.667 0v3.403c0 .644.522 1.167 1.167 1.167a8.883 8.883 0 012.333.316v1.866l-5.833 1.255-5.834-1.255v-1.866zM18.735 56.13c-.072-3.488.23-6.974.9-10.399.303.21.63.385.975.52a14.443 14.443 0 01.143 9.747H19.25a1.14 1.14 0 00-.515.132zM22.75 63h-2.334v-4.667h2.334V63zm2.333-5.834c0-.644-.522-1.166-1.167-1.166h-.7a16.775 16.775 0 000-9.334H38.57a16.902 16.902 0 00.06 10.5H25.083zm16.334-14.175c0 .633-.998 1.341-2.333 1.341H22.75c-1.336 0-2.334-.708-2.334-1.341V32.924a16.184 16.184 0 012.334-.762v2.466c0 .55.384 1.025.921 1.14l7 1.507c.162.035.33.035.49 0l7-1.506c.539-.116.923-.591.923-1.141V32.16c.795.195 1.576.45 2.333.762V42.99zm14.49-5.04L43.75 40.557V35h7.304a4.652 4.652 0 004.65-4.273l.806-12.061h1.24V35.67a2.345 2.345 0 01-1.844 2.282zm8.844-15.786h-2.333v-4.667h2.333v4.667z" fill="#FF6F3D"/></g><defs><clipPath id="clip0"><path fill="#fff" d="M0 0h70v70H0z"/></clipPath></defs></svg>