<svg width="30" height="31" fill="none" xmlns="http://www.w3.org/2000/svg"><path d="M19.26 8.157h-2.599c-3.31-.03-3.733 1.852-3.733 3.89v1.48h-1.462a.47.47 0 00-.196.018.442.442 0 00-.167.096.394.394 0 00-.104.154.368.368 0 00-.02.18v2.685a.368.368 0 00.02.18c.02.059.056.111.104.155a.44.44 0 00.167.095.47.47 0 00.197.018h1.46v6.713a.371.371 0 00.022.18.39.39 0 00.105.154.445.445 0 00.167.095c.063.02.13.026.197.018h2.976c.288.03.52-.183.429-.447l.002-6.713h2.435a.47.47 0 00.364-.113.395.395 0 00.104-.154.368.368 0 00.02-.18v-2.686a.368.368 0 00-.02-.18.395.395 0 00-.104-.154.47.47 0 00-.364-.113h-2.438l.003-1.343c.094-.572.094-.479.672-.447h1.743c.135-.028.28-.013.38-.103.102-.09.16-.214.126-.345V8.605a.367.367 0 00-.018-.18.394.394 0 00-.104-.155.47.47 0 00-.364-.113zm-.521 2.635l-1.222-.043c-1.513 0-1.64.755-1.64 1.527l-.003 1.697a.475.475 0 00.152.338c.048.045.106.08.169.105a.56.56 0 00.2.036h2.378v1.73h-2.377c-.138 0-.27.05-.368.14a.46.46 0 00-.153.337l-.001 6.714h-1.972V16.66a.468.468 0 00-.484-.478h-1.464v-1.729h1.464a.562.562 0 00.368-.14c.098-.09.115-.212.115-.339v-1.929c0-2.006.441-2.962 2.759-2.962h2.078v1.71h.001z" fill="#FF6F3D"/><path d="M15.007 30.865a14.986 14.986 0 01-8.336-2.528 15.014 15.014 0 01-5.528-6.74 15.036 15.036 0 013.25-16.37 14.983 14.983 0 0116.35-3.254 15.004 15.004 0 016.732 5.534A15.032 15.032 0 0130 15.854a15.043 15.043 0 01-4.398 10.608 15.005 15.005 0 01-10.595 4.403zm0-29.026c-2.768 0-5.475.822-7.777 2.362a14.012 14.012 0 00-5.155 6.29 14.031 14.031 0 003.034 15.273 13.993 13.993 0 0015.255 3.038 14.002 14.002 0 006.282-5.162 14.027 14.027 0 002.36-7.786A14.038 14.038 0 0024.9 5.948a14.004 14.004 0 00-9.894-4.11z" fill="#fff"/></svg>