<svg width="30" height="31" fill="none" xmlns="http://www.w3.org/2000/svg"><path d="M15.007 30.865a14.986 14.986 0 01-8.336-2.528 15.014 15.014 0 01-5.528-6.74 15.036 15.036 0 013.25-16.37 14.983 14.983 0 0116.35-3.254 15.004 15.004 0 016.732 5.534A15.032 15.032 0 0130 15.854a15.043 15.043 0 01-4.398 10.608 15.005 15.005 0 01-10.595 4.403zm0-29.026c-2.768 0-5.475.822-7.777 2.362a14.012 14.012 0 00-5.155 6.29 14.031 14.031 0 003.034 15.273 13.993 13.993 0 0015.255 3.038 14.002 14.002 0 006.282-5.162 14.027 14.027 0 002.36-7.786A14.038 14.038 0 0024.9 5.948a14.004 14.004 0 00-9.894-4.11z" fill="#fff"/><path d="M20.727 11.51c.082-.15.148-.309.2-.471a.392.392 0 00-.571-.457c-.375.223-.781.39-1.205.493a2.79 2.79 0 00-4.486 1.083 2.803 2.803 0 00-.179 1.105 6.453 6.453 0 01-4.196-2.329.393.393 0 00-.641.052 2.796 2.796 0 00-.049 2.726.46.46 0 00-.156.057.417.417 0 00-.193.352c0 .832.37 1.595.965 2.114l-.026.025a.392.392 0 00-.079.38 2.796 2.796 0 001.598 1.732 4.484 4.484 0 01-2.492.425.399.399 0 00-.414.258.393.393 0 00.157.461 7.194 7.194 0 003.892 1.142c4.522 0 7.225-3.677 7.225-7.233v-.12a5.213 5.213 0 001.127-1.216.392.392 0 00-.477-.58zm-1.276 1.285a.392.392 0 00-.163.338c.005.097.007.195.007.292 0 3.17-2.41 6.45-6.442 6.45-.72 0-1.433-.12-2.113-.357a5.172 5.172 0 002.229-1.019.392.392 0 00-.235-.7 2.011 2.011 0 01-1.605-.85c.185-.013.367-.044.543-.091a.391.391 0 00-.026-.762 2.005 2.005 0 01-1.523-1.396c.195.05.394.078.594.084a.403.403 0 00.385-.272.39.39 0 00-.155-.444 2.012 2.012 0 01-.837-2.158 7.228 7.228 0 004.806 2.178.398.398 0 00.32-.14.393.393 0 00.08-.34 2.017 2.017 0 011.011-2.232 2.01 2.01 0 012.415.396.391.391 0 00.362.116c.12-.024.24-.052.358-.084-.053.04-.109.077-.166.11a.391.391 0 00.248.725l.133-.017a4.17 4.17 0 01-.226.173z" fill="#FF6F3D"/></svg>