<svg width="42" height="42" fill="none" xmlns="http://www.w3.org/2000/svg"><path d="M21.413 41.53a20.475 20.475 0 01-11.39-3.455 20.52 20.52 0 01-7.553-9.211A20.553 20.553 0 016.91 6.49a20.468 20.468 0 0122.34-4.447 20.502 20.502 0 019.2 7.563 20.546 20.546 0 013.45 11.407 20.56 20.56 0 01-6.01 14.498 20.5 20.5 0 01-14.477 6.018zm0-39.67c-3.783 0-7.48 1.123-10.626 3.228a19.149 19.149 0 00-7.044 8.596A19.18 19.18 0 007.889 34.56a19.102 19.102 0 0020.844 4.152 19.133 19.133 0 008.584-7.055 19.174 19.174 0 003.223-10.642 19.188 19.188 0 00-5.608-13.538A19.133 19.133 0 0021.413 1.86z" fill="#fff"/><path d="M28.628 16.858a6.555 6.555 0 00-2.65-5.25 6.533 6.533 0 00-10.042 3.054 6.557 6.557 0 00.713 5.839l5.441 9.36 5.432-9.36a6.555 6.555 0 001.107-3.643zm-6.538-3.274a3.245 3.245 0 013.003 2.01 3.257 3.257 0 01-.71 3.547 3.248 3.248 0 01-5.541-2.314 3.236 3.236 0 012.004-3.002 3.224 3.224 0 011.244-.241z" fill="#FF6F3D"/><path d="M25.329 31.914h-6.487v1.026h6.487v-1.026z" fill="#fff"/></svg>