<svg width="30" height="31" fill="none" xmlns="http://www.w3.org/2000/svg"><path d="M20.04 24.271h-9.347a3.37 3.37 0 01-3.376-3.379v-9.359a3.37 3.37 0 013.376-3.38h9.347a3.37 3.37 0 013.375 3.38v9.359a3.37 3.37 0 01-3.375 3.38zM10.693 8.675a2.85 2.85 0 00-2.856 2.86v9.358a2.85 2.85 0 002.856 2.86h9.347a2.85 2.85 0 002.856-2.86v-9.359a2.85 2.85 0 00-2.856-2.86h-9.347z" fill="#FF6F3D"/><path d="M15.366 20.373a4.169 4.169 0 01-4.154-4.16c0-2.287 1.87-4.159 4.154-4.159a4.169 4.169 0 014.154 4.16c0 2.287-1.87 4.159-4.154 4.159zm0-7.799c-2 0-3.635 1.638-3.635 3.64a3.648 3.648 0 003.635 3.64c2 0 3.635-1.639 3.635-3.64a3.648 3.648 0 00-3.635-3.64zm4.666-.254a.765.765 0 01-.78-.779c0-.442.338-.78.78-.78.441 0 .779.338.779.78s-.338.78-.78.78zm0-1.039c-.156 0-.26.104-.26.26 0 .156.104.26.26.26.156 0 .26-.104.26-.26 0-.156-.104-.26-.26-.26z" fill="#FF6F3D"/><path d="M15.007 30.865a14.986 14.986 0 01-8.336-2.528 15.014 15.014 0 01-5.528-6.74 15.036 15.036 0 013.25-16.37 14.983 14.983 0 0116.35-3.254 15.004 15.004 0 016.732 5.534A15.032 15.032 0 0130 15.854a15.043 15.043 0 01-4.398 10.608 15.005 15.005 0 01-10.595 4.403zm0-29.026c-2.768 0-5.475.822-7.777 2.362a14.012 14.012 0 00-5.155 6.29 14.031 14.031 0 003.034 15.273 13.993 13.993 0 0015.255 3.038 14.002 14.002 0 006.282-5.162 14.027 14.027 0 002.36-7.786A14.038 14.038 0 0024.9 5.948a14.004 14.004 0 00-9.894-4.11z" fill="#fff"/></svg>