<svg width="42" height="42" fill="none" xmlns="http://www.w3.org/2000/svg"><path d="M21.413 41.419a20.475 20.475 0 01-11.39-3.456c-3.372-2.254-6-5.46-7.553-9.21A20.553 20.553 0 016.91 6.378a20.468 20.468 0 0122.34-4.447 20.502 20.502 0 019.2 7.564 20.546 20.546 0 013.45 11.407 20.55 20.55 0 01-6.007 14.5 20.49 20.49 0 01-14.48 6.016zm0-39.555a18.992 18.992 0 00-10.565 3.203 19.034 19.034 0 00-7.006 8.543 19.065 19.065 0 004.114 20.752 18.987 18.987 0 0020.72 4.132 19.018 19.018 0 008.535-7.012 19.06 19.06 0 003.204-10.579 19.073 19.073 0 00-5.57-13.454 19.018 19.018 0 00-13.432-5.585z" fill="#fff"/><path d="M27.652 8.197H15.654a1.269 1.269 0 00-1.27 1.272v22.307a1.272 1.272 0 001.27 1.272h11.998a1.27 1.27 0 001.26-1.272V9.47a1.273 1.273 0 00-1.26-1.272zM20.283 9.39h2.85v.48h-2.85v-.48zm-1.75-.08a.32.32 0 01.24.543.32.32 0 01-.549-.223.32.32 0 01.31-.36v.04zm3.1 23.088a1.099 1.099 0 01-1.09-1.31 1.102 1.102 0 011.499-.81 1.1 1.1 0 01.681 1.019 1.102 1.102 0 01-1.09 1.061v.04zm6.339-21.296v19.023h-.3v-.5H15.584v.5h-.3V10.73h.3v.33h12.088v-.33h.3v.37z" fill="#FF6F3D"/><path d="M21.634 32.097a.84.84 0 10-.001-1.681.84.84 0 000 1.681z" fill="#FF6F3D"/><path d="M18.914 21.284a.23.23 0 00.16-.06l3.4-3.405a.234.234 0 00-.33-.33l-3.4 3.404a.24.24 0 000 .33.27.27 0 00.17.06zm5.589-3.034a.24.24 0 00-.33 0l-5.419 5.427a.24.24 0 000 .33.27.27 0 00.17.06.23.23 0 00.16-.06l5.419-5.427a.24.24 0 000-.33z" fill="#fff"/></svg>