<svg width="59" height="59" fill="none" xmlns="http://www.w3.org/2000/svg"><path d="M44.392 44.129c8.005-8.015 8.005-21.01 0-29.025-8.005-8.014-20.984-8.014-28.989 0-8.005 8.015-8.005 21.01 0 29.025 8.005 8.014 20.984 8.014 28.989 0z" stroke="#fff" stroke-width="1.38" stroke-miterlimit="10"/><path d="M37.42 23.948h-.16l-8.119 4.766-8.118-4.766h-.17a.94.94 0 00-.93.941v9.722a.932.932 0 00.93.931H37.42a.928.928 0 00.94-.93v-9.723a.943.943 0 00-.94-.94zm0 1.422l-7.549 4.405-.15.09 7.299 4.266a.25.25 0 01.12.16.259.259 0 010 .21.28.28 0 01-.37.1l-7.509-4.385h-.05l-7.568 4.415a.28.28 0 01-.37-.1.37.37 0 010-.21.26.26 0 01.13-.16l7.019-4.205.15-.09-7.709-4.496a.31.31 0 01-.13-.17.34.34 0 010-.2.269.269 0 01.17-.13.24.24 0 01.2 0l7.988 4.665 7.999-4.656a.24.24 0 01.2 0 .268.268 0 01.17.13.24.24 0 010 .2.27.27 0 01-.04.161z" fill="#FF6F3D"/><path d="M37.26 23.948H21.023l8.119 4.766 8.118-4.766z" fill="#fff"/><path d="M21.023 23.948H37.26l-7.488-4.426a1.289 1.289 0 00-1.26 0l-7.489 4.426z" fill="#FF6F3D"/></svg>