<svg width="10" height="17" fill="none" xmlns="http://www.w3.org/2000/svg"><path d="M9.26.157H6.661c-3.31-.03-3.733 1.852-3.733 3.89v1.48H1.467a.47.47 0 00-.364.114.395.395 0 00-.105.154.368.368 0 00-.019.18V8.66a.368.368 0 00.02.18c.02.059.056.111.104.155a.47.47 0 00.364.113h1.46v6.713a.37.37 0 00.022.18.39.39 0 00.105.154.445.445 0 00.167.095c.064.02.13.026.197.018h2.976c.287.03.52-.183.429-.447l.002-6.713H9.26a.47.47 0 00.364-.113.395.395 0 00.104-.154.368.368 0 00.02-.18V5.974a.368.368 0 00-.02-.18.395.395 0 00-.104-.154.47.47 0 00-.364-.113H6.822l.003-1.343c.094-.572.094-.479.672-.447H9.24c.135-.028.28-.013.38-.103.102-.09.16-.214.126-.345V.605a.367.367 0 00-.018-.18.394.394 0 00-.104-.155.469.469 0 00-.364-.113zm-.52 2.635L7.517 2.75c-1.513 0-1.64.755-1.64 1.527l-.003 1.697a.477.477 0 00.152.339.56.56 0 00.368.14h2.38v1.73H6.395c-.138 0-.27.05-.368.14a.46.46 0 00-.153.337l-.001 6.714H3.902V8.66a.468.468 0 00-.484-.478H1.954V6.453h1.464a.56.56 0 00.368-.14c.098-.09.115-.212.115-.339V4.045c0-2.006.441-2.962 2.759-2.962h2.078v1.71h.001z" fill="#FF6F3D"/></svg>