<svg width="15" height="26" fill="none" xmlns="http://www.w3.org/2000/svg"><path d="M13.652.197H1.655A1.269 1.269 0 00.385 1.47v22.307a1.272 1.272 0 001.27 1.272h11.997a1.27 1.27 0 001.26-1.272V1.47a1.273 1.273 0 00-1.26-1.272zM6.284 1.39h2.849v.48h-2.85v-.48zm-1.75-.08a.32.32 0 11-.31.32.32.32 0 01.31-.36v.04zm3.1 23.088a1.099 1.099 0 01-1.09-1.31 1.102 1.102 0 011.498-.81 1.1 1.1 0 01.681 1.019 1.102 1.102 0 01-1.09 1.061v.04zm6.338-21.296v19.023h-.3v-.5H1.585v.5h-.3V2.73h.3v.33h12.087v-.33h.3v.37z" fill="#FF6F3D"/></svg>