<svg width="14" height="11" fill="none" xmlns="http://www.w3.org/2000/svg"><path d="M12.728 1.51c.08-.15.148-.309.2-.472a.393.393 0 00-.346-.509.391.391 0 00-.226.053c-.375.223-.78.39-1.204.493a2.792 2.792 0 00-4.486 1.083 2.801 2.801 0 00-.18 1.105A6.452 6.452 0 012.29.934a.392.392 0 00-.641.052 2.796 2.796 0 00-.048 2.726.46.46 0 00-.157.057.418.418 0 00-.193.352c0 .832.37 1.595.965 2.114l-.026.025a.391.391 0 00-.079.38A2.796 2.796 0 003.71 8.373a4.484 4.484 0 01-2.492.424.398.398 0 00-.414.258.393.393 0 00.157.461 7.194 7.194 0 003.892 1.142c4.522 0 7.225-3.677 7.225-7.233v-.12a5.215 5.215 0 001.127-1.216.392.392 0 00-.476-.58zM11.45 2.795a.39.39 0 00-.162.338c.004.097.006.195.006.292 0 3.17-2.41 6.45-6.442 6.45-.72 0-1.433-.12-2.112-.357a5.172 5.172 0 002.228-1.019.392.392 0 00-.234-.7 2.012 2.012 0 01-1.606-.85c.185-.013.367-.044.543-.091a.39.39 0 00-.026-.762A2.005 2.005 0 012.123 4.7c.195.05.394.078.594.084a.403.403 0 00.385-.272.39.39 0 00-.155-.444 2.011 2.011 0 01-.836-2.158 7.228 7.228 0 004.806 2.178.398.398 0 00.32-.14.393.393 0 00.08-.34 2.017 2.017 0 011.01-2.232 2.01 2.01 0 012.416.396.392.392 0 00.361.116c.12-.024.24-.052.358-.084-.053.04-.108.077-.165.11a.392.392 0 00.247.724l.133-.016a4.22 4.22 0 01-.226.173z" fill="#FF6F3D"/></svg>