<svg width="45" height="71" viewBox="0 0 45 71" fill="none" xmlns="http://www.w3.org/2000/svg">
<path d="M40.8332 0.305176H3.5C1.57035 0.305176 0 1.87747 0 3.80951C0 5.74155 1.57035 7.31384 3.5 7.31384H40.8334C42.763 7.31384 44.3334 5.74155 44.3334 3.80951C44.3334 1.87747 42.7629 0.305176 40.8332 0.305176ZM40.8332 4.97757H3.5C2.85715 4.97757 2.33338 4.45425 2.33338 3.80951C2.33338 3.16477 2.85715 2.64144 3.5 2.64144H40.8334C41.4762 2.64144 42 3.16477 42 3.80951C42 4.45425 41.4761 4.97757 40.8332 4.97757Z" fill="#FF6F3D"/>
<path d="M40.8332 63.3831H3.5C1.57035 63.3831 0 64.9554 0 66.8875C0 68.8195 1.57035 70.3918 3.5 70.3918H40.8334C42.763 70.3918 44.3334 68.8195 44.3334 66.8875C44.3334 64.9554 42.7629 63.3831 40.8332 63.3831ZM40.8332 68.0555H3.5C2.85715 68.0555 2.33338 67.5322 2.33338 66.8875C2.33338 66.2427 2.85715 65.7194 3.5 65.7194H40.8334C41.4762 65.7194 42 66.2427 42 66.8875C42 67.5322 41.4761 68.0555 40.8332 68.0555Z" fill="#FF6F3D"/>
<path d="M30.4802 31.0123C36.4045 25.0806 39.6665 17.1947 39.6665 8.80766V6.1456C39.6665 5.49963 39.1438 4.97754 38.4999 4.97754H5.83313C5.18918 4.97754 4.6665 5.49963 4.6665 6.1456V8.80766C4.6665 17.1959 7.92848 25.0806 13.8517 31.0123L15.0242 32.1862C15.856 33.019 16.3331 34.1708 16.3331 35.3483C16.3331 36.5258 15.856 37.6776 15.0253 38.5104L13.8528 39.6844C7.92848 45.616 4.6665 53.5008 4.6665 61.889V64.5511C4.6665 65.197 5.18918 65.7191 5.83313 65.7191H38.4997C39.1437 65.7191 39.6664 65.197 39.6664 64.5511V61.889C39.6664 53.502 36.4044 45.616 30.4801 39.6844L29.3076 38.5104C28.464 37.6658 27.9997 36.5434 27.9997 35.3483C27.9997 34.1533 28.464 33.0308 29.3076 32.1862L30.4802 31.0123ZM27.6579 30.5345C26.3735 31.8195 25.6665 33.5284 25.6665 35.3483C25.6665 37.1683 26.3735 38.8772 27.6579 40.1621L28.8305 41.3361C34.3138 46.8262 37.3331 54.1257 37.3331 61.889V63.383H6.99988V61.889C6.99988 54.1246 10.0192 46.8262 15.5013 41.3361L16.6738 40.1621C17.9595 38.8772 18.6665 37.167 18.6665 35.3483C18.6665 33.5296 17.9595 31.8195 16.6751 30.5345L15.5026 29.3606C10.0192 23.8704 6.99988 16.5709 6.99988 8.80766V7.31367H37.3333V8.80766C37.3333 16.571 34.314 23.8704 28.8306 29.3606L27.6579 30.5345Z" fill="#FF6F3D"/>
<path d="M32.0257 19.9843C31.9079 19.6877 31.5066 18.9949 30.3329 18.9949C24.2709 18.9949 21.57 17.6947 20.499 16.9191C19.1631 15.9507 17.4493 15.6972 15.9104 16.2427C14.4416 16.7625 13.3659 17.9189 12.9611 19.4142C12.8561 19.8032 12.8374 20.0555 12.8374 20.0555C12.8199 20.2856 12.8701 20.5344 12.9833 20.7365C14.0765 22.6768 15.3376 24.7232 17.1529 26.5408L18.3242 27.7148C20.0497 29.4401 20.9994 31.7366 20.9994 34.1803C20.9994 34.8263 21.522 35.3484 22.166 35.3484C22.8099 35.3484 23.3326 34.8263 23.3326 34.1803C23.3326 31.7378 24.2822 29.4412 26.0065 27.7148L27.1803 26.5396C27.4685 26.2523 27.844 25.8972 28.2571 25.5094C31.2732 22.6698 32.5414 21.2879 32.0257 19.9843ZM26.6568 23.8076C26.2252 24.2152 25.8307 24.5868 25.5298 24.8881L24.3561 26.0632C23.4496 26.9697 22.7146 28.0023 22.165 29.1213C21.6155 28.0023 20.8805 26.9697 19.974 26.0632L18.8026 24.8893C17.3699 23.4537 16.3211 21.8732 15.2302 19.968C15.5184 18.9927 16.2651 18.5954 16.6886 18.4447C17.5029 18.1561 18.4165 18.2929 19.1304 18.8116C20.6167 19.8886 23.5474 21.1583 29.1615 21.3149C28.4405 22.1278 27.3089 23.1943 26.6568 23.8076Z" fill="#FF6F3D"/>
<path d="M34.9195 59.7876C34.6266 56.0006 33.11 54.4283 31.3554 52.606C31.1186 52.3595 30.8712 52.1038 30.618 51.8327C29.1527 50.2651 27.083 49.3657 24.9375 49.3657H19.3947C17.2504 49.3657 15.1795 50.2652 13.7141 51.8327C13.4609 52.1038 13.2148 52.3584 12.9779 52.6049C11.222 54.4272 9.7054 56.0006 9.41378 59.7889C9.38808 60.1136 9.50005 60.4336 9.72058 60.6732C9.9422 60.9115 10.2515 61.047 10.5768 61.047H33.7561C34.0804 61.047 34.3908 60.9115 34.6124 60.6721C34.8331 60.4325 34.944 60.1112 34.9195 59.7876ZM11.9058 58.7107C12.3013 56.6712 13.244 55.6946 14.6579 54.2275C14.9029 53.9729 15.1572 53.7077 15.4186 53.4284C16.4441 52.3305 17.8931 51.702 19.3947 51.702H24.9375C26.4402 51.702 27.8891 52.3316 28.9147 53.4274C29.1772 53.71 29.4315 53.9729 29.6777 54.2287C31.0905 55.6959 32.032 56.6724 32.4287 58.7107H11.9058Z" fill="#FF6F3D"/>
<path d="M22.1315 37.6846C21.4875 37.6846 20.9648 38.2067 20.9648 38.8527V40.0208C20.9648 40.6667 21.4875 41.1888 22.1315 41.1888C22.7754 41.1888 23.2981 40.6667 23.2981 40.0208V38.8527C23.2981 38.2067 22.7754 37.6846 22.1315 37.6846Z" fill="#FF6F3D"/>
<path d="M22.1315 43.5251C21.4875 43.5251 20.9648 44.0472 20.9648 44.6932V45.8613C20.9648 46.5073 21.4875 47.0294 22.1315 47.0294C22.7754 47.0294 23.2981 46.5073 23.2981 45.8613V44.6932C23.2981 44.0474 22.7754 43.5251 22.1315 43.5251Z" fill="#FF6F3D"/>
</svg>
