<svg width="70" height="70" viewBox="0 0 70 70" fill="none" xmlns="http://www.w3.org/2000/svg">
<g clip-path="url(#clip0)">
<path d="M38.5469 22.7587H44.8451C45.6002 22.7587 46.2123 22.1466 46.2123 21.3915V15.0828C46.2123 14.3277 45.6002 13.7156 44.8451 13.7156H38.5469C37.7918 13.7156 37.1797 14.3277 37.1797 15.0828V21.3915C37.1797 22.1466 37.7918 22.7587 38.5469 22.7587ZM39.9141 16.4501H43.4779V20.0245H39.9141V16.4501Z" fill="#FF6F3D"/>
<path d="M26.1421 22.7587H32.4403C33.1954 22.7587 33.8075 22.1466 33.8075 21.3915V15.0828C33.8075 14.3277 33.1954 13.7156 32.4403 13.7156H26.1421C25.387 13.7156 24.7749 14.3277 24.7749 15.0828V21.3915C24.7749 22.1466 25.387 22.7587 26.1421 22.7587ZM27.5093 16.4501H31.0731V20.0245H27.5093V16.4501Z" fill="#FF6F3D"/>
<path d="M38.5469 36.6465H44.8451C45.6002 36.6465 46.2123 36.0344 46.2123 35.2793V28.9707C46.2123 28.2156 45.6002 27.6035 44.8451 27.6035H38.5469C37.7918 27.6035 37.1797 28.2156 37.1797 28.9707V35.2793C37.1797 36.0343 37.7918 36.6465 38.5469 36.6465ZM39.9141 30.3378H43.4779V33.912H39.9141V30.3378Z" fill="#FF6F3D"/>
<path d="M26.1421 36.6465H32.4403C33.1954 36.6465 33.8075 36.0344 33.8075 35.2793V28.9707C33.8075 28.2156 33.1954 27.6035 32.4403 27.6035H26.1421C25.387 27.6035 24.7749 28.2156 24.7749 28.9707V35.2793C24.7749 36.0343 25.387 36.6465 26.1421 36.6465ZM27.5093 30.3378H31.0731V33.912H27.5093V30.3378Z" fill="#FF6F3D"/>
<path d="M38.5469 50.5341H44.8451C45.6002 50.5341 46.2123 49.922 46.2123 49.1669V42.8582C46.2123 42.1031 45.6002 41.491 44.8451 41.491H38.5469C37.7918 41.491 37.1797 42.1031 37.1797 42.8582V49.1669C37.1797 49.922 37.7918 50.5341 38.5469 50.5341ZM39.9141 44.2255H43.4779V47.7999H39.9141V44.2255Z" fill="#FF6F3D"/>
<path d="M32.4403 50.5341C33.1954 50.5341 33.8075 49.922 33.8075 49.1669V42.8582C33.8075 42.1031 33.1954 41.491 32.4403 41.491H26.1421C25.387 41.491 24.7749 42.1031 24.7749 42.8582V49.1669C24.7749 49.922 25.387 50.5341 26.1421 50.5341H32.4403ZM27.5093 44.2255H31.0731V47.7999H27.5093V44.2255Z" fill="#FF6F3D"/>
<path d="M63.4307 67.2656H62.1595V25.9695C62.1595 25.2144 61.5474 24.6023 60.7923 24.6023H51.8848V7.65037C51.8848 6.89527 51.2727 6.28318 50.5176 6.28318H47.6046V1.36719C47.6046 0.61209 46.9926 0 46.2375 0H24.7496C23.9945 0 23.3825 0.61209 23.3825 1.36719V6.28318H20.4697C19.7146 6.28318 19.1025 6.89527 19.1025 7.65037V33.9634H11.601C10.8459 33.9634 10.2338 34.5755 10.2338 35.3306V67.2656H6.56934C5.81424 67.2656 5.20215 67.8777 5.20215 68.6328C5.20215 69.3879 5.81424 70 6.56934 70H63.4307C64.1858 70 64.7978 69.3879 64.7978 68.6328C64.7978 67.8777 64.1858 67.2656 63.4307 67.2656ZM26.1168 2.73438H44.8701V6.28318H26.1168V2.73438ZM12.9682 36.6978H19.1025V67.2656H12.9682V36.6978ZM21.8369 9.01756H49.1504V67.2656H42.3445V58.2452C42.3445 57.4901 41.7324 56.878 40.9773 56.878H30.0098C29.2547 56.878 28.6426 57.4901 28.6426 58.2452V67.2656H21.8369V9.01756ZM31.3771 67.2656V59.6124H39.6103V67.2656H31.3771ZM51.8848 67.2656V27.3366H59.4251V67.2656H51.8848Z" fill="#FF6F3D"/>
</g>
<defs>
<clipPath id="clip0">
<rect width="70" height="70" fill="white"/>
</clipPath>
</defs>
</svg>
