<svg width="70" height="70" viewBox="0 0 70 70" fill="none" xmlns="http://www.w3.org/2000/svg">
<path d="M42.916 51.502C48.5625 42.1367 55.6992 28.9707 55.6992 22.2031C55.6992 10.7871 46.416 1.50391 35 1.50391C23.584 1.50391 14.3008 10.7871 14.3008 22.2031C14.3008 28.9707 21.4375 42.1367 27.084 51.502C20.3848 52.0078 5.14062 53.8262 5.14062 59.8555C5.14062 65.7891 20.6172 68.4961 35.0137 68.4961C49.3965 68.4961 64.8867 65.7891 64.8867 59.8555C64.8731 53.8262 49.6152 52.0078 42.916 51.502ZM17.1582 22.2031C17.1582 12.3594 25.1699 4.34766 35 4.34766C44.8438 4.34766 52.8555 12.3594 52.8555 22.2031C52.8555 30.8027 39.1563 52.377 35 58.7207C30.8438 52.377 17.1582 30.8027 17.1582 22.2031ZM35 65.6387C17.5137 65.6387 7.98438 61.8105 7.98438 59.8418C7.98438 58.3242 14.2734 55.0566 28.7656 54.2227C31.4863 58.6113 33.5508 61.7148 33.8242 62.084C34.1934 62.5762 35.2734 63.1641 36.1895 62.084C36.4766 61.7422 38.5273 58.6113 41.2481 54.2227C55.7402 55.0566 62.0293 58.3105 62.0293 59.8418C62.0156 61.8242 52.4863 65.6387 35 65.6387Z" fill="#FF6F3D"/>
<path d="M44.0098 22.2031C44.0098 17.2266 39.9766 13.1934 35 13.1934C30.0234 13.1934 25.9902 17.2266 25.9902 22.2031C25.9902 27.1797 30.0234 31.2129 35 31.2129C39.9766 31.2129 44.0098 27.1797 44.0098 22.2031ZM28.834 22.2031C28.834 18.7988 31.5957 16.0371 35 16.0371C38.4043 16.0371 41.166 18.7988 41.166 22.2031C41.166 25.6074 38.4043 28.3691 35 28.3691C31.5957 28.3691 28.834 25.6074 28.834 22.2031Z" fill="#FF6F3D"/>
</svg>
