<svg width="70" height="70" viewBox="0 0 70 70" fill="none" xmlns="http://www.w3.org/2000/svg">
<g clip-path="url(#clip0)">
<path d="M65.9179 15.1646H61.2511C60.6067 15.1646 60.0843 15.687 60.0843 16.3313V17.498C60.0843 16.8537 59.5619 16.3313 58.9176 16.3313H55.4175C54.8021 16.33 54.2915 16.8069 54.2508 17.421L54.1703 18.6648H51.9174V16.3313C51.9174 15.687 51.395 15.1646 50.7507 15.1646H46.0838C45.4395 15.1646 44.9171 15.687 44.9171 16.3313V23.3316C44.9171 23.9759 45.4395 24.4983 46.0838 24.4983H50.7507C51.395 24.4983 51.9174 23.9759 51.9174 23.3316V20.9982H54.0174L53.3804 30.543C53.276 31.7484 52.2639 32.6717 51.054 32.6653H43.7504V32.1648C43.7486 31.7154 43.4891 31.3071 43.083 31.1147C41.503 30.3766 39.8278 29.8623 38.1058 29.5863C37.9189 29.5595 37.7283 29.5788 37.5505 29.6423C36.9082 29.4466 36.25 29.3076 35.5834 29.227V26.0442C35.9294 25.8673 36.2645 25.6697 36.5868 25.4527C40.5069 22.7097 43.7504 19.9551 43.7504 14.0271V12.8312C43.7447 9.28367 42.2763 5.89569 39.6914 3.46602C35.1434 -0.762433 28.234 -1.16728 23.2233 2.50115C18.1557 1.58936 13.3083 4.95839 12.3965 10.0261C12.2992 10.5669 12.2499 11.1151 12.2492 11.6645V29.1651C12.2492 29.8095 12.7716 30.3319 13.4159 30.3319C17.877 30.3394 22.1684 28.6226 25.3934 25.5402C25.67 25.7226 25.9559 25.8908 26.2497 26.0442V29.227C25.583 29.306 24.9244 29.4434 24.2815 29.6377C24.1042 29.5742 23.9138 29.555 23.7273 29.5817C22.0054 29.8576 20.3301 30.372 18.7501 31.1101C18.3441 31.3024 18.0845 31.7108 18.0828 32.1601V32.1986C13.6707 37.1548 11.1863 43.5313 11.0825 50.1659C11.0825 53.3662 11.2353 57.0495 12.1827 59.4996H9.91579V57.1662C9.91579 56.5219 9.3934 55.9995 8.74908 55.9995H4.08224C3.43792 55.9995 2.91553 56.5219 2.91553 57.1662V64.1665C2.91553 64.8108 3.43792 65.3332 4.08224 65.3332H8.74908C9.3934 65.3332 9.91579 64.8108 9.91579 64.1665V61.833H16.5859C15.2773 64.3569 14.5905 67.157 14.5826 70H16.9161C16.922 67.9928 17.3183 66.0061 18.0828 64.1501V64.1665C18.0828 64.8108 18.6052 65.3332 19.2495 65.3332H23.9163C24.5606 65.3332 25.083 64.8108 25.083 64.1665V59.4996H39.6902L40.3623 60.3397C42.5519 63.0838 43.7463 66.4894 43.7504 70H46.0838C46.0787 65.9597 44.7037 62.0404 42.1835 58.8824L41.291 57.7671L40.843 56.423C39.757 53.1604 39.8607 49.6189 41.1358 46.4255L41.2011 46.2621C42.649 45.8086 43.6643 44.5055 43.7504 42.9907V42.9428L56.3964 40.2337C58.5427 39.7634 60.0752 37.8668 60.0843 35.6696V23.3316C60.0843 23.9759 60.6067 24.4983 61.2511 24.4983H65.9179C66.5622 24.4983 67.0846 23.9759 67.0846 23.3316V16.3313C67.0846 15.687 66.5622 15.1646 65.9179 15.1646ZM49.5839 22.1649H47.2505V17.498H49.5839V22.1649ZM7.58237 62.9998H5.24895V58.3329H7.58237V62.9998ZM16.6232 59.0073L16.7049 59.5031H14.7681C14.1019 58.5756 13.4159 56.1652 13.4159 50.1659C13.5126 45.027 15.1373 40.0334 18.0828 35.8212V42.9067C16.5439 46.3928 16.0329 55.4628 16.6232 59.0073ZM30.2166 2.35298C35.7498 1.98021 40.6168 5.97955 41.3236 11.4802L34.9382 8.28687C34.7145 8.17442 34.4602 8.13753 34.2137 8.18186L20.6589 10.5736C21.6178 5.9864 25.5376 2.6149 30.2166 2.35298ZM14.5826 27.9541V11.6645C14.5873 8.05105 17.3388 5.03379 20.9365 4.6969C19.0759 6.99823 18.0677 9.87184 18.0828 12.8312V14.0271C18.0828 19.0323 20.3987 21.7729 23.4776 24.1576C21.0146 26.3728 17.8862 27.7081 14.5826 27.9541ZM20.4162 14.0271V12.9864L34.2405 10.5468L41.4111 14.1321C41.3773 18.4769 39.3927 20.64 35.2497 23.5416C32.6455 25.3548 29.1877 25.3548 26.5834 23.5416C22.4054 20.6155 20.4162 18.4466 20.4162 14.0271ZM25.083 31.8148C25.8434 31.6063 26.628 31.5 27.4164 31.4986C28.0608 31.4986 28.5832 30.9762 28.5832 30.3319V26.9286C30.1121 27.3355 31.721 27.3355 33.25 26.9286V30.3319C33.25 30.9762 33.7724 31.4986 34.4167 31.4986C35.2051 31.5 35.9897 31.6063 36.7501 31.8148V33.6815L30.9166 34.9357L25.083 33.6815V31.8148ZM18.735 56.1313C18.6633 52.6429 18.9649 49.1567 19.6345 45.7324C19.9384 45.9427 20.2657 46.1169 20.6099 46.2516C21.786 49.3861 21.8368 52.8317 20.7534 55.9995H19.2495C19.0699 56.0023 18.8936 56.0475 18.735 56.1313ZM22.7496 62.9998H20.4162V58.3329H22.7496V62.9998ZM25.083 57.1662C25.083 56.5219 24.5606 55.9995 23.9163 55.9995H23.2163C24.0993 52.9509 24.0993 49.7144 23.2163 46.6658H38.5702C37.4747 50.0835 37.4955 53.7612 38.6297 57.1662H25.083ZM41.417 42.9907C41.417 43.6242 40.4194 44.3324 39.0836 44.3324H22.7496C21.4137 44.3324 20.4162 43.6242 20.4162 42.9907V32.9243C21.1735 32.6116 21.9536 32.357 22.7496 32.1624V34.6277C22.7495 35.1778 23.1335 35.6532 23.6713 35.7687L30.6716 37.275C30.833 37.3102 31.0001 37.3102 31.1616 37.275L38.1618 35.7687C38.6997 35.6532 39.0837 35.1778 39.0836 34.6277V32.1613C39.8795 32.3558 40.6596 32.6104 41.417 32.9231V42.9907ZM55.9063 37.9517L43.7504 40.5557V34.9987H51.054C53.4815 35.0061 55.5066 33.1457 55.7045 30.7262L56.5095 18.6648H57.7509V35.6696C57.7467 36.7685 56.98 37.7171 55.9063 37.9517ZM64.7512 22.1649H62.4178V17.498H64.7512V22.1649Z" fill="#FF6F3D"/>
</g>
<defs>
<clipPath id="clip0">
<rect width="70" height="70" fill="white"/>
</clipPath>
</defs>
</svg>
