<svg width="42" height="42" viewBox="0 0 42 42" fill="none" xmlns="http://www.w3.org/2000/svg">
<path d="M21.4133 41.4185C17.3588 41.4204 13.3948 40.218 10.0228 37.9634C6.65078 35.7088 4.02226 32.5033 2.46976 28.7524C0.917262 25.0014 0.510545 20.8737 1.30106 16.8912C2.09158 12.9087 4.04381 9.25055 6.91078 6.37943C9.77775 3.50831 13.4306 1.55325 17.4073 0.761592C21.384 -0.030069 25.5059 0.377237 29.2514 1.93198C32.9969 3.48673 36.1978 6.11905 38.4491 9.49595C40.7005 12.8729 41.9011 16.8426 41.8991 20.903C41.8939 26.3424 39.7339 31.5576 35.8932 35.4038C32.0525 39.2501 26.8449 41.4132 21.4133 41.4185ZM21.4133 1.8635C17.6527 1.86154 13.976 2.97652 10.8482 5.06741C7.72036 7.15831 5.28201 10.1312 3.84152 13.61C2.40104 17.0889 2.02313 20.9174 2.75559 24.6113C3.48805 28.3053 5.29798 31.6987 7.95646 34.3624C10.6149 37.0261 14.0025 38.8404 17.6907 39.5759C21.379 40.3113 25.2021 39.9349 28.6767 38.4941C32.1513 37.0533 35.1211 34.613 37.2106 31.4818C39.3001 28.3505 40.4154 24.6691 40.4154 20.903C40.4101 15.8567 38.4068 11.0185 34.8446 7.44932C31.2825 3.88015 26.4523 1.87137 21.4133 1.8635Z" fill="white"/>
<path d="M27.652 8.19727H15.6545C15.3177 8.19727 14.9948 8.33123 14.7567 8.5697C14.5185 8.80816 14.3848 9.13159 14.3848 9.46883V31.7763C14.3848 32.1135 14.5185 32.437 14.7567 32.6754C14.9948 32.9139 15.3177 33.0479 15.6545 33.0479H27.652C27.987 33.0452 28.3074 32.9101 28.5434 32.6719C28.7793 32.4337 28.9117 32.1118 28.9117 31.7763V9.46883C28.9117 9.13332 28.7793 8.8114 28.5434 8.57322C28.3074 8.33504 27.987 8.19991 27.652 8.19727ZM20.2835 9.38873H23.1329V9.86932H20.2835V9.38873ZM18.5339 9.30863C18.5976 9.30664 18.6604 9.32372 18.7143 9.35769C18.7682 9.39167 18.8107 9.44098 18.8365 9.49932C18.8623 9.55766 18.87 9.62237 18.8588 9.68517C18.8477 9.74797 18.818 9.80598 18.7737 9.8518C18.7294 9.89761 18.6724 9.92914 18.6101 9.94233C18.5478 9.95553 18.4829 9.9498 18.4239 9.92587C18.3648 9.90194 18.3143 9.86091 18.2786 9.80803C18.243 9.75514 18.224 9.69282 18.224 9.62903C18.2183 9.58455 18.2221 9.53939 18.235 9.49646C18.248 9.45353 18.2697 9.4138 18.2989 9.37983C18.3281 9.34585 18.3642 9.3184 18.4046 9.29924C18.4451 9.28007 18.4891 9.26963 18.5339 9.26858V9.30863ZM21.6332 32.397C21.4153 32.399 21.2017 32.3361 21.0195 32.2163C20.8374 32.0965 20.6949 31.9252 20.6101 31.7241C20.5253 31.5231 20.5021 31.3013 20.5434 31.087C20.5847 30.8727 20.6886 30.6756 20.842 30.5205C20.9954 30.3655 21.1914 30.2596 21.405 30.2163C21.6186 30.173 21.8402 30.1942 22.0418 30.2773C22.2433 30.3603 22.4157 30.5015 22.537 30.6828C22.6582 30.8641 22.723 31.0774 22.723 31.2957C22.7127 31.5791 22.5937 31.8476 22.3907 32.0452C22.1877 32.2429 21.9164 32.3546 21.6332 32.357V32.397ZM27.9719 11.1008V30.1243H27.672V29.6236H15.5845V30.1243H15.2846V10.7304H15.5845V11.0608H27.672V10.7304H27.9719V11.1008Z" fill="#FF6F3D"/>
<path d="M21.6339 32.0972C22.0979 32.0972 22.4739 31.7205 22.4739 31.2559C22.4739 30.7912 22.0979 30.4146 21.6339 30.4146C21.17 30.4146 20.7939 30.7912 20.7939 31.2559C20.7939 31.7205 21.17 32.0972 21.6339 32.0972Z" fill="#FF6F3D"/>
<path d="M18.9144 21.2836C18.9735 21.2849 19.0308 21.2634 19.0744 21.2236L22.4744 17.8193C22.5182 17.7754 22.5428 17.716 22.5428 17.6541C22.5428 17.5921 22.5182 17.5327 22.4744 17.4888C22.4307 17.445 22.3713 17.4204 22.3094 17.4204C22.2476 17.4204 22.1882 17.445 22.1444 17.4888L18.7444 20.8931C18.7022 20.9378 18.6787 20.9969 18.6787 21.0584C18.6787 21.1198 18.7022 21.1789 18.7444 21.2236C18.7925 21.2625 18.8526 21.2837 18.9144 21.2836Z" fill="white"/>
<path d="M24.503 18.2499C24.4584 18.2076 24.3994 18.1841 24.338 18.1841C24.2767 18.1841 24.2176 18.2076 24.1731 18.2499L18.7542 23.6768C18.712 23.7215 18.6885 23.7806 18.6885 23.842C18.6885 23.9035 18.712 23.9626 18.7542 24.0073C18.8023 24.0462 18.8623 24.0674 18.9241 24.0673C18.9832 24.0686 19.0405 24.0471 19.0841 24.0073L24.503 18.5803C24.5452 18.5357 24.5687 18.4766 24.5687 18.4151C24.5687 18.3536 24.5452 18.2945 24.503 18.2499Z" fill="white"/>
</svg>
