<svg width="42" height="42" viewBox="0 0 42 42" fill="none" xmlns="http://www.w3.org/2000/svg">
<path d="M21.4133 41.5298C17.3588 41.5317 13.3948 40.3294 10.0228 38.0748C6.65079 35.8202 4.02227 32.6146 2.46977 28.8637C0.917264 25.1128 0.510545 20.985 1.30106 17.0025C2.09157 13.0201 4.0438 9.36188 6.91078 6.49076C9.77775 3.61963 13.4306 1.66458 17.4073 0.872917C21.3841 0.0812577 25.5059 0.48857 29.2514 2.04332C32.9969 3.59807 36.1978 6.23039 38.4491 9.6073C40.7005 12.9842 41.9011 16.9539 41.8991 21.0143C41.8913 26.4529 39.7304 31.6666 35.8903 35.5122C32.0502 39.3579 26.8441 41.5219 21.4133 41.5298ZM21.4133 1.85996C17.6304 1.85996 13.9325 2.98334 10.7871 5.08805C7.64177 7.19276 5.19025 10.1843 3.7426 13.6843C2.29495 17.1843 1.91617 21.0356 2.65418 24.7512C3.39219 28.4668 5.21383 31.8797 7.88874 34.5585C10.5637 37.2373 13.9717 39.0616 17.6819 39.8007C21.3921 40.5397 25.2379 40.1604 28.7328 38.7107C32.2278 37.2609 35.2149 34.8059 37.3166 31.6559C39.4183 28.506 40.54 24.8027 40.54 21.0143C40.5348 15.9359 38.518 11.067 34.9322 7.47595C31.3463 3.88495 26.4844 1.86522 21.4133 1.85996Z" fill="white"/>
<path d="M28.6285 16.8576C28.6264 15.8362 28.3856 14.8294 27.9255 13.9178C27.4655 13.0062 26.7988 12.2151 25.9788 11.6076C25.1589 11.0001 24.2084 10.5932 23.2033 10.4193C22.1982 10.2454 21.1665 10.3094 20.1906 10.6062C19.2146 10.903 18.3215 11.4244 17.5827 12.1286C16.8439 12.8328 16.2799 13.7003 15.9357 14.6619C15.5916 15.6234 15.4768 16.6522 15.6006 17.6661C15.7244 18.6799 16.0834 19.6507 16.6488 20.5008L22.0904 29.8604L27.5217 20.5008C28.2429 19.4231 28.6281 18.155 28.6285 16.8576ZM22.0904 13.5838C22.7333 13.5838 23.3618 13.7749 23.8962 14.1328C24.4307 14.4908 24.847 14.9995 25.0926 15.5945C25.3382 16.1896 25.4019 16.8442 25.2757 17.4756C25.1496 18.1069 24.8391 18.6866 24.3838 19.1411C23.9284 19.5957 23.3486 19.9047 22.7178 20.0291C22.087 20.1534 21.4335 20.0876 20.8401 19.8398C20.2467 19.5919 19.74 19.1734 19.3843 18.637C19.0286 18.1007 18.8398 17.4707 18.8418 16.8268C18.8404 16.3997 18.9236 15.9765 19.0865 15.5818C19.2494 15.1871 19.4888 14.8286 19.7909 14.527C20.0929 14.2255 20.4517 13.9869 20.8464 13.825C21.241 13.6631 21.6639 13.5811 22.0904 13.5838Z" fill="#FF6F3D"/>
<path d="M25.3287 31.9136H18.8418V32.9399H25.3287V31.9136Z" fill="white"/>
</svg>
