<svg width="59" height="59" viewBox="0 0 59 59" fill="none" xmlns="http://www.w3.org/2000/svg">
<path d="M44.3917 44.1285C52.3966 36.1137 52.3966 23.1192 44.3917 15.1044C36.3868 7.08956 23.4083 7.08957 15.4034 15.1044C7.39844 23.1192 7.39843 36.1137 15.4033 44.1285C23.4083 52.1433 36.3868 52.1433 44.3917 44.1285Z" stroke="white" stroke-width="1.38" stroke-miterlimit="10"/>
<path d="M37.4197 23.9482H37.2597L29.1414 28.7141L21.0231 23.9482H20.8531C20.6056 23.9509 20.3691 24.0512 20.1951 24.2274C20.021 24.4036 19.9233 24.6415 19.9233 24.8894V34.6113C19.9233 34.8582 20.0213 35.0951 20.1957 35.2697C20.37 35.4443 20.6065 35.5424 20.8531 35.5424H37.4197C37.5426 35.5438 37.6646 35.5206 37.7786 35.4744C37.8925 35.4282 37.9962 35.3599 38.0836 35.2733C38.171 35.1867 38.2404 35.0836 38.2878 34.9699C38.3351 34.8563 38.3595 34.7344 38.3595 34.6113V24.8894C38.3595 24.7658 38.3352 24.6434 38.288 24.5292C38.2407 24.415 38.1715 24.3113 38.0842 24.2239C37.997 24.1365 37.8934 24.0672 37.7793 24.0199C37.6653 23.9726 37.5431 23.9482 37.4197 23.9482ZM37.4197 25.37L29.8713 29.7754L29.7213 29.8655L37.0198 34.1307C37.0497 34.1477 37.0758 34.1707 37.0965 34.1983C37.1171 34.2258 37.1318 34.2574 37.1397 34.2909C37.1544 34.324 37.1619 34.3598 37.1619 34.396C37.1619 34.4322 37.1544 34.468 37.1397 34.5011C37.1024 34.5618 37.0433 34.6059 36.9746 34.6245C36.9059 34.6431 36.8326 34.6348 36.7698 34.6013L29.2614 30.2159H29.2114L21.643 34.6313C21.5802 34.6648 21.507 34.6732 21.4382 34.6546C21.3695 34.636 21.3104 34.5918 21.2731 34.5312C21.2528 34.4626 21.2528 34.3895 21.2731 34.3209C21.2827 34.2868 21.2992 34.2549 21.3215 34.2274C21.3439 34.1998 21.3716 34.1771 21.403 34.1607L28.4216 29.9556L28.5715 29.8655L20.8631 25.37C20.801 25.3305 20.7549 25.2702 20.7332 25.1998C20.7131 25.1345 20.7131 25.0648 20.7332 24.9995C20.7511 24.9674 20.7755 24.9392 20.8047 24.9169C20.834 24.8945 20.8674 24.8783 20.9031 24.8694C20.9345 24.855 20.9686 24.8475 21.0031 24.8475C21.0376 24.8475 21.0717 24.855 21.1031 24.8694L29.0914 29.5351L37.0898 24.8794C37.1211 24.865 37.1552 24.8575 37.1897 24.8575C37.2242 24.8575 37.2584 24.865 37.2897 24.8794C37.3254 24.8883 37.3589 24.9045 37.3881 24.9269C37.4174 24.9492 37.4417 24.9774 37.4597 25.0095C37.4741 25.041 37.4815 25.0751 37.4815 25.1096C37.4815 25.1442 37.4741 25.1784 37.4597 25.2098C37.4634 25.266 37.4494 25.3221 37.4197 25.37Z" fill="#FF6F3D"/>
<path d="M37.26 23.9482H21.0234L29.1417 28.7139L37.26 23.9482Z" fill="white"/>
<path d="M21.0234 23.9478H37.26L29.7716 19.5224C29.5792 19.4146 29.3623 19.3579 29.1417 19.3579C28.9212 19.3579 28.7043 19.4146 28.5119 19.5224L21.0234 23.9478Z" fill="#FF6F3D"/>
</svg>
