<svg width="30" height="31" viewBox="0 0 30 31" fill="none" xmlns="http://www.w3.org/2000/svg">
<path d="M15.0073 30.8652C12.0399 30.8667 9.13883 29.9869 6.67098 28.3372C4.20313 26.6875 2.27942 24.342 1.1432 21.5974C0.00698866 18.8528 -0.290673 15.8325 0.287874 12.9185C0.86642 10.0045 2.29518 7.32778 4.3934 5.22696C6.49163 3.12614 9.16504 1.69562 12.0754 1.11635C14.9858 0.537092 18.0024 0.835124 20.7436 1.97274C23.4848 3.11036 25.8274 5.03645 27.4751 7.50735C29.1227 9.97825 30.0014 12.8829 30 15.8539C29.9942 19.8334 28.4128 23.6482 25.6024 26.4622C22.7919 29.2761 18.9818 30.8595 15.0073 30.8652ZM15.0073 1.83858C12.2387 1.83858 9.53232 2.66056 7.23036 4.20059C4.92839 5.74062 3.13422 7.92953 2.07474 10.4905C1.01526 13.0515 0.738052 15.8695 1.27817 18.5882C1.81829 21.3069 3.15147 23.8042 5.10914 25.7643C7.0668 27.7244 9.56102 29.0592 12.2764 29.6C14.9917 30.1408 17.8063 29.8633 20.3641 28.8025C22.9219 27.7417 25.1081 25.9453 26.6462 23.6405C28.1844 21.3357 29.0053 18.6259 29.0053 15.8539C29.0015 12.138 27.5255 8.57539 24.9011 5.94783C22.2768 3.32027 18.7186 1.84243 15.0073 1.83858Z" fill="white"/>
<path d="M20.7275 11.5096C20.8087 11.3591 20.8755 11.2014 20.9273 11.0385C20.9512 10.9629 20.9517 10.8818 20.9286 10.806C20.9056 10.7301 20.8601 10.6631 20.7982 10.6136C20.7363 10.5642 20.6609 10.5347 20.5819 10.5291C20.5029 10.5234 20.4241 10.5419 20.3558 10.5821C19.9809 10.8051 19.575 10.9712 19.1514 11.0751C18.6372 10.6105 17.9694 10.3529 17.2768 10.3521C16.9005 10.3523 16.5281 10.4287 16.182 10.5766C15.8359 10.7244 15.5231 10.9407 15.2625 11.2125C15.0019 11.4843 14.7988 11.806 14.6654 12.1583C14.532 12.5106 14.471 12.8862 14.486 13.2627C12.8404 13.0552 11.3377 12.2215 10.2897 10.9345C10.2495 10.8857 10.1982 10.8474 10.1401 10.8227C10.082 10.7981 10.0188 10.7878 9.95586 10.7928C9.89294 10.7979 9.83216 10.818 9.77869 10.8516C9.72522 10.8852 9.68064 10.9312 9.64872 10.9857C9.40874 11.3981 9.2783 11.8652 9.26985 12.3424C9.26139 12.8197 9.37521 13.2911 9.60043 13.7117C9.54519 13.7211 9.49212 13.7404 9.44384 13.7689C9.38468 13.8066 9.33597 13.8587 9.30221 13.9203C9.26845 13.9819 9.25073 14.051 9.25067 14.1213C9.25067 14.9527 9.62019 15.7161 10.2158 16.2348L10.1902 16.2604C10.1452 16.3114 10.1143 16.3731 10.1004 16.4397C10.0866 16.5062 10.0903 16.5752 10.1112 16.6399C10.2354 17.0278 10.4427 17.3839 10.7188 17.6832C10.9948 17.9825 11.3328 18.2177 11.7092 18.3725C10.9362 18.75 10.0712 18.8973 9.21702 18.7967C9.12921 18.7877 9.04092 18.8082 8.96598 18.8548C8.89103 18.9015 8.83367 18.9717 8.80287 19.0546C8.77329 19.138 8.77274 19.229 8.80129 19.3127C8.82985 19.3965 8.88584 19.4682 8.96019 19.5161C10.1214 20.2623 11.4723 20.6587 12.8521 20.6582C17.3741 20.6582 20.077 16.9806 20.077 13.4253L20.0763 13.3051C20.5145 12.9626 20.8952 12.552 21.2038 12.089C21.2506 12.019 21.2736 11.9358 21.2694 11.8517C21.2652 11.7677 21.2341 11.6871 21.1807 11.6221C21.1272 11.5571 21.0543 11.5111 20.9727 11.4908C20.8911 11.4705 20.8051 11.4771 20.7275 11.5096ZM19.4507 12.7953C19.3976 12.8335 19.3549 12.8844 19.3265 12.9434C19.2981 13.0024 19.285 13.0676 19.2882 13.133C19.2926 13.2297 19.2948 13.3279 19.2948 13.4246C19.2948 16.5952 16.8853 19.8751 12.8529 19.8751C12.1337 19.8754 11.4196 19.7545 10.7404 19.5176C11.5538 19.3615 12.3179 19.0123 12.9685 18.4992C13.0318 18.4492 13.0782 18.3809 13.1012 18.3035C13.1243 18.2261 13.1229 18.1435 13.0973 18.0669C13.0717 17.9904 13.023 17.9236 12.9581 17.8758C12.8931 17.8279 12.815 17.8013 12.7343 17.7996C12.4188 17.7936 12.1092 17.7134 11.8303 17.5655C11.5515 17.4177 11.3112 17.2062 11.129 16.9483C11.3141 16.9359 11.4956 16.9051 11.6719 16.8575C11.7572 16.8346 11.8323 16.7835 11.8849 16.7124C11.9375 16.6413 11.9644 16.5545 11.9614 16.4661C11.9583 16.3777 11.9254 16.2929 11.8681 16.2256C11.8107 16.1583 11.7323 16.1125 11.6456 16.0956C11.2892 16.023 10.9593 15.8548 10.6911 15.609C10.4229 15.3632 10.2265 15.049 10.1229 14.7C10.3175 14.7491 10.5173 14.7777 10.717 14.7843C10.889 14.7835 11.0485 14.678 11.1019 14.5125C11.1553 14.3469 11.0924 14.1645 10.9468 14.0678C10.6025 13.8381 10.3374 13.5076 10.1877 13.1215C10.038 12.7354 10.011 12.3124 10.1104 11.9103C11.3814 13.216 13.0977 13.9935 14.9163 14.0876C15.0451 14.0883 15.1577 14.0421 15.236 13.9476C15.3143 13.8531 15.3443 13.7279 15.3165 13.6077C15.2165 13.1762 15.2612 12.7237 15.4439 12.3202C15.6266 11.9168 15.9369 11.5849 16.327 11.3758C16.7171 11.1668 17.1651 11.0923 17.6018 11.1639C18.0384 11.2355 18.4393 11.4491 18.7424 11.7718C18.7878 11.8203 18.8448 11.8565 18.9081 11.8769C18.9713 11.8973 19.0387 11.9012 19.1038 11.8883C19.2246 11.8641 19.3438 11.8363 19.4617 11.8041C19.4085 11.8439 19.3533 11.8808 19.2963 11.9147C19.2204 11.9612 19.1626 12.0322 19.1325 12.1161C19.1023 12.1999 19.1016 12.2915 19.1304 12.3758C19.1592 12.4601 19.2158 12.532 19.2909 12.5798C19.366 12.6275 19.4552 12.6482 19.5436 12.6385L19.6768 12.6216C19.6034 12.6821 19.528 12.74 19.4507 12.7953Z" fill="#FF6F3D"/>
</svg>
