<svg width="30" height="31" viewBox="0 0 30 31" fill="none" xmlns="http://www.w3.org/2000/svg">
<path d="M19.2602 8.15734H16.661C13.3506 8.12691 12.9278 10.0092 12.9278 12.0463V13.5276H11.4665C11.4005 13.5195 11.3333 13.5255 11.2701 13.5451C11.207 13.5648 11.1497 13.5975 11.1026 13.6408C11.0554 13.6841 11.0198 13.7368 10.9985 13.7947C10.9771 13.8527 10.9706 13.9145 10.9794 13.9751V16.6603C10.9706 16.721 10.9771 16.7827 10.9985 16.8407C11.0198 16.8987 11.0554 16.9514 11.1026 16.9947C11.1497 17.038 11.207 17.0707 11.2701 17.0903C11.3333 17.1099 11.4005 17.1159 11.4665 17.1078H12.9278V23.8207C12.9197 23.8815 12.9268 23.9432 12.9486 24.001C12.9704 24.0589 13.0063 24.1114 13.0536 24.1546C13.1009 24.1978 13.1583 24.2305 13.2214 24.2502C13.2845 24.2698 13.3517 24.276 13.4178 24.2682H16.3941C16.6815 24.2986 16.9143 24.0847 16.8227 23.8207L16.8247 17.1078H19.2602C19.3262 17.1159 19.3934 17.1099 19.4565 17.0903C19.5197 17.0707 19.577 17.038 19.6241 16.9947C19.6712 16.9514 19.7069 16.8987 19.7282 16.8407C19.7496 16.7827 19.7561 16.721 19.7473 16.6603V13.9751C19.7561 13.9145 19.7496 13.8527 19.7282 13.7947C19.7069 13.7368 19.6712 13.6841 19.6241 13.6408C19.577 13.5975 19.5197 13.5648 19.4565 13.5451C19.3934 13.5255 19.3262 13.5195 19.2602 13.5276H16.8217L16.8247 12.1851C16.9192 11.6131 16.9192 11.7062 17.4969 11.7375H19.2397C19.3751 11.7098 19.5193 11.725 19.6206 11.6346C19.722 11.5442 19.7804 11.4207 19.7463 11.29V8.60486C19.7553 8.54423 19.7489 8.48251 19.7277 8.42451C19.7065 8.36651 19.6709 8.3138 19.6239 8.27049C19.5768 8.22717 19.5195 8.19443 19.4565 8.1748C19.3934 8.15518 19.3262 8.1492 19.2602 8.15734ZM18.739 10.7924L17.5173 10.7494C16.0044 10.7494 15.8777 11.5039 15.8777 12.2763L15.8738 13.9734C15.8737 14.0362 15.8871 14.0984 15.9132 14.1565C15.9392 14.2146 15.9775 14.2674 16.0259 14.3119C16.0742 14.3564 16.1316 14.3917 16.1948 14.4157C16.2579 14.4398 16.3257 14.4522 16.3941 14.4522H18.7731V16.1814H16.396C16.2579 16.1814 16.1255 16.2318 16.0278 16.3214C15.9301 16.411 15.8751 16.5326 15.8748 16.6594L15.8738 23.3731H13.902V16.6603C13.902 16.3963 13.7062 16.1823 13.4178 16.1823H11.9536V14.4531H13.4178C13.4862 14.4532 13.5539 14.4409 13.6171 14.417C13.6803 14.393 13.7377 14.3578 13.7861 14.3135C13.8835 14.2231 13.9011 14.1014 13.9011 13.9743V12.0454C13.9011 10.0387 14.3424 9.08282 16.66 9.08282H18.738V10.7924H18.739Z" fill="#FF6F3D"/>
<path d="M15.0073 30.8652C12.0399 30.8667 9.13883 29.9869 6.67098 28.3372C4.20313 26.6875 2.27942 24.342 1.1432 21.5974C0.00698866 18.8528 -0.290673 15.8325 0.287874 12.9185C0.86642 10.0045 2.29518 7.32778 4.3934 5.22696C6.49163 3.12614 9.16504 1.69562 12.0754 1.11635C14.9858 0.537092 18.0024 0.835124 20.7436 1.97274C23.4848 3.11036 25.8274 5.03645 27.4751 7.50735C29.1227 9.97825 30.0014 12.8829 30 15.8539C29.9942 19.8334 28.4128 23.6482 25.6024 26.4622C22.7919 29.2761 18.9818 30.8595 15.0073 30.8652ZM15.0073 1.83858C12.2387 1.83858 9.53232 2.66056 7.23036 4.20059C4.92839 5.74062 3.13422 7.92953 2.07474 10.4905C1.01526 13.0515 0.738052 15.8695 1.27817 18.5882C1.81829 21.3069 3.15147 23.8042 5.10914 25.7643C7.0668 27.7244 9.56102 29.0592 12.2764 29.6C14.9917 30.1408 17.8063 29.8633 20.3641 28.8025C22.9219 27.7417 25.1081 25.9453 26.6462 23.6405C28.1844 21.3357 29.0053 18.6259 29.0053 15.8539C29.0015 12.138 27.5255 8.57539 24.9011 5.94783C22.2768 3.32027 18.7186 1.84243 15.0073 1.83858Z" fill="white"/>
</svg>
