<svg width="30" height="31" viewBox="0 0 30 31" fill="none" xmlns="http://www.w3.org/2000/svg">
<path d="M20.0397 24.2715H10.6927C8.82328 24.2715 7.31738 22.7637 7.31738 20.892V11.5333C7.31738 9.66159 8.82328 8.15381 10.6927 8.15381H20.0397C21.909 8.15381 23.4149 9.66159 23.4149 11.5333V20.892C23.4149 22.7637 21.909 24.2715 20.0397 24.2715ZM10.6927 8.67373C9.10889 8.67373 7.83666 9.94755 7.83666 11.5333V20.892C7.83666 22.4777 9.10889 23.7516 10.6927 23.7516H20.0397C21.6234 23.7516 22.8957 22.4777 22.8957 20.892V11.5333C22.8957 9.94755 21.6234 8.67373 20.0397 8.67373H10.6927Z" fill="#FF6F3D"/>
<path d="M15.3661 20.373C13.0813 20.373 11.2119 18.5013 11.2119 16.2136C11.2119 13.9259 13.0813 12.0542 15.3661 12.0542C17.6509 12.0542 19.5203 13.9259 19.5203 16.2136C19.5203 18.5013 17.6509 20.373 15.3661 20.373ZM15.3661 12.5741C13.3669 12.5741 11.7312 14.2119 11.7312 16.2136C11.7312 18.2153 13.3669 19.8531 15.3661 19.8531C17.3653 19.8531 19.0011 18.2153 19.0011 16.2136C19.0011 14.2119 17.3653 12.5741 15.3661 12.5741Z" fill="#FF6F3D"/>
<path d="M20.0318 12.3208C19.5905 12.3208 19.2529 11.9829 19.2529 11.541C19.2529 11.0991 19.5905 10.7612 20.0318 10.7612C20.4732 10.7612 20.8108 11.0991 20.8108 11.541C20.8108 11.9829 20.4732 12.3208 20.0318 12.3208ZM20.0318 11.2811C19.8761 11.2811 19.7722 11.3851 19.7722 11.541C19.7722 11.697 19.8761 11.8009 20.0318 11.8009C20.1876 11.8009 20.2915 11.697 20.2915 11.541C20.2915 11.3851 20.1876 11.2811 20.0318 11.2811Z" fill="#FF6F3D"/>
<path d="M15.0073 30.8652C12.0399 30.8667 9.13883 29.9869 6.67098 28.3372C4.20313 26.6875 2.27942 24.342 1.1432 21.5974C0.00698866 18.8528 -0.290673 15.8325 0.287874 12.9185C0.86642 10.0045 2.29518 7.32778 4.3934 5.22696C6.49163 3.12614 9.16504 1.69562 12.0754 1.11635C14.9858 0.537092 18.0024 0.835124 20.7436 1.97274C23.4848 3.11036 25.8274 5.03645 27.4751 7.50735C29.1227 9.97825 30.0014 12.8829 30 15.8539C29.9942 19.8334 28.4128 23.6482 25.6024 26.4622C22.7919 29.2761 18.9818 30.8595 15.0073 30.8652ZM15.0073 1.83858C12.2387 1.83858 9.53232 2.66056 7.23036 4.20059C4.92839 5.74062 3.13422 7.92953 2.07474 10.4905C1.01526 13.0515 0.738052 15.8695 1.27817 18.5882C1.81829 21.3069 3.15147 23.8042 5.10914 25.7643C7.0668 27.7244 9.56102 29.0592 12.2764 29.6C14.9917 30.1408 17.8063 29.8633 20.3641 28.8025C22.9219 27.7417 25.1081 25.9453 26.6462 23.6405C28.1844 21.3357 29.0053 18.6259 29.0053 15.8539C29.0015 12.138 27.5255 8.57539 24.9011 5.94783C22.2768 3.32027 18.7186 1.84243 15.0073 1.83858Z" fill="white"/>
</svg>
