<svg width="10" height="17" viewBox="0 0 10 17" fill="none" xmlns="http://www.w3.org/2000/svg">
<path d="M9.26018 0.157341H6.66099C3.35063 0.126909 2.92782 2.00919 2.92782 4.04632V5.52762H1.46651C1.40046 5.51952 1.33326 5.52551 1.27015 5.54514C1.20703 5.56476 1.14968 5.59749 1.10256 5.64078C1.05544 5.68407 1.01982 5.73675 0.998462 5.79474C0.977102 5.85273 0.97058 5.91447 0.979403 5.97515V8.66029C0.97058 8.72097 0.977102 8.78271 0.998462 8.8407C1.01982 8.89869 1.05544 8.95137 1.10256 8.99466C1.14968 9.03795 1.20703 9.07068 1.27015 9.0903C1.33326 9.10993 1.40046 9.11592 1.46651 9.10781H2.92782V15.8207C2.9197 15.8815 2.92682 15.9432 2.94862 16.001C2.97042 16.0589 3.00633 16.1114 3.05361 16.1546C3.10089 16.1978 3.15829 16.2305 3.22141 16.2502C3.28454 16.2698 3.35173 16.276 3.41785 16.2682H6.39406C6.68145 16.2986 6.91429 16.0847 6.82271 15.8207L6.82466 9.10781H9.26018C9.32623 9.11592 9.39342 9.10993 9.45654 9.0903C9.51966 9.07068 9.57701 9.03795 9.62413 8.99466C9.67125 8.95137 9.70687 8.89869 9.72823 8.8407C9.74959 8.78271 9.75611 8.72097 9.74729 8.66029V5.97515C9.75611 5.91447 9.74959 5.85273 9.72823 5.79474C9.70687 5.73675 9.67125 5.68407 9.62413 5.64078C9.57701 5.59749 9.51966 5.56476 9.45654 5.54514C9.39342 5.52551 9.32623 5.51952 9.26018 5.52762H6.82174L6.82466 4.18505C6.91916 3.61312 6.91916 3.7062 7.49687 3.73753H9.23973C9.37514 3.70978 9.51932 3.725 9.62064 3.6346C9.72196 3.5442 9.78041 3.42068 9.74632 3.29001V0.604864C9.75531 0.544232 9.74894 0.48251 9.7277 0.42451C9.70647 0.366511 9.67094 0.3138 9.62389 0.270486C9.57684 0.227173 9.51954 0.194427 9.45645 0.174801C9.39336 0.155176 9.3262 0.1492 9.26018 0.157341ZM8.73898 2.79236L7.51732 2.7494C6.00438 2.7494 5.87773 3.50392 5.87773 4.27635L5.87383 5.97336C5.8737 6.0362 5.88707 6.09845 5.91315 6.15654C5.93924 6.21463 5.97754 6.26743 6.02586 6.3119C6.07418 6.35638 6.13157 6.39167 6.19475 6.41574C6.25793 6.43982 6.32566 6.45221 6.39406 6.45221H8.77308V8.18144H6.39601C6.25794 8.18144 6.12552 8.23177 6.02781 8.32137C5.93009 8.41098 5.87506 8.53255 5.8748 8.6594L5.87383 15.3731H3.90203V8.66029C3.90203 8.39625 3.70622 8.18233 3.41785 8.18233H1.95361V6.4531H3.41785C3.48621 6.4532 3.55391 6.44092 3.6171 6.41696C3.68029 6.393 3.73771 6.35784 3.7861 6.31348C3.88352 6.22308 3.90106 6.10135 3.90106 5.97425V4.04543C3.90106 2.03873 4.34237 1.08282 6.66002 1.08282H8.73801V2.79236H8.73898Z" fill="#FF6F3D"/>
</svg>
