<svg width="15" height="26" viewBox="0 0 15 26" fill="none" xmlns="http://www.w3.org/2000/svg">
<path d="M13.652 0.197266H1.6545C1.31774 0.197266 0.994783 0.331234 0.756661 0.569698C0.51854 0.808163 0.384766 1.13159 0.384766 1.46883V23.7763C0.384766 24.1135 0.51854 24.437 0.756661 24.6754C0.994783 24.9139 1.31774 25.0479 1.6545 25.0479H13.652C13.987 25.0452 14.3074 24.9101 14.5434 24.6719C14.7793 24.4337 14.9117 24.1118 14.9117 23.7763V1.46883C14.9117 1.13332 14.7793 0.811399 14.5434 0.57322C14.3074 0.335041 13.987 0.199907 13.652 0.197266ZM6.28353 1.38873H9.13293V1.86932H6.28353V1.38873ZM4.53389 1.30863C4.59756 1.30664 4.66037 1.32372 4.71428 1.35769C4.76819 1.39167 4.81075 1.44098 4.8365 1.49932C4.86226 1.55766 4.87004 1.62237 4.85885 1.68517C4.84765 1.74797 4.818 1.80598 4.77368 1.8518C4.72936 1.89761 4.67239 1.92914 4.61008 1.94233C4.54776 1.95553 4.48293 1.9498 4.42388 1.92587C4.36484 1.90194 4.31427 1.86091 4.27865 1.80803C4.24303 1.75514 4.22399 1.69282 4.22396 1.62903C4.21835 1.58455 4.22213 1.53939 4.23504 1.49646C4.24796 1.45353 4.26972 1.4138 4.29894 1.37983C4.32815 1.34585 4.36416 1.3184 4.40463 1.29924C4.4451 1.28007 4.48914 1.26963 4.53389 1.26858V1.30863ZM7.63324 24.397C7.41531 24.399 7.20171 24.3361 7.01954 24.2163C6.83738 24.0965 6.69486 23.9252 6.61009 23.7241C6.52531 23.5231 6.5021 23.3013 6.5434 23.087C6.5847 22.8727 6.68865 22.6756 6.84205 22.5205C6.99545 22.3655 7.19138 22.2596 7.40499 22.2163C7.61859 22.173 7.84023 22.1942 8.04176 22.2773C8.2433 22.3603 8.41566 22.5015 8.53695 22.6828C8.65824 22.8641 8.723 23.0774 8.72301 23.2957C8.71273 23.5791 8.59369 23.8476 8.3907 24.0452C8.1877 24.2429 7.91639 24.3546 7.63324 24.357V24.397ZM13.9719 3.10084V22.1243H13.672V21.6236H1.58451V22.1243H1.28458V2.73038H1.58451V3.06079H13.672V2.73038H13.9719V3.10084Z" fill="#FF6F3D"/>
</svg>
