<svg width="14" height="11" viewBox="0 0 14 11" fill="none" xmlns="http://www.w3.org/2000/svg">
<path d="M12.7278 1.50955C12.8089 1.35913 12.8758 1.20142 12.9275 1.03849C12.9514 0.962916 12.9519 0.881847 12.9289 0.805989C12.9059 0.730132 12.8604 0.663053 12.7985 0.613611C12.7366 0.564168 12.6611 0.534686 12.5821 0.529058C12.5032 0.523429 12.4243 0.541919 12.356 0.582086C11.9811 0.805093 11.5752 0.971244 11.1517 1.07512C10.6375 0.610491 9.96966 0.352912 9.27702 0.352051C8.90071 0.35234 8.52834 0.428704 8.18223 0.576563C7.83611 0.724422 7.52338 0.940732 7.26278 1.21253C7.00218 1.48432 6.79908 1.806 6.66565 2.15828C6.53222 2.51056 6.47121 2.88619 6.48629 3.26265C4.84069 3.05524 3.33799 2.22152 2.28994 0.934464C2.24979 0.885704 2.19847 0.847369 2.14035 0.822714C2.08223 0.798059 2.01903 0.787814 1.95611 0.792848C1.89319 0.797882 1.83241 0.818047 1.77894 0.851629C1.72546 0.885212 1.68088 0.931221 1.64897 0.985746C1.40898 1.39814 1.27854 1.86523 1.27009 2.34244C1.26164 2.81965 1.37545 3.29107 1.60067 3.71173C1.54544 3.72107 1.49237 3.74043 1.44409 3.76888C1.38493 3.80665 1.33622 3.85873 1.30246 3.92031C1.2687 3.9819 1.25097 4.051 1.25092 4.12125C1.25092 4.95275 1.62043 5.71611 2.21604 6.23479L2.19043 6.26043C2.14546 6.31136 2.11453 6.37314 2.10067 6.43969C2.08681 6.50623 2.09051 6.57524 2.11141 6.63992C2.23561 7.02784 2.44298 7.38391 2.71902 7.68319C2.99506 7.98247 3.33309 8.21773 3.70946 8.3725C2.93647 8.75004 2.07142 8.89728 1.21726 8.79668C1.12946 8.78772 1.04117 8.80817 0.966223 8.85484C0.891278 8.9015 0.833912 8.97174 0.803113 9.05455C0.773536 9.13797 0.772981 9.22896 0.801537 9.31273C0.830093 9.39651 0.886086 9.46817 0.96043 9.51609C2.12166 10.2623 3.47257 10.6587 4.85238 10.6582C9.37434 10.6582 12.0773 6.98057 12.0773 3.42529L12.0765 3.30514C12.5148 2.96259 12.8954 2.55203 13.2041 2.08903C13.2508 2.01904 13.2738 1.93584 13.2696 1.85175C13.2655 1.76765 13.2344 1.68714 13.1809 1.62213C13.1275 1.55712 13.0546 1.51107 12.9729 1.49079C12.8913 1.47052 12.8053 1.47709 12.7278 1.50955ZM11.4509 2.79526C11.3978 2.83348 11.3551 2.88442 11.3268 2.94342C11.2984 3.00241 11.2852 3.06758 11.2885 3.13298C11.2929 3.22969 11.2951 3.32785 11.2951 3.42456C11.2951 6.59523 8.88555 9.87506 4.85311 9.87506C4.13392 9.87539 3.4198 9.75453 2.74067 9.51755C3.55404 9.36149 4.31811 9.01227 4.96872 8.49924C5.03206 8.44925 5.07842 8.38089 5.10148 8.30351C5.12453 8.22613 5.12315 8.14351 5.09753 8.06694C5.0719 7.99038 5.02328 7.9236 4.95832 7.87575C4.89335 7.82791 4.81521 7.80131 4.73458 7.79961C4.41908 7.79358 4.10942 7.7134 3.83057 7.56553C3.55171 7.41766 3.31147 7.20625 3.12921 6.94834C3.31433 6.93588 3.4958 6.90512 3.67214 6.8575C3.75748 6.83463 3.83257 6.78347 3.88514 6.71238C3.93771 6.64129 3.96467 6.55446 3.96162 6.46606C3.95856 6.37766 3.92567 6.2929 3.86831 6.22562C3.81096 6.15834 3.73252 6.1125 3.6458 6.0956C3.28947 6.02303 2.95956 5.85483 2.69135 5.60901C2.42313 5.36318 2.22672 5.04898 2.12311 4.7C2.31775 4.74909 2.5175 4.77766 2.71726 4.78425C2.88921 4.78352 3.04872 4.67803 3.10214 4.51246C3.15555 4.34689 3.09263 4.16448 2.94702 4.06777C2.60273 3.83811 2.33764 3.50764 2.18795 3.1215C2.03826 2.73535 2.01128 2.31236 2.11067 1.91028C3.38167 3.216 5.09791 3.99353 6.91653 4.08755C7.04531 4.08829 7.15799 4.04213 7.23629 3.94763C7.31458 3.85312 7.34458 3.72785 7.31677 3.6077C7.2167 3.17621 7.26146 2.72371 7.44413 2.32025C7.6268 1.91679 7.93719 1.58485 8.32727 1.37581C8.71735 1.16677 9.16537 1.09228 9.602 1.16387C10.0386 1.23545 10.4395 1.44913 10.7426 1.77182C10.7881 1.82035 10.8451 1.8565 10.9083 1.87688C10.9715 1.89726 11.0389 1.90119 11.1041 1.8883C11.2248 1.86413 11.3441 1.83629 11.4619 1.80405C11.4088 1.84386 11.3536 1.88079 11.2965 1.91468C11.2207 1.96121 11.1629 2.03224 11.1327 2.11605C11.1026 2.19987 11.1018 2.29147 11.1306 2.37576C11.1594 2.46005 11.216 2.53201 11.2912 2.57976C11.3663 2.62752 11.4554 2.64823 11.5438 2.63848L11.677 2.62163C11.6037 2.68211 11.5283 2.74002 11.4509 2.79526Z" fill="#FF6F3D"/>
</svg>
