<svg width="218" height="468" fill="none" xmlns="http://www.w3.org/2000/svg"><path d="M209.984 60.769a37.296 37.296 0 00-2.027-9.7 153.954 153.954 0 01-4.176-19.642c-.06-3.596-2.057-4.23-4.206-3.657l-1.452.363a15.324 15.324 0 00-5.437-5.895 15.354 15.354 0 00-21.292 5.027 15.307 15.307 0 00-.24 15.47 15.332 15.332 0 005.635 5.705 15.354 15.354 0 007.748 2.085 15.143 15.143 0 007.413-1.994 14.92 14.92 0 003.904 2.84c1.755.635 2.753 4.321 2.753 4.321 1.634 18.131-3.843 52.308-3.843 52.308-12.556-5.258-28.351-7.011-33.797-8.28a117.342 117.342 0 01-18.003-6.043l-1.301-.484a53.625 53.625 0 00-7.867-1.904c-3.54-.785-7.595-1.601-10.802-1.994a20.566 20.566 0 00-4.085-.212s-8.018-10.969-6.838-15.109c-2.844-9.579 8.139-6.86 8.139-6.86 15.764 3.748 13.828-2.75 13.828-2.75-1.271-5.287-.212-6.98-.212-6.98 1.755-1.087.151-2.326.484-2.568.317-.3.611-.623.877-.967 1.786-1.33-.816-4.02-.816-4.02.786-.604 4.115-2.356 4.115-2.356 3.479-1.632-.848-4.684-.848-4.684-6.959-6.527-5.325-10.214-5.325-10.214 1.483-3.022-1.634-9.7-3.873-13.9h.847s4.962-10.849-10.106-14.898c0 0-34.705-16.136-47.08 18.131a5.37 5.37 0 00-.938.514 5.436 5.436 0 00-1.422 3.022c-4.297 1.662-21 10.062-12.8 37.229a109.875 109.875 0 008.322 21.153 27.24 27.24 0 00-10.488 5.709 27.197 27.197 0 00-7.032 9.641 66.018 66.018 0 00-11.619 11.332l-2.42 2.357c-3.026 3.022-10.711 13.055-14.282 17.074a68.43 68.43 0 00-6.354 8.007c-1.724 3.385-9.743 18.131-11.528 21.516-1.785 3.384 0 5.802 5.719 9.76 5.718 3.959 44.75 22.876 49.41 25.777a37.09 37.09 0 009.078 4.019l1.936.695a35.378 35.378 0 013.51 1.631c-6.717 9.066-19.667 30.219-12.708 51.372 0 0 .181 3.021 4.78 9.821.545 20.608 1.423 46.506 2.39 54.393 0 0-23.025 26.41-20.211 58.14 0 0 6.324 38.014 4.448 56.387a.69.69 0 00-.545 0s-6.445 12.087-5.598 19.853l-.726.303a7.243 7.243 0 01-1.15 5.197l5.386 4.563a254.81 254.81 0 0056.642 0 6.06 6.06 0 003.752-1.692 226.708 226.708 0 0022.693 7.403c6.99 1.572 6.264-4.019 6.264-4.019a4.054 4.054 0 00.321-3.366 4.047 4.047 0 00-2.349-2.436s-16.762-13.326-21.18-22.24a14.253 14.253 0 00-3.782-8.643 18.821 18.821 0 00-2.33-5.107c7.05-12.963 19.97-35.053 33.283-48.349l2.33-2.296c5.235-5.289 17.761-18.131 19.304-23.994 0 0 13.132-11.181 9.834-25.625 0 0-12.284-47.987-51.68-72.312a125.759 125.759 0 007.262-35.658v-.574a16.613 16.613 0 010-1.813v-.272c.212-10.788 8.926-35.114 8.926-35.114 5.265-21.153 2.693-24.839 2.663-24.688l-.847-3.868a18.14 18.14 0 007.63-9.717 18.105 18.105 0 00-.369-12.343c3.587.146 7.133.807 10.53 1.965 8.714 3.021 28.805 3.173 32.527 2.629 3.721-.544 20.363-2.478 24.206-3.022 3.842-.544 4.659-3.506 4.659-10.305 0-6.799-7.201-49.618-7.564-55.148zM70.8 31.759c.172.207.39.373.635.484a49.413 49.413 0 0016.52 33.935c.939 1.571 1.665 2.66 1.998 3.022a64.24 64.24 0 01-3.026 9.065c-.847.242-1.634.454-2.451.635l-1.15-4.533c-2.027-4.925-5.204-19.249-7.897-25.262-2.693-6.014-6.475-14.233-4.63-17.346zm-3.48 156.924c-15.704-9.065-40.515-33.24-40.515-33.24 11.71-7.373 22.27-19.219 26.355-22.996a99.807 99.807 0 0111.195-8.552l4.72 7.524 9.077 20.519s.696-.393 2.027-.726l-2.027.726c.303 1.541 5.78 14.414 5.78 14.414a32.333 32.333 0 013.933 10.697c.124 3.244-.4 6.48-1.543 9.519a41.856 41.856 0 00-7.625.513 26.079 26.079 0 00-3.45.665 33.56 33.56 0 00-4.901 1.511 12.933 12.933 0 01-3.026-.574zm73.163 141.452s-19.002 8.552-22.966 26.32v.423c-5.234 13.175-21.937 53.819-31.286 62.069.484-2.116.908-5.228-.757-5.228 0 0-11.013 9.851-12.98 18.131h-.424a12.798 12.798 0 00-3.782-2.78 9.945 9.945 0 00-1.966 2.296c-.697-13.266-.848-36.08 4.75-54.151 0 0 13.525-32.001 14.16-41.52 0 0 9.683-8.038 16.339-34.781 10.409 8.461 23.117 18.161 38.912 29.221z" fill="#323130" fill-opacity=".2"/></svg>