<svg width="297" height="341" fill="none" xmlns="http://www.w3.org/2000/svg"><path d="M296.608 289.218l-3.625-4.827a5.687 5.687 0 01-4.267.649v.198a3.837 3.837 0 00-1.283 0c-2.789.395-11.489-1.242-15.226.48v.367a7.676 7.676 0 00.39 2.822c-15.812-2.54-59.399-7.847-88.373 4.94a221.25 221.25 0 00-3.821-23.146c-1.366-10.021-4.322-30.768-7.139-47.196 3.291-9.09 3.123-21.51-7.976-36.922 0 0-14.306-57.894-9.174-76.044a77.609 77.609 0 00-5.076-25.405s7.697.931 18.963-28.227c9.872-25.405-5.27-34.777-9.202-36.696a5.35 5.35 0 00-1.144-3.077c-1.115-.988-3.569-1.948-4.183-1.214-12.856-25.404-41.468-12.787-41.468-12.787-13.664 3.416-9.007 13.07-9.007 13.07h.725a6.427 6.427 0 00-.223.677s-5.829 13.606-3.151 17.473c0 0 2.063 3.246-3.71 10.472 0 0-3.625 3.5-.167 4.573 0 0 3.375 1.214 4.211 1.665 0 0-2.091 2.823-.223 3.952.295.289.612.553.948.79.335.198-.976 1.61.809 2.4 0 0 1.199 1.468.753 6.662 0 0-.948 6.492 13.33.733 0 0 6.972-3.613 8.729 3.05-.447 1.721-2.789 6.858-3.207 8.806-1.367 4.968-10.876 16.682-26.828 32.433a35.175 35.175 0 00-8.505 8.158c-5.048 7.311-5.103 16.739 9.816 27.409 2.789 5.335 13.274 20.662 16.732 37.768 0 0 3.151 14.594-12.326 11.573-7.39-.677-18.322-1.468-29.448-1.468-21.613-.508-45.066.593-52.065 6.944 0 0-20.135 14.792 11.154 92.389l4.909 12.363a7.277 7.277 0 00-1.032-.762 14.946 14.946 0 00-4.797 5.137 12.116 12.116 0 00-5.103 6.493c-5.578 6.605-23.146 14.113-23.146 14.113a3.352 3.352 0 00-1.445.455c-.442.26-.82.619-1.104 1.048a3.444 3.444 0 00-.407 2.957s-1.785 4.601 4.685 4.771a260.247 260.247 0 0055.774-7.226l4.768-5.025a6.737 6.737 0 01-1.7-4.799l-.754-.197c0-7.509-7.752-18.235-7.752-18.235a.655.655 0 00-.335 0c.92-19.195 1.422-55.241-6.107-74.125 5.577 1.383 13.943 3.274 24.4 5.222a241.702 241.702 0 0049.333 10.472v.283h-.809c.753 5.984 17.401 46.575 17.401 46.575-.167-1.299 8.59 15.92 13.665 22.779 0 0 5.187 11.912 30.341 6.239a332.707 332.707 0 0084.748-14.961c-.195 2.117 4.518 2.823 4.518 2.823a5.74 5.74 0 012.108 1.556c.575.675.99 1.476 1.211 2.339a13.182 13.182 0 003.569 5.222s1.478 4.065 2.203 5.646c.441 1.08.623 2.25.53 3.415l2.175 2.625s-3.207 3.783-2.788 6.097c.209.736.565 1.42 1.044 2.012a5.606 5.606 0 001.744 1.432s6.721 4.629 9.789-1.891a210.232 210.232 0 002.621-48.297zM158.205 26.449a1.52 1.52 0 001.367-.48v.141c.92 1.976-.391 5.646-2.259 9.682a42.24 42.24 0 00.892-9.343zM39.881 313.126c.107-.342.19-.69.25-1.044l.614 1.524-.864-.48zM143.425 61.479s.614-1.44 1.45-3.867a40.307 40.307 0 004.852-5.307c-1.673 4.573-5.075 13.493-6.943 17.868-.47-2.908-.25-5.888.641-8.694zm127.248 243.857l1.534-.508a4.301 4.301 0 01-.502.508l.558.451a10.471 10.471 0 00-1.59-.451z" fill="#323130" fill-opacity=".2"/></svg>